<svg width="91" height="28" viewBox="0 0 91 28" fill="none" xmlns="http://www.w3.org/2000/svg">
<g clip-path="url(#clip0)">
<path d="M26.2995 19.8442C26.1583 19.503 26.0259 19.1442 25.8848 18.838L25.2318 17.3767L25.2054 17.3505C23.2642 13.1505 21.1907 8.88047 18.9936 4.68047L18.9054 4.50547C18.6848 4.09422 18.4642 3.63922 18.2348 3.21922C17.9524 2.72047 17.6789 2.18672 17.2289 1.67922C16.7902 1.14821 16.2382 0.720384 15.6126 0.426617C14.987 0.13285 14.3034 -0.0195312 13.6112 -0.0195312C12.919 -0.0195312 12.2355 0.13285 11.6099 0.426617C10.9843 0.720384 10.4322 1.14821 9.99359 1.67922C9.57889 2.18672 9.27006 2.72047 8.98771 3.21922C8.76712 3.67422 8.54653 4.12047 8.31712 4.53172L8.22889 4.70672C6.06712 8.90672 3.9583 13.1767 2.01712 17.3767L1.96418 17.4292C1.77006 17.8842 1.54065 18.3567 1.32006 18.8642C1.17889 19.1705 1.03771 19.503 0.896534 19.8705C0.515387 20.8328 0.393674 21.877 0.543392 22.9001C0.69311 23.9233 1.10909 24.8901 1.75034 25.7053C2.39159 26.5205 3.23597 27.1559 4.20026 27.549C5.16456 27.942 6.21549 28.0791 7.24948 27.9467C8.24077 27.8173 9.19531 27.4899 10.0554 26.9842C11.2024 26.3455 12.3054 25.418 13.5407 24.0792C14.7759 25.418 15.9054 26.3455 17.0259 26.993C18.1036 27.6202 19.3239 27.9664 20.573 27.9992C22.0195 28.0052 23.4193 27.492 24.514 26.5543C25.6087 25.6167 26.3244 24.318 26.5289 22.898C26.7652 21.8775 26.6853 20.8101 26.2995 19.8355V19.8442ZM13.6289 21.2967C12.1112 19.3717 11.123 17.6042 10.7877 16.0905C10.6488 15.5295 10.6189 14.9475 10.6995 14.3755C10.7612 13.9292 10.9289 13.5355 11.1583 13.203C11.6877 12.4417 12.6142 11.9692 13.6289 11.9692C14.1108 11.9546 14.5888 12.0589 15.02 12.2727C15.4512 12.4865 15.8221 12.8032 16.0995 13.1942C16.3289 13.5442 16.4965 13.9292 16.5495 14.3755C16.6377 14.883 16.6024 15.4692 16.4612 16.0905C16.1259 17.578 15.1377 19.363 13.6289 21.2967ZM24.8701 22.5917C24.7698 23.3127 24.4808 23.995 24.0319 24.5707C23.5829 25.1464 22.9897 25.5954 22.3112 25.873C21.6407 26.153 20.8995 26.2317 20.1759 26.153C19.4701 26.0655 18.7642 25.838 18.0407 25.418C16.8393 24.6817 15.7591 23.7668 14.8377 22.7055C16.6907 20.4305 17.8112 18.3567 18.2348 16.5105C18.4377 15.6355 18.4642 14.848 18.3759 14.1217C18.2658 13.4333 18.0069 12.7767 17.6171 12.1967C17.1721 11.5678 16.578 11.057 15.8872 10.7091C15.1964 10.3613 14.43 10.187 13.6554 10.2017C12.023 10.2017 10.5671 10.9542 9.68477 12.188C9.28757 12.7665 9.03086 13.4284 8.93477 14.1217C8.82006 14.8567 8.84653 15.6705 9.07595 16.5105C9.49948 18.3567 10.6465 20.4567 12.473 22.723C11.5673 23.8046 10.4845 24.7275 9.27006 25.453C8.53771 25.873 7.84065 26.0917 7.13477 26.1792C6.03702 26.3187 4.92814 26.0228 4.04915 25.3559C3.17016 24.6891 2.59211 23.7051 2.44065 22.618C2.35242 21.918 2.41418 21.218 2.69653 20.4305C2.78477 20.1505 2.91712 19.8705 3.0583 19.538C3.25242 19.083 3.48183 18.6105 3.70242 18.138L3.73771 18.0767C5.64359 13.903 7.72595 9.64172 9.88771 5.46797L9.97595 5.29297C10.1965 4.87297 10.4171 4.42672 10.6465 4.00672C10.8759 3.56047 11.123 3.13172 11.4407 2.78172C11.7156 2.45624 12.0592 2.19448 12.4471 2.01488C12.8351 1.83528 13.2581 1.74221 13.6862 1.74221C14.1144 1.74221 14.5374 1.83528 14.9253 2.01488C15.3133 2.19448 15.6569 2.45624 15.9318 2.78172C16.2407 3.13172 16.4965 3.56047 16.7259 4.00672C16.9465 4.42672 17.1671 4.88172 17.3965 5.29297L17.4848 5.46797C19.6377 9.64172 21.7201 13.903 23.6612 18.0767L23.6877 18.103C23.9171 18.558 24.1112 19.0655 24.3318 19.503C24.473 19.8442 24.6142 20.1155 24.7024 20.4042C24.8701 21.1917 24.9583 21.8917 24.8701 22.5917ZM37.1524 21.1042C36.4875 21.1139 35.829 20.9749 35.2256 20.6977C34.6223 20.4205 34.0896 20.0122 33.6671 19.503C32.7178 18.4179 32.2139 17.0189 32.2554 15.583C32.2408 14.1158 32.7609 12.6927 33.7201 11.5755C34.1637 11.0598 34.716 10.6468 35.338 10.3656C35.9599 10.0844 36.6365 9.94184 37.3201 9.94797C37.9632 9.93051 38.6003 10.0755 39.1714 10.3694C39.7425 10.6633 40.2289 11.0964 40.5848 11.628L40.673 10.2542H43.2495V20.8242H40.6642L40.5759 19.2842C40.209 19.8518 39.7019 20.3169 39.1027 20.6355C38.5035 20.954 37.8322 21.1154 37.1524 21.1042ZM37.823 18.5842C38.3348 18.5842 38.7848 18.4442 39.2083 18.1905C39.5965 17.9105 39.9142 17.543 40.1612 17.0967C40.3818 16.6505 40.4965 16.1167 40.4965 15.5217C40.5309 15.0049 40.4295 14.4882 40.2021 14.0219C39.9748 13.5556 39.6293 13.1559 39.1995 12.8617C38.7865 12.6065 38.3096 12.4713 37.823 12.4713C37.3364 12.4713 36.8595 12.6065 36.4465 12.8617C36.0583 13.1417 35.7407 13.5092 35.4936 13.9555C35.2603 14.4476 35.1455 14.9868 35.1583 15.5305C35.1239 16.0472 35.2253 16.564 35.4527 17.0303C35.68 17.4965 36.0255 17.8963 36.4554 18.1905C36.8701 18.4442 37.3201 18.5842 37.823 18.5842ZM47.6612 7.40172C47.6612 7.70797 47.6083 7.98797 47.4671 8.21547C47.3259 8.43422 47.1318 8.63547 46.8759 8.77547C46.6201 8.91547 46.3465 8.96797 46.0642 8.96797C45.7818 8.96797 45.4995 8.91547 45.2436 8.77547C45.0016 8.64187 44.7981 8.44909 44.6524 8.21547C44.5158 7.96621 44.4487 7.68527 44.4583 7.40172C44.4583 7.08672 44.5201 6.80672 44.6524 6.58797C44.7936 6.32547 44.9965 6.16797 45.2436 6.02797C45.4995 5.88797 45.773 5.82672 46.0642 5.82672C46.345 5.8203 46.6228 5.88627 46.8702 6.01816C47.1177 6.15006 47.3264 6.34338 47.4759 6.57922C47.6044 6.83432 47.668 7.11668 47.6612 7.40172ZM44.6612 20.7892V10.2367H47.4671V20.8067H44.6524L44.6612 20.7892ZM54.9671 13.0017V13.0367C54.8348 12.9755 54.6583 12.9492 54.5259 12.923C54.3495 12.888 54.2083 12.888 54.0406 12.888C53.2554 12.888 52.6642 13.1155 52.2759 13.588C51.8524 14.0692 51.6583 14.743 51.6583 15.6092V20.798H48.8436V10.228H51.4289L51.5171 11.8292C51.7995 11.2692 52.1348 10.8492 52.6112 10.5342C53.0852 10.2282 53.6431 10.0753 54.2083 10.0967C54.4112 10.0967 54.6054 10.1142 54.773 10.1492C54.8612 10.1755 54.9142 10.1755 54.9671 10.2017V13.0017ZM56.0965 20.7892V5.89672H58.9024V11.5842C59.2995 11.0767 59.7495 10.683 60.3142 10.3767C61.2082 9.94205 62.2238 9.81875 63.1971 10.0267C64.1704 10.2347 65.0447 10.7618 65.6789 11.523C66.6303 12.6102 67.1343 14.0128 67.0907 15.4517C67.1052 16.9189 66.5851 18.342 65.6259 19.4592C65.1823 19.9749 64.63 20.3879 64.0081 20.6691C63.3861 20.9503 62.7095 21.0928 62.0259 21.0867C61.3828 21.1042 60.7457 20.9591 60.1746 20.6653C59.6035 20.3714 59.1171 19.9383 58.7612 19.4067L58.673 20.7805L56.0965 20.8067V20.7892ZM61.523 18.5842C62.0259 18.5842 62.4759 18.4442 62.8995 18.1905C63.2877 17.9105 63.6054 17.543 63.8524 17.0967C64.0818 16.6505 64.1877 16.1167 64.1877 15.5217C64.1877 14.9355 64.0818 14.4017 63.8524 13.9555C63.6207 13.5252 63.2952 13.1515 62.8995 12.8617C62.4865 12.6065 62.0096 12.4713 61.523 12.4713C61.0364 12.4713 60.5595 12.6065 60.1465 12.8617C59.7495 13.1417 59.4407 13.5092 59.1848 13.9555C58.9514 14.4476 58.8366 14.9868 58.8495 15.5305C58.8151 16.0472 58.9165 16.564 59.1439 17.0303C59.3712 17.4965 59.7167 17.8963 60.1465 18.1905C60.5612 18.4442 61.0112 18.5842 61.523 18.5842ZM68.1495 20.798V10.228H70.7348L70.823 11.6017C71.1479 11.0751 71.6087 10.6442 72.1579 10.3534C72.707 10.0627 73.3245 9.9227 73.9465 9.94797C74.6578 9.93579 75.3569 10.1318 75.9564 10.5116C76.5559 10.8913 77.0292 11.4379 77.3171 12.083C77.6259 12.748 77.7936 13.5705 77.7936 14.4892V20.8242H74.9789V14.8567C74.9789 14.1217 74.8112 13.5442 74.4759 13.1155C74.1406 12.6955 73.6818 12.468 73.0995 12.468C72.6759 12.468 72.3054 12.5555 71.9789 12.748C71.6701 12.9492 71.4142 13.203 71.2201 13.5617C71.0238 13.9244 70.9265 14.3316 70.9377 14.743V20.798H68.1495ZM79.1965 20.798V5.88797H82.0112V11.5755C82.3925 11.0651 82.8884 10.65 83.4597 10.3629C84.0311 10.0758 84.662 9.92477 85.3024 9.92172C85.9673 9.91207 86.6258 10.051 87.2292 10.3282C87.8326 10.6054 88.3652 11.0138 88.7877 11.523C89.7324 12.6102 90.2328 14.0085 90.1907 15.443C90.206 16.9103 89.6858 18.3336 88.7259 19.4505C88.2823 19.9662 87.73 20.3792 87.108 20.6604C86.4861 20.9415 85.8095 21.0841 85.1259 21.078C84.4828 21.0954 83.8457 20.9504 83.2746 20.6565C82.7035 20.3626 82.2171 19.9295 81.8612 19.398L81.7818 20.7717L79.1965 20.798ZM84.6495 18.5842C85.1612 18.5842 85.6112 18.4442 86.0259 18.1905C86.423 17.9105 86.7318 17.543 86.9877 17.0967C87.2083 16.6505 87.323 16.1167 87.323 15.5217C87.3574 15.0049 87.256 14.4882 87.0286 14.0219C86.8013 13.5556 86.4558 13.1559 86.0259 12.8617C85.6129 12.6065 85.1361 12.4713 84.6495 12.4713C84.1629 12.4713 83.686 12.6065 83.273 12.8617C82.8848 13.1417 82.5671 13.5092 82.3201 13.9555C82.0738 14.4432 81.9583 14.9856 81.9848 15.5305C81.9504 16.0472 82.0518 16.564 82.2792 17.0303C82.5065 17.4965 82.852 17.8963 83.2818 18.1905C83.6965 18.4442 84.1201 18.5842 84.6495 18.5842Z" fill="#FF385C"/>
</g>
<defs>
<clipPath id="clip0">
<rect width="90" height="28" fill="white" transform="translate(0.5)"/>
</clipPath>
</defs>
</svg>
