<svg width="2932" height="131" viewBox="0 0 2932 131" fill="none" xmlns="http://www.w3.org/2000/svg">
<g opacity="0.2">
<path d="M16.0939 87.5445C14.9801 87.7561 13.9244 86.944 13.8581 85.8098C13.6529 82.3113 12.7762 78.7538 11.8179 75.465C10.7782 71.8971 8.76968 68.7964 7.27324 65.4464C4.78507 59.8761 3.05486 54.6084 1.98619 48.6361C1.93769 48.3655 0.83539 42.9326 0.08169 39.6021C-0.26134 38.086 0.50035 36.5371 1.90852 35.885C3.49452 35.1509 5.37636 35.7887 6.19194 37.3372L9.392 44.81C9.53416 45.142 10.0329 44.9798 9.95337 44.6274L6.89974 31.0693C6.41214 29.2051 7.47672 27.2867 9.31414 26.7187C11.1649 26.1464 13.135 27.1487 13.7665 28.984L17.886 42.6937C17.9904 43.041 18.5065 42.9336 18.4641 42.5734L16.2563 23.7843C16.0125 21.9893 17.2622 20.3343 19.052 20.0821C20.672 19.8538 22.2125 20.8558 22.6644 22.4316L27.5639 41.5278C27.651 41.8675 28.1503 41.8018 28.1473 41.4513L27.9946 24.3856C27.9637 22.8691 29.0343 21.5132 30.532 21.2944C32.1667 21.0556 33.6713 22.1928 33.9036 23.8183L36.7162 45.9062C36.9063 47.3997 38.8974 47.7677 39.6065 46.4403L41.753 42.4233C42.8523 40.6869 45.1398 40.1582 46.8869 41.2367C48.652 42.3264 49.201 44.6446 48.1109 46.412C46.6933 48.7106 45.4154 51.1022 44.4303 53.6206C43.0474 57.1556 41.8968 60.8071 41.3837 64.5793C40.8489 68.5112 41.4051 71.6302 42.2651 75.503L43.3483 80.3805C43.58 81.424 42.9041 82.4526 41.8563 82.6517L16.0939 87.5445Z" fill="#8C30F5"/>
<path d="M48.671 44.4412C48.671 45.1155 48.4907 45.7976 48.1113 46.4125C46.6927 48.7104 45.4159 51.1025 44.4305 53.6214C43.0483 57.1548 41.8962 60.8072 41.3843 64.5788C40.8495 68.5119 41.4055 71.6302 42.2642 75.5037L43.3473 80.3801C43.5792 81.4234 42.9045 82.4531 41.8559 82.6511L39.6398 83.0718C39.9235 82.6472 40.0385 82.1112 39.9196 81.5713L38.8077 76.5641C37.9239 72.5869 37.3527 69.386 37.9029 65.3491C38.4282 61.4757 39.611 57.7253 41.0295 54.0958C42.0417 51.5117 43.3529 49.0561 44.8099 46.6947C45.199 46.0644 45.3851 45.3632 45.3851 44.6715C45.3851 43.3766 44.7332 42.1103 43.5525 41.3823C43.4068 41.292 43.2592 41.2132 43.1078 41.146C44.2523 40.5139 45.6958 40.5004 46.8863 41.2363C48.0364 41.9472 48.671 43.1788 48.671 44.4412Z" fill="black" fill-opacity="0.2"/>
<path d="M79.0486 110.016C80.1624 110.227 81.2181 109.415 81.2844 108.281C81.4895 104.782 82.3663 101.225 83.3245 97.9361C84.3642 94.3682 86.3728 91.2675 87.8692 87.9175C90.3574 82.3472 92.0876 77.0795 93.1563 71.1073C93.2048 70.8366 94.3071 65.4038 95.0608 62.0732C95.4038 60.5572 94.6421 59.0082 93.234 58.3563C91.6479 57.6222 89.7661 58.26 88.9505 59.8085L85.7505 67.2813C85.6083 67.6133 85.1096 67.4511 85.1891 67.0988L88.2427 53.5408C88.7303 51.6765 87.6658 49.7582 85.8283 49.1902C83.9775 48.6179 82.0074 49.6202 81.376 51.4555L77.2565 65.1652C77.152 65.5125 76.636 65.4051 76.6784 65.0449L78.8862 46.2559C79.13 44.4609 77.8803 42.806 76.0904 42.5538C74.4704 42.3255 72.93 43.3275 72.478 44.9033L67.5786 63.9995C67.4915 64.3392 66.9921 64.2735 66.9951 63.9228L67.1479 46.8571C67.1787 45.3406 66.1082 43.9847 64.6104 43.7659C62.9758 43.5271 61.4712 44.6643 61.2389 46.2898L58.4262 68.3777C58.2361 69.8712 56.2451 70.2392 55.536 68.9118L53.3895 64.8948C52.2902 63.1584 50.0027 62.6297 48.2556 63.7082C46.4904 64.7979 45.9415 67.1161 47.0316 68.8835C48.4492 71.1821 49.7271 73.5737 50.7122 76.092C52.0951 79.6271 53.2457 83.2786 53.7587 87.0508C54.2935 90.9827 53.7374 94.1017 52.8774 97.9745L51.7942 102.852C51.5625 103.895 52.2383 104.924 53.2862 105.123L79.0486 110.016Z" fill="#8C30F5"/>
<path d="M95.06 62.0733C94.3067 65.4029 93.2044 70.8366 93.1564 71.1076C92.0867 77.0791 90.3576 82.3475 87.8692 87.9175C86.372 91.2684 84.3629 94.3674 83.324 97.9353C82.3655 101.225 81.4893 104.783 81.2842 108.282C81.2171 109.415 80.1627 110.228 79.0489 110.015L77.3198 109.686C77.755 109.369 78.054 108.868 78.0886 108.282C78.2937 104.783 79.1699 101.225 80.1284 97.9353C81.1693 94.3674 83.1764 91.2682 84.6736 87.9175C87.162 82.3475 88.8911 77.0791 89.9608 71.1076C90.0088 70.8366 91.1111 65.4031 91.8644 62.0733C92.1883 60.64 91.5251 59.1759 90.2598 58.4688C90.7467 58.1959 91.2969 58.0518 91.8587 58.0518C92.3188 58.0518 92.7885 58.1497 93.2332 58.3553C94.6421 59.0087 95.4032 60.5573 95.06 62.0733Z" fill="black" fill-opacity="0.2"/>
</g>
<g opacity="0.2">
<path d="M157.963 75.4228C156.844 75.2407 156.13 74.1166 156.455 73.0281C157.459 69.6703 157.852 66.0276 158.076 62.6093C158.319 58.9011 157.493 55.3003 157.232 51.6406C156.799 45.5552 156.975 40.0134 158.013 34.0358C158.06 33.7649 158.883 28.2827 159.314 24.8952C159.51 23.3533 160.755 22.1582 162.302 22.0271C164.043 21.8797 165.593 23.1227 165.83 24.8567L166.281 32.9733C166.301 33.334 166.825 33.3521 166.871 32.9938L168.639 19.209C168.818 17.2903 170.475 15.8518 172.396 15.9465C174.331 16.0417 175.839 17.6574 175.805 19.5979L174.987 33.8898C174.966 34.2519 175.488 34.3274 175.571 33.9745L179.923 15.5634C180.308 13.7932 182.048 12.6655 183.816 13.0407C185.416 13.3802 186.521 14.8486 186.407 16.484L184.48 36.1043C184.445 36.4533 184.937 36.5623 185.054 36.2319L190.747 20.1432C191.237 18.7075 192.707 17.7996 194.189 18.1062C195.807 18.441 196.832 20.0242 196.494 21.6311L191.583 43.3489C191.25 44.8173 192.996 45.8441 194.116 44.8394L197.507 41.7987C199.134 40.543 201.464 40.8285 202.737 42.4396C204.023 44.0673 203.746 46.4334 202.117 47.7214C199.999 49.3965 197.98 51.2068 196.193 53.2364C193.684 56.0853 191.354 59.123 189.582 62.4922C187.735 66.0041 187.191 69.1253 186.674 73.0586L186.024 78.0124C185.885 79.0722 184.898 79.8077 183.845 79.6364L157.963 75.4228Z" fill="#8C30F5"/>
<path d="M203.317 46.0609C203.087 46.6947 202.684 47.2739 202.117 47.722C199.998 49.3961 197.98 51.2073 196.193 53.2372C193.685 56.0848 191.354 59.1229 189.583 62.492C187.735 66.0049 187.191 69.1253 186.673 73.0589L186.023 78.0117C185.884 79.0714 184.898 79.8083 183.845 79.6356L181.618 79.273C182.03 78.9711 182.322 78.5067 182.394 77.9587L183.062 72.8732C183.592 68.8336 184.15 65.6303 186.048 62.0251C187.866 58.5649 190.26 55.4452 192.835 52.5198C194.67 50.4377 196.742 48.5786 198.918 46.858C199.5 46.3989 199.914 45.8036 200.151 45.1536C200.594 43.9367 200.414 42.5239 199.554 41.4359C199.448 41.3012 199.336 41.1767 199.217 41.0617C200.508 40.8592 201.869 41.3403 202.736 42.439C203.574 43.5003 203.749 44.8747 203.317 46.0609Z" fill="black" fill-opacity="0.2"/>
<path d="M209.435 118.071C210.409 118.65 211.679 118.249 212.129 117.205C213.519 113.988 215.559 110.945 217.585 108.182C219.782 105.185 222.73 102.958 225.282 100.322C229.525 95.9388 232.953 91.5805 235.999 86.334C236.138 86.0963 239.032 81.368 240.879 78.4961C241.72 77.1888 241.534 75.4727 240.434 74.3786C239.194 73.1462 237.208 73.102 235.912 74.2781L230.349 80.2058C230.102 80.4692 229.688 80.1462 229.884 79.8423L237.39 68.1464C238.486 66.5613 238.142 64.3946 236.61 63.2324C235.066 62.0615 232.872 62.3296 231.651 63.8382L223.091 75.3122C222.874 75.6029 222.426 75.3254 222.589 75.0014L231.09 58.1007C231.933 56.4973 231.324 54.5148 229.729 53.6656C228.284 52.897 226.494 53.3117 225.531 54.6379L214.395 70.9068C214.197 71.1962 213.751 70.9636 213.873 70.6351L219.854 54.6509C220.401 53.2363 219.859 51.5961 218.526 50.8782C217.072 50.0948 215.269 50.6488 214.495 52.0968L204.297 71.8906C203.608 73.229 201.611 72.8939 201.399 71.404L200.756 66.8951C200.317 64.8875 198.348 63.6082 196.337 64.0242C194.306 64.4445 192.997 66.4351 193.417 68.4687C193.963 71.1136 194.346 73.798 194.41 76.5014C194.501 80.2963 194.333 84.1211 193.525 87.8412C192.683 91.7189 191.093 94.4596 188.961 97.8047L186.274 102.018C185.7 102.919 185.983 104.117 186.9 104.662L209.435 118.071Z" fill="#8C30F5"/>
<path d="M240.878 78.4959C239.032 81.3671 236.137 86.0961 236 86.3343C232.952 91.5798 229.525 95.9391 225.282 100.322C222.729 102.959 219.781 105.184 217.585 108.181C215.559 110.944 213.519 113.989 212.129 117.206C211.678 118.248 210.41 118.651 209.436 118.07L207.923 117.17C208.441 117.021 208.893 116.652 209.126 116.113C210.516 112.896 212.556 109.851 214.582 107.088C216.78 104.092 219.726 101.866 222.279 99.2291C226.522 94.8462 229.949 90.4868 232.997 85.2413C233.135 85.0031 236.029 80.2743 237.875 77.403C238.67 76.1669 238.548 74.5643 237.601 73.467C238.151 73.3771 238.718 73.4299 239.246 73.622C239.678 73.7793 240.086 74.0321 240.433 74.3774C241.534 75.4732 241.719 77.1887 240.878 78.4959Z" fill="black" fill-opacity="0.2"/>
</g>
<g opacity="0.2">
<path d="M322.123 62.0489C321.134 61.495 320.847 60.1944 321.526 59.2829C323.617 56.471 325.232 53.1823 326.612 50.0469C328.109 46.6455 328.564 42.9791 329.571 39.451C331.245 33.5845 333.306 28.437 336.326 23.1751C336.463 22.9366 339.111 18.0662 340.674 15.0304C341.386 13.6486 342.965 12.9516 344.463 13.3573C346.15 13.8143 347.181 15.5126 346.811 17.223L344.459 25.0044C344.354 25.3502 344.84 25.5465 345.006 25.2255L351.382 12.8765C352.207 11.135 354.255 10.3498 356.028 11.0957C357.813 11.8469 358.678 13.8811 357.982 15.6929L352.326 28.8431C352.182 29.1763 352.647 29.4257 352.846 29.1225L363.232 13.3101C364.199 11.7784 366.22 11.3139 367.753 12.2712C369.141 13.1376 369.677 14.8953 369.01 16.393L360.489 34.1708C360.337 34.4871 360.762 34.7576 360.985 34.4872L371.838 21.316C372.789 20.1344 374.48 19.7839 375.768 20.579C377.174 21.4469 377.596 23.2852 376.729 24.6797L364.686 43.4079C363.871 44.6741 365.16 46.2359 366.556 45.6749L370.783 43.9773C372.741 43.3539 374.833 44.4192 375.478 46.3684C376.13 48.3378 375.06 50.4665 373.089 51.1197C370.526 51.9693 368.01 52.9799 365.636 54.2759C362.305 56.0951 359.076 58.1526 356.258 60.7125C353.321 63.3808 351.742 66.1276 349.912 69.6471L347.606 74.0797C347.113 75.028 345.934 75.3816 345.003 74.8605L322.123 62.0489Z" fill="#8C30F5"/>
<path d="M374.785 49.97C374.352 50.4866 373.775 50.8932 373.089 51.1204C370.525 51.9688 368.01 52.9806 365.636 54.2768C362.306 56.0951 359.075 58.1524 356.259 60.7125C353.321 63.3817 351.743 66.1278 349.911 69.647L347.606 74.0788C347.113 75.0271 345.934 75.3822 345.004 74.8598L343.035 73.7576C343.526 73.6147 343.958 73.2781 344.214 72.788L346.581 68.2376C348.461 64.6228 350.081 61.8035 353.097 59.0648C355.989 56.4352 359.306 54.3226 362.725 52.454C365.162 51.1251 367.745 50.0868 370.379 49.2145C371.082 48.9818 371.675 48.5642 372.12 48.0343C372.952 47.0423 373.267 45.6533 372.83 44.3367C372.777 44.1738 372.714 44.0186 372.642 43.8698C373.925 44.1212 375.039 45.0388 375.478 46.3678C375.902 47.6516 375.596 49.003 374.785 49.97Z" fill="black" fill-opacity="0.2"/>
<path d="M355.905 119.73C356.622 120.608 357.953 120.664 358.733 119.838C361.139 117.29 364.097 115.128 366.945 113.225C370.035 111.16 373.567 110.076 376.866 108.471C382.353 105.804 387.064 102.881 391.722 98.9925C391.933 98.8164 396.27 95.3631 398.988 93.2962C400.225 92.3553 400.637 90.6792 399.978 89.2747C399.235 87.6928 397.383 86.9718 395.763 87.6337L388.508 91.3013C388.186 91.4643 387.908 91.0194 388.195 90.8006L399.249 82.3775C400.821 81.2628 401.239 79.109 400.196 77.4928C399.147 75.8647 396.993 75.3661 395.33 76.3661L383.362 84.2204C383.058 84.4194 382.732 84.0054 382.996 83.7567L396.765 70.7826C398.105 69.5643 398.212 67.4933 397.003 66.1496C395.908 64.9333 394.084 64.7107 392.725 65.6274L376.697 77.1066C376.412 77.3108 376.072 76.9395 376.3 76.6728L387.386 63.698C388.385 62.556 388.436 60.8293 387.429 59.6989C386.331 58.4652 384.447 58.3692 383.224 59.4652L366.872 74.5775C365.766 75.5994 364.004 74.6014 364.314 73.1288L365.252 68.6719C365.526 66.6351 364.114 64.7597 362.082 64.4629C360.029 64.163 358.119 65.586 357.818 67.6406C357.426 70.3127 356.868 72.9662 356.004 75.5285C354.791 79.1255 353.325 82.6623 351.293 85.8817C349.176 89.2375 346.745 91.2693 343.597 93.6832L339.632 96.7233C338.783 97.3738 338.64 98.5962 339.315 99.4222L355.905 119.73Z" fill="#8C30F5"/>
<path d="M398.987 93.2954C396.27 95.3618 391.933 98.8157 391.722 98.9924C387.064 102.879 382.353 105.804 376.866 108.471C373.566 110.076 370.034 111.158 366.945 113.223C364.097 115.127 361.138 117.29 358.732 119.838C357.952 120.664 356.622 120.608 355.906 119.729L354.792 118.366C355.33 118.403 355.881 118.211 356.284 117.784C358.69 115.236 361.649 113.073 364.497 111.169C367.588 109.105 371.118 108.021 374.418 106.417C379.905 103.75 384.616 100.825 389.274 96.9383C389.485 96.7616 393.822 93.3079 396.539 91.2413C397.709 90.3515 398.142 88.8037 397.627 87.4486C398.175 87.5526 398.689 87.7958 399.12 88.1569C399.472 88.4526 399.769 88.8297 399.978 89.273C400.637 90.6791 400.225 92.3547 398.987 93.2954Z" fill="black" fill-opacity="0.2"/>
</g>
<g opacity="0.2">
<path d="M493.599 49.0376C492.859 48.1788 493.035 46.8586 493.984 46.234C496.911 44.3071 499.554 41.7691 501.923 39.2947C504.493 36.6104 506.174 33.3206 508.327 30.3497C511.907 25.4097 515.603 21.2774 520.241 17.3658C520.451 17.1885 524.605 13.5174 527.113 11.1994C528.254 10.1443 529.976 10.0295 531.245 10.923C532.674 11.9294 533.063 13.8781 532.129 15.3586L527.258 21.8663C527.041 22.1555 527.431 22.5063 527.696 22.2612L537.911 12.8377C539.282 11.4832 541.476 11.446 542.886 12.7533C544.307 14.07 544.424 16.2773 543.151 17.7417L533.337 28.1642C533.089 28.4283 533.44 28.8215 533.731 28.6047L548.899 17.2982C550.331 16.1895 552.389 16.4443 553.503 17.8682C554.51 19.157 554.413 20.9921 553.274 22.1714L539.186 35.9625C538.935 36.2079 539.242 36.6074 539.544 36.4296L554.247 27.7645C555.545 26.9795 557.254 27.2287 558.193 28.4163C559.217 29.7126 558.984 31.5843 557.693 32.5982L539.97 46.0779C538.772 46.9893 539.449 48.8976 540.953 48.8481L545.505 48.6984C547.559 48.7823 549.16 50.4989 549.1 52.5512C549.039 54.6247 547.305 56.2592 545.23 56.1989C542.53 56.1205 539.82 56.2096 537.147 56.6157C533.394 57.1856 529.656 58.0149 526.133 59.4566C522.46 60.9595 520.037 63.0006 517.113 65.6818L513.431 69.0586C512.643 69.781 511.414 69.71 510.718 68.9021L493.599 49.0376Z" fill="#8C30F5"/>
<path d="M547.217 55.6982C546.633 56.0354 545.952 56.2203 545.23 56.1992C542.53 56.1196 539.82 56.2099 537.146 56.616C533.395 57.1857 529.656 58.0142 526.134 59.4566C522.46 60.96 520.038 63.0006 517.112 65.681L513.431 69.0573C512.643 69.7798 511.414 69.7103 510.718 68.9012L509.246 67.1923C509.756 67.2257 510.277 67.0573 510.685 66.6844L514.466 63.2178C517.468 60.4638 519.955 58.3687 523.726 56.8268C527.343 55.345 531.182 54.4941 535.035 53.9079C537.779 53.4924 540.561 53.4001 543.335 53.4812C544.075 53.5031 544.775 53.3136 545.374 52.9677C546.496 52.3203 547.266 51.1226 547.306 49.736C547.312 49.5647 547.306 49.3976 547.289 49.2328C548.408 49.9079 549.142 51.1513 549.1 52.5502C549.059 53.9017 548.31 55.0671 547.217 55.6982Z" fill="black" fill-opacity="0.2"/>
<path d="M505.616 114.794C505.99 115.864 507.221 116.372 508.236 115.863C511.368 114.291 514.888 113.272 518.215 112.457C521.825 111.574 525.514 111.763 529.164 111.384C535.232 110.753 540.659 109.618 546.365 107.557C546.624 107.464 551.88 105.702 555.141 104.69C556.626 104.229 557.586 102.795 557.447 101.249C557.29 99.5085 555.796 98.1978 554.048 98.2657L545.976 99.2307C545.617 99.2737 545.508 98.7606 545.853 98.6533L559.122 94.5189C560.98 94.009 562.109 92.1279 561.682 90.2526C561.252 88.3636 559.399 87.1586 557.494 87.5294L543.561 90.8167C543.208 90.8999 543.043 90.3993 543.377 90.2559L560.752 82.7734C562.429 82.087 563.237 80.1773 562.56 78.5012C561.948 76.984 560.31 76.1509 558.72 76.5475L539.732 81.8525C539.394 81.9469 539.202 81.4816 539.507 81.3089L554.362 72.9083C555.691 72.1768 556.33 70.5717 555.771 69.1652C555.16 67.6302 553.423 66.8957 551.899 67.5074L531.364 76.1155C529.976 76.6976 528.662 75.1572 529.456 73.8795L531.862 70.0121C532.816 68.1918 532.13 65.9464 530.323 64.9727C528.496 63.9889 526.214 64.6726 525.229 66.5003C523.947 68.8773 522.515 71.1798 520.826 73.292C518.456 76.2572 515.869 79.0794 512.859 81.4098C509.721 83.839 506.742 84.9168 502.958 86.1084L498.193 87.6091C497.173 87.9302 496.62 89.0298 496.972 90.0368L505.616 114.794Z" fill="#8C30F5"/>
<path d="M555.141 104.689C551.881 105.701 546.624 107.463 546.365 107.557C540.659 109.617 535.232 110.753 529.164 111.383C525.513 111.762 521.825 111.572 518.216 112.456C514.888 113.271 511.368 114.291 508.235 115.863C507.22 116.371 505.989 115.865 505.617 114.793L505.037 113.132C505.529 113.35 506.113 113.358 506.638 113.095C509.77 111.524 513.29 110.503 516.618 109.688C520.228 108.806 523.916 108.995 527.566 108.616C533.634 107.986 539.061 106.849 544.768 104.79C545.026 104.696 550.283 102.934 553.543 101.921C554.946 101.485 555.883 100.179 555.863 98.7293C556.342 99.0145 556.742 99.419 557.023 99.9054C557.253 100.304 557.403 100.76 557.447 101.248C557.586 102.794 556.626 104.228 555.141 104.689Z" fill="black" fill-opacity="0.2"/>
</g>
<g opacity="0.2">
<path d="M656.534 37.9574C656.132 36.8973 656.748 35.7166 657.854 35.4544C661.264 34.6448 664.615 33.1637 667.687 31.6488C671.02 30.0054 673.725 27.4889 676.765 25.4335C681.818 22.0158 686.705 19.3972 692.401 17.3077C692.659 17.2129 697.818 15.184 700.967 13.8634C702.401 13.2623 704.059 13.7434 704.945 15.017C705.944 16.4514 705.642 18.4154 704.259 19.4875L697.455 23.9366C697.153 24.1342 697.399 24.5972 697.733 24.4577L710.554 19.0961C712.306 18.2922 714.38 19.0075 715.258 20.7184C716.143 22.4417 715.498 24.5559 713.801 25.4964L701.014 31.934C700.691 32.0972 700.886 32.5867 701.233 32.4824L719.354 27.0455C721.079 26.4937 722.926 27.437 723.485 29.1559C723.991 30.7116 723.272 32.4027 721.799 33.1214L703.843 41.2624C703.524 41.4072 703.675 41.8875 704.02 41.8237L720.8 38.7099C722.288 38.4162 723.809 39.235 724.285 40.672C724.804 42.2404 723.945 43.9196 722.385 44.4306L701.121 51.036C699.683 51.4826 699.666 53.5073 701.096 53.9752L705.425 55.3914C707.326 56.1726 708.244 58.3335 707.485 60.2413C706.719 62.1689 704.531 63.112 702.601 62.3455C700.091 61.3485 697.514 60.5053 694.863 59.9725C691.141 59.2245 687.346 58.7254 683.542 58.8752C679.577 59.0313 676.602 60.1206 672.937 61.64L668.322 63.5537C667.334 63.9631 666.204 63.4762 665.826 62.4788L656.534 37.9574Z" fill="#8C30F5"/>
<path d="M704.639 62.5551C703.975 62.6722 703.272 62.6131 702.601 62.3462C700.092 61.3482 697.514 60.5062 694.862 59.9731C691.143 59.2255 687.346 58.7252 683.542 58.8759C679.576 59.0322 676.602 60.1213 672.936 61.6395L668.322 63.553C667.335 63.9626 666.204 63.4769 665.827 62.4786L665.027 60.3692C665.495 60.5749 666.043 60.5951 666.554 60.3842L671.292 58.4197C675.055 56.8587 678.108 55.7403 682.179 55.5812C686.085 55.4259 689.984 55.9395 693.805 56.7062C696.525 57.2543 699.171 58.1191 701.75 59.144C702.438 59.4178 703.161 59.4792 703.842 59.3591C705.117 59.1342 706.251 58.2724 706.763 56.9832C706.827 56.824 706.879 56.665 706.919 56.5042C707.74 57.5215 708.004 58.9407 707.486 60.241C706.985 61.497 705.883 62.3359 704.639 62.5551Z" fill="black" fill-opacity="0.2"/>
<path d="M645.336 103.857C645.321 104.991 646.304 105.89 647.432 105.758C650.913 105.353 654.569 105.598 657.974 105.971C661.668 106.375 665.071 107.815 668.63 108.707C674.548 110.19 680.036 110.979 686.103 110.994C686.378 110.995 691.919 111.137 695.33 111.301C696.883 111.376 698.276 110.357 698.673 108.857C699.121 107.167 698.166 105.425 696.5 104.891L688.585 103.037C688.233 102.954 688.306 102.435 688.667 102.452L702.549 103.105C704.47 103.262 706.174 101.88 706.414 99.9719C706.657 98.0498 705.327 96.2837 703.41 95.9806L689.194 94.3043C688.833 94.2618 688.85 93.7349 689.212 93.7141L708.099 92.6257C709.909 92.5541 711.321 91.036 711.259 89.2296C711.203 87.5945 709.948 86.2514 708.318 86.08L688.661 84.571C688.311 84.5442 688.289 84.0411 688.635 83.9831L705.468 81.1701C706.967 80.9371 708.116 79.6474 708.072 78.1345C708.023 76.4831 706.642 75.1989 705.001 75.2524L682.76 76.318C681.256 76.3901 680.548 74.4932 681.732 73.5644L685.315 70.753C686.835 69.3688 686.958 67.0243 685.592 65.491C684.213 63.9419 681.835 63.8039 680.283 65.1843C678.266 66.9795 676.132 68.6533 673.823 70.0607C670.582 72.0364 667.186 73.8037 663.56 74.9639C659.781 76.1734 656.613 76.1673 652.649 75.9929L647.658 75.7731C646.59 75.7261 645.694 76.5703 645.68 77.6368L645.336 103.857Z" fill="#8C30F5"/>
<path d="M695.33 111.301C691.92 111.137 686.378 110.995 686.102 110.995C680.036 110.978 674.547 110.19 668.63 108.707C665.07 107.815 661.669 106.374 657.975 105.97C654.569 105.598 650.913 105.353 647.431 105.758C646.303 105.889 645.32 104.992 645.337 103.858L645.36 102.098C645.748 102.472 646.293 102.679 646.876 102.611C650.358 102.206 654.014 102.451 657.42 102.823C661.114 103.229 664.515 104.667 668.075 105.56C673.992 107.043 679.481 107.831 685.548 107.848C685.823 107.848 691.365 107.99 694.775 108.154C696.243 108.224 697.57 107.317 698.046 105.948C698.4 106.38 698.637 106.897 698.735 107.45C698.814 107.903 698.8 108.383 698.674 108.856C698.276 110.357 696.883 111.376 695.33 111.301Z" fill="black" fill-opacity="0.2"/>
</g>
<g opacity="0.2">
<path d="M812.619 30.1447C812.604 29.0111 813.587 28.1124 814.716 28.2441C818.197 28.6496 821.853 28.4039 825.258 28.0313C828.952 27.6269 832.354 26.1873 835.913 25.2953C841.831 23.8122 847.319 23.023 853.386 23.0077C853.661 23.0069 859.203 22.8648 862.614 22.7009C864.166 22.6263 865.56 23.6454 865.957 25.1454C866.405 26.8348 865.45 28.5773 863.783 29.1116L855.868 30.9654C855.517 31.0477 855.59 31.5671 855.951 31.5499L869.833 30.897C871.754 30.7406 873.458 32.1221 873.698 34.0302C873.941 35.9523 872.611 37.7184 870.694 38.0215L856.478 39.6978C856.117 39.7403 856.134 40.2672 856.496 40.288L875.383 41.3765C877.193 41.4481 878.606 42.9662 878.543 44.7726C878.487 46.4076 877.232 47.7507 875.602 47.9222L855.945 49.4311C855.596 49.4579 855.574 49.9611 855.919 50.019L872.752 52.832C874.251 53.065 875.4 54.3547 875.356 55.8677C875.307 57.519 873.926 58.8033 872.285 58.7497L850.044 57.6841C848.54 57.612 847.832 59.5089 849.016 60.4378L852.599 63.2492C854.118 64.6333 854.242 66.9779 852.876 68.5111C851.497 70.0602 849.119 70.1983 847.567 68.8179C845.55 67.0226 843.416 65.3488 841.107 63.9414C837.866 61.9657 834.47 60.1985 830.844 59.0382C827.065 57.8287 823.897 57.8348 819.933 58.0093L814.942 58.229C813.874 58.276 812.978 57.4318 812.964 56.3653L812.619 30.1447Z" fill="#8C30F5"/>
<path d="M849.411 69.7119C848.747 69.5948 848.106 69.2989 847.567 68.8184C845.55 67.0223 843.416 65.3496 841.106 63.9417C837.867 61.967 834.47 60.1981 830.844 59.039C827.064 57.8294 823.896 57.8355 819.933 58.0085L814.942 58.2284C813.875 58.2756 812.978 57.4323 812.965 56.3653L812.935 54.1098C813.304 54.4629 813.812 54.6693 814.364 54.6459L819.489 54.4203C823.559 54.2406 826.81 54.2339 830.69 55.4768C834.414 56.6667 837.902 58.4828 841.23 60.5101C843.599 61.9556 845.789 63.6733 847.862 65.5182C848.415 66.0109 849.073 66.3158 849.754 66.4359C851.03 66.6608 852.39 66.2387 853.312 65.2023C853.426 65.0745 853.529 64.9429 853.622 64.8055C854.046 66.0423 853.808 67.4662 852.877 68.5109C851.977 69.52 850.654 69.9311 849.411 69.7119Z" fill="black" fill-opacity="0.2"/>
<path d="M779.557 88.2411C779.156 89.3013 779.772 90.4819 780.877 90.7442C784.287 91.5538 787.638 93.0349 790.711 94.5497C794.044 96.1932 796.749 98.7097 799.788 100.765C804.842 104.183 809.729 106.801 815.425 108.891C815.683 108.986 820.842 111.015 823.991 112.335C825.424 112.936 827.082 112.455 827.969 111.182C828.967 109.747 828.666 107.783 827.282 106.711L820.479 102.262C820.176 102.064 820.423 101.601 820.756 101.741L833.578 107.102C835.329 107.906 837.403 107.191 838.281 105.48C839.166 103.757 838.521 101.643 836.824 100.702L824.038 94.2645C823.714 94.1013 823.909 93.6118 824.256 93.716L842.377 99.1529C844.102 99.7047 845.949 98.7614 846.508 97.0426C847.014 95.4868 846.295 93.7957 844.821 93.0771L826.866 84.936C826.547 84.7912 826.698 84.3109 827.043 84.3747L843.823 87.4886C845.311 87.7823 846.832 86.9635 847.308 85.5265C847.827 83.9581 846.968 82.2789 845.408 81.7679L824.144 75.1625C822.706 74.7159 822.689 72.6912 824.12 72.2233L828.448 70.807C830.349 70.0259 831.267 67.865 830.508 65.9571C829.742 64.0296 827.554 63.0865 825.624 63.853C823.114 64.85 820.537 65.6932 817.886 66.226C814.165 66.974 810.369 67.4731 806.565 67.3233C802.6 67.1672 799.625 66.0779 795.96 64.5585L791.345 62.6448C790.357 62.2354 789.227 62.7223 788.849 63.7197L779.557 88.2411Z" fill="#8C30F5"/>
<path d="M823.991 112.334C820.842 111.014 815.683 108.985 815.424 108.89C809.729 106.8 804.841 104.182 799.788 100.765C796.748 98.7082 794.045 96.1915 790.712 94.5487C787.639 93.0336 784.286 91.5529 780.876 90.7433C779.772 90.4804 779.154 89.3009 779.558 88.2411L780.182 86.5953C780.418 87.0789 780.86 87.4605 781.431 87.5962C784.841 88.4058 788.193 89.8866 791.266 91.4017C794.599 93.0464 797.303 95.5612 800.343 97.6175C805.396 101.035 810.284 103.653 815.979 105.743C816.238 105.838 821.397 107.867 824.546 109.187C825.901 109.755 827.458 109.356 828.374 108.233C828.558 108.759 828.605 109.326 828.507 109.879C828.427 110.333 828.249 110.778 827.969 111.18C827.081 112.454 825.424 112.935 823.991 112.334Z" fill="black" fill-opacity="0.2"/>
</g>
<g opacity="0.2">
<path d="M980.897 26.5429C981.271 25.4725 982.502 24.9643 983.518 25.474C986.65 27.0456 990.169 28.0651 993.497 28.8796C997.106 29.7631 1000.8 29.574 1004.45 29.953C1010.51 30.5834 1015.94 31.7188 1021.65 33.7795C1021.91 33.8728 1027.16 35.6346 1030.42 36.6472C1031.91 37.1081 1032.87 38.5422 1032.73 40.0878C1032.57 41.8284 1031.08 43.1391 1029.33 43.0712L1021.26 42.1062C1020.9 42.0632 1020.79 42.5763 1021.13 42.6836L1034.4 46.8181C1036.26 47.328 1037.39 49.2091 1036.96 51.0844C1036.53 52.9734 1034.68 54.1783 1032.78 53.8076L1018.84 50.5203C1018.49 50.4371 1018.33 50.9377 1018.66 51.0811L1036.03 58.5637C1037.71 59.2501 1038.52 61.1598 1037.84 62.8359C1037.23 64.3531 1035.59 65.1862 1034 64.7896L1015.01 59.4845C1014.68 59.3902 1014.48 59.8554 1014.79 60.0281L1029.64 68.4287C1030.97 69.1602 1031.61 70.7653 1031.05 72.1717C1030.44 73.7068 1028.7 74.4412 1027.18 73.8296L1006.65 65.2215C1005.26 64.6394 1003.94 66.1797 1004.74 67.4575L1007.14 71.3249C1008.1 73.1452 1007.41 75.3905 1005.6 76.3643C1003.78 77.3481 1001.5 76.6644 1000.51 74.8367C999.229 72.4597 997.797 70.1572 996.108 68.0449C993.738 65.0798 991.151 62.2576 988.141 59.9272C985.003 57.498 982.024 56.4202 978.24 55.2286L973.474 53.7279C972.455 53.4068 971.902 52.3072 972.254 51.3002L980.897 26.5429Z" fill="#8C30F5"/>
<path d="M1001.94 76.3069C1001.35 75.9697 1000.85 75.4726 1000.51 74.8365C999.229 72.459 997.796 70.1572 996.107 68.0444C993.738 65.0807 991.151 62.2567 988.141 59.9276C985.002 57.4979 982.024 56.4203 978.24 55.2272L973.475 53.727C972.456 53.4062 971.901 52.307 972.254 51.2999L972.998 49.1703C973.224 49.6284 973.631 49.996 974.158 50.1629L979.05 51.7035C982.936 52.9267 985.994 54.0325 989.215 56.5274C992.307 58.9191 994.963 61.8186 997.397 64.8619C999.129 67.0305 1000.6 69.3938 1001.92 71.8364C1002.27 72.4885 1002.78 73.0002 1003.38 73.346C1004.5 73.9935 1005.92 74.0621 1007.15 73.4036C1007.3 73.3225 1007.44 73.2342 1007.57 73.1366C1007.55 74.4438 1006.84 75.7006 1005.61 76.3638C1004.41 77.0043 1003.03 76.9381 1001.94 76.3069Z" fill="black" fill-opacity="0.2"/>
<path d="M929.959 69.8271C929.219 70.6859 929.395 72.0061 930.344 72.6307C933.271 74.5577 935.913 77.0956 938.283 79.57C940.853 82.2543 942.534 85.5441 944.687 88.5151C948.267 93.455 951.963 97.5873 956.601 101.499C956.811 101.676 960.965 105.347 963.473 107.665C964.614 108.72 966.336 108.835 967.605 107.942C969.034 106.935 969.422 104.987 968.489 103.506L963.617 96.9983C963.401 96.7091 963.791 96.3583 964.056 96.6034L974.271 106.027C975.642 107.381 977.835 107.418 979.246 106.111C980.667 104.795 980.784 102.587 979.51 101.123L969.697 90.7003C969.448 90.4362 969.8 90.043 970.09 90.2598L985.258 101.566C986.691 102.675 988.749 102.42 989.862 100.996C990.87 99.7074 990.772 97.8723 989.634 96.693L975.546 82.9019C975.295 82.6566 975.601 82.257 975.904 82.4349L990.607 91.1C991.905 91.885 993.614 91.6358 994.552 90.4482C995.577 89.1519 995.344 87.2803 994.052 86.2663L976.33 72.7866C975.132 71.8752 975.809 69.9669 977.313 70.0165L981.865 70.1661C983.918 70.0822 985.52 68.3656 985.459 66.3133C985.398 64.2398 983.665 62.6053 981.589 62.6656C978.89 62.744 976.18 62.6549 973.506 62.2488C969.753 61.6789 966.016 60.8496 962.492 59.4079C958.82 57.9051 956.397 55.8639 953.473 53.1828L949.79 49.8059C949.003 49.0835 947.774 49.1545 947.078 49.9624L929.959 69.8271Z" fill="#8C30F5"/>
<path d="M963.473 107.665C960.966 105.348 956.811 101.677 956.601 101.5C951.964 97.5873 948.266 93.4556 944.687 88.5157C942.533 85.5436 940.854 82.2541 938.283 79.5705C935.914 77.0957 933.27 74.5577 930.343 72.6307C929.395 72.0058 929.218 70.6864 929.96 69.8284L931.109 68.4952C931.166 69.0306 931.451 69.5403 931.941 69.8632C934.868 71.7903 937.512 74.3282 939.881 76.803C942.451 79.4884 944.131 82.7763 946.284 85.7482C949.864 90.6882 953.562 94.8198 958.199 98.732C958.409 98.909 962.564 102.58 965.071 104.898C966.15 105.895 967.749 106.053 968.995 105.31C968.987 105.868 968.837 106.417 968.556 106.903C968.326 107.302 968.006 107.66 967.606 107.942C966.336 108.836 964.614 108.72 963.473 107.665Z" fill="black" fill-opacity="0.2"/>
</g>
<g opacity="0.2">
<path d="M1162.42 27.5844C1163.13 26.7064 1164.47 26.6498 1165.25 27.4761C1167.65 30.0243 1170.61 32.1859 1173.46 34.0893C1176.55 36.1541 1180.08 37.2384 1183.38 38.8427C1188.87 41.5104 1193.58 44.4336 1198.23 48.3217C1198.45 48.4978 1202.78 51.9511 1205.5 54.018C1206.74 54.9588 1207.15 56.635 1206.49 58.0397C1205.75 59.6215 1203.9 60.3425 1202.28 59.6806L1195.02 56.013C1194.7 55.85 1194.42 56.2949 1194.71 56.5137L1205.76 64.937C1207.33 66.0517 1207.75 68.2055 1206.71 69.8217C1205.66 71.4498 1203.51 71.9483 1201.84 70.9483L1189.87 63.094C1189.57 62.8951 1189.24 63.3091 1189.51 63.5578L1203.28 76.532C1204.62 77.7503 1204.72 79.8213 1203.52 81.165C1202.42 82.3812 1200.6 82.6039 1199.24 81.6872L1183.21 70.208C1182.92 70.0038 1182.58 70.3751 1182.81 70.6417L1193.9 83.6165C1194.9 84.7584 1194.95 86.4852 1193.94 87.6156C1192.84 88.8492 1190.96 88.9452 1189.74 87.8493L1173.38 72.737C1172.28 71.7151 1170.52 72.713 1170.83 74.1856L1171.76 78.6426C1172.04 80.6793 1170.63 82.5547 1168.59 82.8516C1166.54 83.1514 1164.63 81.7284 1164.33 79.6738C1163.94 77.0017 1163.38 74.3483 1162.52 71.7859C1161.3 68.189 1159.84 64.6522 1157.81 61.4328C1155.69 58.0769 1153.26 56.0451 1150.11 53.6313L1146.14 50.5911C1145.3 49.9407 1145.15 48.7183 1145.83 47.8922L1162.42 27.5844Z" fill="#8C30F5"/>
<path d="M1165.17 81.5439C1164.73 81.0273 1164.43 80.389 1164.33 79.674C1163.94 77.0019 1163.38 74.3487 1162.52 71.7857C1161.3 68.1905 1159.84 64.6521 1157.81 61.4338C1155.69 58.0771 1153.26 56.0458 1150.11 53.6305L1146.15 50.5912C1145.3 49.941 1145.15 48.7185 1145.83 47.8928L1147.26 46.146C1147.31 46.6537 1147.57 47.1382 1148.01 47.4754L1152.08 50.5963C1155.31 53.0749 1157.8 55.1598 1159.98 58.6059C1162.07 61.9108 1163.57 65.544 1164.82 69.2362C1165.7 71.8664 1166.28 74.5903 1166.68 77.3358C1166.78 78.0687 1167.09 78.7254 1167.54 79.2553C1168.37 80.2473 1169.68 80.7983 1171.06 80.597C1171.23 80.5726 1171.39 80.5381 1171.55 80.4923C1171.08 81.7121 1169.98 82.6503 1168.6 82.8519C1167.26 83.0465 1165.98 82.511 1165.17 81.5439Z" fill="black" fill-opacity="0.2"/>
<path d="M1099.75 50.8364C1098.76 51.3903 1098.47 52.6909 1099.15 53.6024C1101.24 56.4144 1102.86 59.703 1104.24 62.8384C1105.73 66.2399 1106.19 69.9063 1107.19 73.4344C1108.87 79.3009 1110.93 84.4483 1113.95 89.7102C1114.09 89.9487 1116.73 94.8191 1118.3 97.8549C1119.01 99.2368 1120.59 99.9337 1122.09 99.5279C1123.77 99.0709 1124.81 97.3726 1124.43 95.6622L1122.08 87.8807C1121.98 87.535 1122.46 87.3387 1122.63 87.6597L1129.01 100.009C1129.83 101.75 1131.88 102.535 1133.65 101.789C1135.44 101.038 1136.3 99.0039 1135.61 97.1922L1129.95 84.0419C1129.81 83.7087 1130.27 83.4593 1130.47 83.7625L1140.86 99.5748C1141.82 101.107 1143.84 101.571 1145.38 100.614C1146.76 99.7473 1147.3 97.9896 1146.63 96.4919L1138.11 78.7141C1137.96 78.3978 1138.39 78.1273 1138.61 78.3978L1149.46 91.569C1150.41 92.7506 1152.1 93.1011 1153.39 92.306C1154.8 91.4382 1155.22 89.5999 1154.35 88.2054L1142.31 69.4772C1141.49 68.2109 1142.78 66.6491 1144.18 67.2101L1148.41 68.9077C1150.36 69.5312 1152.46 68.4658 1153.1 66.5166C1153.75 64.5472 1152.68 62.4186 1150.71 61.7653C1148.15 60.9157 1145.63 59.9051 1143.26 58.6091C1139.93 56.79 1136.7 54.7324 1133.88 52.1726C1130.94 49.5043 1129.37 46.7575 1127.54 43.238L1125.23 38.8053C1124.74 37.857 1123.56 37.5035 1122.63 38.0245L1099.75 50.8364Z" fill="#8C30F5"/>
<path d="M1118.3 97.8547C1116.74 94.8198 1114.09 89.9489 1113.95 89.7105C1110.93 84.4484 1108.87 79.3011 1107.19 73.4348C1106.19 69.9055 1105.73 66.24 1104.24 62.8391C1102.86 59.7031 1101.24 56.4141 1099.15 53.602C1098.47 52.6905 1098.76 51.3903 1099.75 50.8377L1101.28 49.9779C1101.15 50.5005 1101.25 51.0769 1101.6 51.5479C1103.69 54.36 1105.3 57.649 1106.69 60.785C1108.18 64.1872 1108.64 67.8515 1109.64 71.3807C1111.32 77.247 1113.38 82.3943 1116.4 87.6564C1116.53 87.8948 1119.18 92.7656 1120.75 95.8006C1121.42 97.1068 1122.87 97.802 1124.29 97.5305C1124.09 98.0524 1123.77 98.5165 1123.34 98.8776C1122.98 99.1734 1122.56 99.4003 1122.09 99.5286C1120.59 99.9337 1119.01 99.2367 1118.3 97.8547Z" fill="black" fill-opacity="0.2"/>
</g>
<g opacity="0.2">
<path d="M1340.11 33.1456C1341.08 32.5658 1342.35 32.9678 1342.8 34.011C1344.19 37.2284 1346.23 40.2714 1348.26 43.0342C1350.46 46.0313 1353.4 48.2581 1355.96 50.8942C1360.2 55.2776 1363.63 59.6358 1366.67 64.8824C1366.81 65.1201 1369.71 69.8483 1371.55 72.7203C1372.39 74.0275 1372.21 75.7436 1371.11 76.8379C1369.87 78.0703 1367.88 78.1145 1366.59 76.9384L1361.02 71.0107C1360.78 70.7473 1360.36 71.0703 1360.56 71.3743L1368.06 83.0703C1369.16 84.6554 1368.82 86.8221 1367.28 87.9843C1365.74 89.1552 1363.55 88.8871 1362.32 87.3785L1353.76 75.9045C1353.55 75.6138 1353.1 75.8913 1353.26 76.2153L1361.76 93.1162C1362.61 94.7195 1362 96.7021 1360.4 97.5512C1358.96 98.3199 1357.17 97.9052 1356.2 96.579L1345.07 80.3101C1344.87 80.0207 1344.42 80.2532 1344.55 80.5816L1350.53 96.5658C1351.08 97.9804 1350.53 99.6206 1349.2 100.338C1347.75 101.122 1345.94 100.568 1345.17 99.1199L1334.97 79.3261C1334.28 77.9877 1332.29 78.3228 1332.07 79.8127L1331.43 84.3216C1330.99 86.3292 1329.02 87.6085 1327.01 87.1925C1324.98 86.7722 1323.67 84.7816 1324.09 82.7479C1324.64 80.1031 1325.02 77.4187 1325.08 74.7153C1325.17 70.9204 1325.01 67.0956 1324.2 63.3755C1323.36 59.4977 1321.77 56.7571 1319.63 53.412L1316.95 49.1991C1316.37 48.2978 1316.66 47.1001 1317.57 46.5546L1340.11 33.1456Z" fill="#8C30F5"/>
<path d="M1324.24 84.7917C1324.01 84.158 1323.94 83.4555 1324.09 82.7478C1324.64 80.1033 1325.02 77.4188 1325.08 74.7148C1325.17 70.9217 1325.01 67.0955 1324.2 63.3763C1323.36 59.4975 1321.77 56.7575 1319.64 53.4113L1316.95 49.1994C1316.37 48.2983 1316.66 47.0999 1317.57 46.5552L1319.51 45.4019C1319.39 45.898 1319.47 46.441 1319.76 46.9077L1322.52 51.2326C1324.71 54.6677 1326.34 57.4802 1327.21 61.4617C1328.04 65.2813 1328.21 69.21 1328.12 73.1058C1328.05 75.8803 1327.66 78.6362 1327.1 81.3535C1326.95 82.0789 1327.01 82.8014 1327.25 83.4514C1327.69 84.6682 1328.74 85.6352 1330.09 85.9155C1330.26 85.9505 1330.43 85.9741 1330.59 85.9855C1329.73 86.9709 1328.38 87.4772 1327.01 87.1929C1325.69 86.9183 1324.67 85.978 1324.24 84.7917Z" fill="black" fill-opacity="0.2"/>
<path d="M1273.27 33.5612C1272.15 33.7433 1271.43 34.8674 1271.76 35.9559C1272.76 39.3136 1273.15 42.9564 1273.38 46.3747C1273.62 50.0829 1272.8 53.6837 1272.53 57.3434C1272.1 63.4288 1272.28 68.9706 1273.32 74.9482C1273.36 75.2191 1274.19 80.7013 1274.62 84.0888C1274.81 85.6307 1276.06 86.8258 1277.6 86.9567C1279.35 87.1041 1280.9 85.8611 1281.13 84.1271L1281.58 76.0105C1281.6 75.6498 1282.13 75.6317 1282.17 75.99L1283.94 89.7747C1284.12 91.6933 1285.78 93.1318 1287.7 93.0372C1289.63 92.942 1291.14 91.3262 1291.11 89.3857L1290.29 75.0938C1290.27 74.7317 1290.79 74.6562 1290.87 75.0092L1295.23 93.4201C1295.61 95.1902 1297.35 96.318 1299.12 95.9428C1300.72 95.6033 1301.82 94.1348 1301.71 92.4995L1299.78 72.8792C1299.75 72.5302 1300.24 72.4212 1300.36 72.7518L1306.05 88.8404C1306.54 90.2761 1308.01 91.184 1309.49 90.8774C1311.11 90.5427 1312.13 88.9595 1311.8 87.3525L1306.88 65.6348C1306.55 64.1663 1308.3 63.1395 1309.42 64.1443L1312.81 67.185C1314.44 68.4406 1316.77 68.1551 1318.04 66.5441C1319.33 64.9164 1319.05 62.5503 1317.42 61.2622C1315.3 59.5871 1313.28 57.7769 1311.5 55.7473C1308.99 52.8984 1306.66 49.8606 1304.88 46.4914C1303.04 42.9795 1302.49 39.8584 1301.98 35.9251L1301.33 30.9712C1301.19 29.9114 1300.2 29.176 1299.15 29.3473L1273.27 33.5612Z" fill="#8C30F5"/>
<path d="M1274.62 84.0883C1274.19 80.7018 1273.36 75.2188 1273.32 74.9478C1272.28 68.9705 1272.1 63.4284 1272.53 57.3433C1272.8 53.6825 1273.62 50.0831 1273.38 46.3751C1273.16 42.9562 1272.76 39.3128 1271.76 35.9549C1271.43 34.8666 1272.15 33.7425 1273.27 33.5619L1275 33.2792C1274.7 33.7259 1274.59 34.2995 1274.76 34.8619C1275.76 38.2198 1276.16 41.8633 1276.38 45.2821C1276.62 48.9908 1275.8 52.5897 1275.54 56.2504C1275.1 62.3355 1275.28 67.8776 1276.32 73.8548C1276.37 74.1259 1277.19 79.6087 1277.62 82.9953C1277.81 84.453 1278.93 85.6019 1280.36 85.8337C1280 86.2566 1279.53 86.5802 1279 86.7724C1278.57 86.9297 1278.09 86.9984 1277.61 86.9572C1276.06 86.8252 1274.81 85.6303 1274.62 84.0883Z" fill="black" fill-opacity="0.2"/>
</g>
<g opacity="0.2">
<path d="M1497.37 42.5551C1498.48 42.3435 1499.53 43.1556 1499.6 44.2898C1499.81 47.7884 1500.68 51.3458 1501.64 54.6346C1502.68 58.2025 1504.69 61.3032 1506.19 64.6532C1508.67 70.2235 1510.4 75.4912 1511.47 81.4635C1511.52 81.7341 1512.62 87.167 1513.38 90.4976C1513.72 92.0136 1512.96 93.5626 1511.55 94.2146C1509.96 94.9488 1508.08 94.3109 1507.27 92.7625L1504.07 85.2896C1503.92 84.9576 1503.43 85.1198 1503.51 85.4722L1506.56 99.0303C1507.05 100.895 1505.98 102.813 1504.14 103.381C1502.29 103.953 1500.32 102.951 1499.69 101.116L1495.57 87.4059C1495.47 87.0586 1494.95 87.166 1494.99 87.5262L1497.2 106.315C1497.45 108.11 1496.2 109.765 1494.41 110.017C1492.79 110.246 1491.25 109.244 1490.79 107.668L1485.9 88.5718C1485.81 88.2321 1485.31 88.2978 1485.31 88.6483L1485.46 105.714C1485.5 107.231 1484.42 108.586 1482.93 108.805C1481.29 109.044 1479.79 107.907 1479.56 106.281L1476.74 84.1934C1476.55 82.6999 1474.56 82.3319 1473.85 83.6593L1471.71 87.6763C1470.61 89.4127 1468.32 89.9414 1466.57 88.8629C1464.81 87.7732 1464.26 85.455 1465.35 83.6876C1466.77 81.389 1468.04 78.9974 1469.03 76.4791C1470.41 72.944 1471.56 69.2925 1472.08 65.5203C1472.61 61.5884 1472.05 58.4694 1471.19 54.5966L1470.11 49.7191C1469.88 48.6756 1470.55 47.647 1471.6 47.4479L1497.37 42.5551Z" fill="#8C30F5"/>
<path d="M1464.79 85.6585C1464.79 84.9841 1464.97 84.302 1465.35 83.6871C1466.77 81.3892 1468.04 78.9971 1469.03 76.4782C1470.41 72.9448 1471.56 69.2924 1472.07 65.5208C1472.61 61.5877 1472.05 58.4694 1471.19 54.596L1470.11 49.7196C1469.88 48.6762 1470.55 47.6465 1471.6 47.4485L1473.82 47.0278C1473.54 47.4524 1473.42 47.9884 1473.54 48.5283L1474.65 53.5355C1475.54 57.5127 1476.11 60.7137 1475.56 64.7505C1475.03 68.6239 1473.85 72.3743 1472.43 76.0038C1471.42 78.5879 1470.11 81.0435 1468.65 83.4049C1468.26 84.0352 1468.07 84.7364 1468.07 85.4281C1468.07 86.723 1468.73 87.9893 1469.91 88.7173C1470.05 88.8076 1470.2 88.8864 1470.35 88.9537C1469.21 89.5858 1467.76 89.5992 1466.57 88.8633C1465.42 88.1524 1464.79 86.9208 1464.79 85.6585Z" fill="black" fill-opacity="0.2"/>
<path d="M1434.41 20.084C1433.3 19.8724 1432.24 20.6844 1432.17 21.8187C1431.97 25.3172 1431.09 28.8746 1430.13 32.1635C1429.09 35.7314 1427.09 38.8321 1425.59 42.1821C1423.1 47.7524 1421.37 53.0201 1420.3 58.9924C1420.25 59.263 1419.15 64.6959 1418.4 68.0264C1418.06 69.5424 1418.82 71.0914 1420.23 71.7433C1421.81 72.4774 1423.69 71.8396 1424.51 70.2911L1427.71 62.8183C1427.85 62.4863 1428.35 62.6485 1428.27 63.0009L1425.22 76.5588C1424.73 78.4231 1425.79 80.3414 1427.63 80.9094C1429.48 81.4817 1431.45 80.4794 1432.08 78.6441L1436.2 64.9344C1436.31 64.5871 1436.82 64.6945 1436.78 65.0547L1434.57 83.8437C1434.33 85.6387 1435.58 87.2936 1437.37 87.5458C1438.99 87.7741 1440.53 86.7721 1440.98 85.1963L1445.88 66.1001C1445.97 65.7604 1446.47 65.8262 1446.46 66.1769L1446.31 83.2425C1446.28 84.759 1447.35 86.1149 1448.85 86.3337C1450.48 86.5725 1451.99 85.4353 1452.22 83.8098L1455.03 61.7219C1455.22 60.2284 1457.21 59.8604 1457.92 61.1878L1460.07 65.2049C1461.17 66.9412 1463.46 67.4699 1465.2 66.3914C1466.97 65.3017 1467.52 62.9835 1466.43 61.2161C1465.01 58.9175 1463.73 56.5259 1462.75 54.0076C1461.36 50.4725 1460.21 46.821 1459.7 43.0489C1459.17 39.1169 1459.72 35.9979 1460.58 32.1251L1461.66 27.2476C1461.9 26.2041 1461.22 25.1755 1460.17 24.9764L1434.41 20.084Z" fill="#8C30F5"/>
<path d="M1418.4 68.0263C1419.15 64.6967 1420.25 59.263 1420.3 58.992C1421.37 53.0205 1423.1 47.7521 1425.59 42.1821C1427.09 38.8313 1429.1 35.7322 1430.14 32.1643C1431.09 28.8749 1431.97 25.3165 1432.17 21.8178C1432.24 20.6841 1433.3 19.8716 1434.41 20.0848L1436.14 20.4133C1435.7 20.7303 1435.4 21.2319 1435.37 21.8178C1435.17 25.3165 1434.29 28.8749 1433.33 32.1643C1432.29 35.7322 1430.28 38.8314 1428.79 42.1821C1426.3 47.7521 1424.57 53.0205 1423.5 58.992C1423.45 59.263 1422.35 64.6965 1421.59 68.0263C1421.27 69.4596 1421.93 70.9237 1423.2 71.6309C1422.71 71.9037 1422.16 72.0479 1421.6 72.0479C1421.14 72.0479 1420.67 71.9499 1420.23 71.7443C1418.82 71.0909 1418.06 69.5423 1418.4 68.0263Z" fill="black" fill-opacity="0.2"/>
</g>
<g opacity="0.2">
<path d="M1650.82 54.6777C1651.94 54.8599 1652.66 55.984 1652.33 57.0725C1651.33 60.4302 1650.94 64.073 1650.71 67.4913C1650.47 71.1995 1651.3 74.8003 1651.56 78.46C1651.99 84.5454 1651.81 90.0872 1650.77 96.0648C1650.73 96.3356 1649.91 101.818 1649.47 105.205C1649.28 106.747 1648.03 107.942 1646.49 108.073C1644.74 108.221 1643.19 106.978 1642.96 105.244L1642.51 97.1273C1642.49 96.7666 1641.96 96.7484 1641.92 97.1068L1640.15 110.892C1639.97 112.81 1638.31 114.249 1636.39 114.154C1634.46 114.059 1632.95 112.443 1632.98 110.503L1633.8 96.2108C1633.82 95.8487 1633.3 95.7732 1633.22 96.1261L1628.87 114.537C1628.48 116.307 1626.74 117.435 1624.97 117.06C1623.37 116.72 1622.27 115.252 1622.38 113.617L1624.31 93.9963C1624.34 93.6473 1623.85 93.5383 1623.73 93.8687L1618.04 109.957C1617.55 111.393 1616.08 112.301 1614.6 111.994C1612.98 111.66 1611.96 110.076 1612.29 108.469L1617.21 86.7517C1617.54 85.2833 1615.79 84.2565 1614.67 85.2612L1611.28 88.3019C1609.65 89.5576 1607.32 89.272 1606.05 87.661C1604.76 86.0333 1605.04 83.6672 1606.67 82.3792C1608.79 80.704 1610.81 78.8938 1612.59 76.8642C1615.1 74.0153 1617.43 70.9776 1619.21 67.6084C1621.05 64.0964 1621.6 60.9753 1622.11 57.042L1622.76 52.0882C1622.9 51.0283 1623.89 50.2929 1624.94 50.4642L1650.82 54.6777Z" fill="#8C30F5"/>
<path d="M1605.47 84.0396C1605.7 83.4059 1606.1 82.8267 1606.67 82.3786C1608.79 80.7045 1610.81 78.8933 1612.6 76.8633C1615.1 74.0158 1617.43 70.9777 1619.21 67.6086C1621.05 64.0956 1621.6 60.9753 1622.11 57.0417L1622.76 52.0889C1622.9 51.0292 1623.89 50.2923 1624.94 50.4649L1627.17 50.8276C1626.76 51.1295 1626.47 51.5939 1626.39 52.1419L1625.73 57.2274C1625.2 61.267 1624.64 64.4703 1622.74 68.0755C1620.92 71.5357 1618.53 74.6553 1615.95 77.5808C1614.12 79.6629 1612.05 81.5219 1609.87 83.2426C1609.29 83.7017 1608.87 84.297 1608.64 84.947C1608.19 86.1639 1608.37 87.5767 1609.23 88.6647C1609.34 88.7994 1609.45 88.9239 1609.57 89.0388C1608.28 89.2414 1606.92 88.7603 1606.05 87.6616C1605.21 86.6003 1605.04 85.2259 1605.47 84.0396Z" fill="black" fill-opacity="0.2"/>
<path d="M1599.35 12.0298C1598.38 11.4501 1597.11 11.8521 1596.66 12.8952C1595.27 16.1126 1593.23 19.1556 1591.2 21.9184C1589.01 24.9155 1586.06 27.1423 1583.51 29.7784C1579.26 34.1618 1575.84 38.5201 1572.79 43.7666C1572.65 44.0043 1569.76 48.7326 1567.91 51.6045C1567.07 52.9118 1567.25 54.6278 1568.35 55.722C1569.59 56.9543 1571.58 56.9986 1572.88 55.8225L1578.44 49.8948C1578.69 49.6314 1579.1 49.9544 1578.9 50.2583L1571.4 61.9542C1570.3 63.5393 1570.65 65.706 1572.18 66.8682C1573.72 68.039 1575.92 67.7709 1577.14 66.2624L1585.7 54.7884C1585.91 54.4977 1586.36 54.7752 1586.2 55.0992L1577.7 71.9999C1576.86 73.6033 1577.46 75.5858 1579.06 76.4349C1580.5 77.2036 1582.29 76.7889 1583.26 75.4627L1594.39 59.1938C1594.59 58.9044 1595.04 59.137 1594.91 59.4655L1588.93 75.4497C1588.39 76.8642 1588.93 78.5045 1590.26 79.2224C1591.72 80.0058 1593.52 79.4518 1594.29 78.0038L1604.49 58.21C1605.18 56.8716 1607.18 57.2067 1607.39 58.6966L1608.03 63.2055C1608.47 65.2131 1610.44 66.4923 1612.45 66.0764C1614.48 65.6561 1615.79 63.6655 1615.37 61.6318C1614.83 58.987 1614.44 56.3026 1614.38 53.5992C1614.29 49.8043 1614.46 45.9795 1615.26 42.2594C1616.11 38.3816 1617.69 35.6409 1619.83 32.2959L1622.51 28.083C1623.09 27.1817 1622.8 25.9839 1621.89 25.4385L1599.35 12.0298Z" fill="#8C30F5"/>
<path d="M1567.91 51.6047C1569.76 48.7335 1572.65 44.0045 1572.79 43.7663C1575.84 38.5208 1579.26 34.1615 1583.51 29.7785C1586.06 27.1417 1589.01 24.9167 1591.2 21.9194C1593.23 19.1561 1595.27 16.1121 1596.66 12.8945C1597.11 11.8521 1598.38 11.4492 1599.35 12.0305L1600.86 12.9306C1600.35 13.0796 1599.89 13.4487 1599.66 13.9874C1598.27 17.205 1596.23 20.2491 1594.21 23.0123C1592.01 26.009 1589.06 28.2349 1586.51 30.8714C1582.27 35.2544 1578.84 39.6138 1575.79 44.8592C1575.65 45.0975 1572.76 49.8262 1570.91 52.6976C1570.12 53.9337 1570.24 55.5363 1571.19 56.6336C1570.64 56.7235 1570.07 56.6707 1569.54 56.4786C1569.11 56.3212 1568.7 56.0685 1568.35 55.7232C1567.25 54.6274 1567.07 52.9119 1567.91 51.6047Z" fill="black" fill-opacity="0.2"/>
</g>
<g opacity="0.2">
<path d="M1817.58 68.0517C1818.57 68.6056 1818.86 69.9062 1818.18 70.8177C1816.09 73.6296 1814.48 76.9183 1813.1 80.0537C1811.6 83.4551 1811.14 87.1215 1810.14 90.6496C1808.46 96.5161 1806.4 101.664 1803.38 106.925C1803.25 107.164 1800.6 112.034 1799.03 115.07C1798.32 116.452 1796.74 117.149 1795.25 116.743C1793.56 116.286 1792.53 114.588 1792.9 112.878L1795.25 105.096C1795.35 104.75 1794.87 104.554 1794.7 104.875L1788.33 117.224C1787.5 118.966 1785.45 119.751 1783.68 119.005C1781.89 118.254 1781.03 116.219 1781.73 114.408L1787.38 101.257C1787.53 100.924 1787.06 100.675 1786.86 100.978L1776.48 116.79C1775.51 118.322 1773.49 118.787 1771.95 117.829C1770.57 116.963 1770.03 115.205 1770.7 113.708L1779.22 95.9298C1779.37 95.6135 1778.95 95.3429 1778.72 95.6134L1767.87 108.785C1766.92 109.966 1765.23 110.317 1763.94 109.522C1762.53 108.654 1762.11 106.815 1762.98 105.421L1775.02 86.6927C1775.84 85.4264 1774.55 83.8647 1773.15 84.4257L1768.93 86.1232C1766.97 86.7467 1764.88 85.6814 1764.23 83.7322C1763.58 81.7628 1764.65 79.6341 1766.62 78.9809C1769.18 78.1313 1771.7 77.1207 1774.07 75.8246C1777.4 74.0055 1780.63 71.9479 1783.45 69.3881C1786.39 66.7198 1787.97 63.973 1789.8 60.4535L1792.1 56.0209C1792.6 55.0726 1793.77 54.719 1794.7 55.24L1817.58 68.0517Z" fill="#8C30F5"/>
<path d="M1764.92 80.1306C1765.36 79.614 1765.93 79.2074 1766.62 78.9802C1769.18 78.1318 1771.7 77.12 1774.07 75.8238C1777.4 74.0055 1780.63 71.9482 1783.45 69.388C1786.39 66.7189 1787.97 63.9728 1789.8 60.4536L1792.1 56.0218C1792.6 55.0735 1793.77 54.7184 1794.7 55.2407L1796.67 56.3429C1796.18 56.4858 1795.75 56.8225 1795.49 57.3126L1793.13 61.863C1791.25 65.4778 1789.63 68.2971 1786.61 71.0358C1783.72 73.6653 1780.4 75.778 1776.98 77.6465C1774.55 78.9755 1771.96 80.0138 1769.33 80.8861C1768.63 81.1188 1768.03 81.5364 1767.59 82.0663C1766.76 83.0583 1766.44 84.4473 1766.88 85.7639C1766.93 85.9268 1766.99 86.082 1767.07 86.2308C1765.78 85.9794 1764.67 85.0618 1764.23 83.7328C1763.81 82.449 1764.11 81.0976 1764.92 80.1306Z" fill="black" fill-opacity="0.2"/>
<path d="M1783.8 10.3708C1783.09 9.49279 1781.76 9.43626 1780.98 10.2625C1778.57 12.8107 1775.61 14.9723 1772.76 16.8757C1769.67 18.9406 1766.14 20.0248 1762.84 21.6291C1757.36 24.2969 1752.64 27.22 1747.99 31.1081C1747.78 31.2842 1743.44 34.7375 1740.72 36.8044C1739.48 37.7452 1739.07 39.4214 1739.73 40.8259C1740.47 42.4078 1742.33 43.1288 1743.95 42.4669L1751.2 38.7993C1751.52 38.6363 1751.8 39.0812 1751.51 39.3L1740.46 47.7231C1738.89 48.8378 1738.47 50.9916 1739.51 52.6078C1740.56 54.2359 1742.72 54.7344 1744.38 53.7344L1756.35 45.8802C1756.65 45.6812 1756.98 46.0952 1756.71 46.3439L1742.94 59.3179C1741.6 60.5363 1741.5 62.6073 1742.71 63.951C1743.8 65.1672 1745.62 65.3899 1746.98 64.4732L1763.01 52.994C1763.3 52.7897 1763.64 53.1611 1763.41 53.4278L1752.32 66.4026C1751.32 67.5446 1751.27 69.2713 1752.28 70.4017C1753.38 71.6354 1755.26 71.7314 1756.48 70.6354L1772.84 55.5231C1773.94 54.5012 1775.7 55.4991 1775.39 56.9718L1774.46 61.4287C1774.18 63.4655 1775.59 65.3409 1777.63 65.6377C1779.68 65.9375 1781.59 64.5146 1781.89 62.46C1782.28 59.7879 1782.84 57.1344 1783.7 54.5721C1784.92 50.9751 1786.38 47.4383 1788.41 44.2189C1790.53 40.8631 1792.96 38.8313 1796.11 36.4174L1800.08 33.3772C1800.92 32.7268 1801.07 31.5044 1800.39 30.6783L1783.8 10.3708Z" fill="#8C30F5"/>
<path d="M1740.72 36.8052C1743.44 34.7388 1747.78 31.2849 1747.99 31.1082C1752.64 27.2214 1757.36 24.2969 1762.84 21.6296C1766.14 20.025 1769.67 18.9424 1772.76 16.8771C1775.61 14.9734 1778.57 12.8107 1780.98 10.2624C1781.76 9.43705 1783.09 9.49231 1783.8 10.3716L1784.92 11.7347C1784.38 11.6978 1783.83 11.8898 1783.42 12.3165C1781.02 14.8648 1778.06 17.0275 1775.21 18.9312C1772.12 20.9952 1768.59 22.0793 1765.29 23.6837C1759.8 26.351 1755.09 29.2755 1750.43 33.1622C1750.22 33.339 1745.89 36.7927 1743.17 38.8593C1742 39.7491 1741.57 41.2969 1742.08 42.6519C1741.53 42.548 1741.02 42.3048 1740.59 41.9437C1740.24 41.6479 1739.94 41.2709 1739.73 40.8276C1739.07 39.4215 1739.48 37.7459 1740.72 36.8052Z" fill="black" fill-opacity="0.2"/>
</g>
<g opacity="0.2">
<path d="M1982.36 81.063C1983.1 81.9218 1982.92 83.242 1981.97 83.8666C1979.04 85.7935 1976.4 88.3315 1974.03 90.8058C1971.46 93.4902 1969.78 96.78 1967.63 99.7509C1964.05 104.691 1960.35 108.823 1955.71 112.735C1955.5 112.912 1951.35 116.583 1948.84 118.901C1947.7 119.956 1945.98 120.071 1944.71 119.178C1943.28 118.171 1942.89 116.223 1943.83 114.742L1948.7 108.234C1948.91 107.945 1948.52 107.594 1948.26 107.839L1938.04 117.263C1936.67 118.617 1934.48 118.655 1933.07 117.347C1931.65 116.031 1931.53 113.823 1932.8 112.359L1942.62 101.936C1942.87 101.672 1942.52 101.279 1942.22 101.496L1927.06 112.802C1925.62 113.911 1923.57 113.656 1922.45 112.232C1921.44 110.944 1921.54 109.108 1922.68 107.929L1936.77 94.138C1937.02 93.8927 1936.71 93.4932 1936.41 93.671L1921.71 102.336C1920.41 103.121 1918.7 102.872 1917.76 101.684C1916.74 100.388 1916.97 98.5163 1918.26 97.5024L1935.98 84.0227C1937.18 83.1113 1936.51 81.203 1935 81.2525L1930.45 81.4022C1928.4 81.3183 1926.8 79.6017 1926.86 77.5494C1926.92 75.4758 1928.65 73.8414 1930.73 73.9017C1933.43 73.9801 1936.14 73.891 1938.81 73.4849C1942.56 72.915 1946.3 72.0857 1949.82 70.644C1953.5 69.1411 1955.92 67.1 1958.84 64.4188L1962.52 61.042C1963.31 60.3196 1964.54 60.3906 1965.24 61.1985L1982.36 81.063Z" fill="#8C30F5"/>
<path d="M1928.74 74.4024C1929.32 74.0652 1930 73.8802 1930.73 73.9014C1933.43 73.981 1936.14 73.8907 1938.81 73.4846C1942.56 72.9149 1946.3 72.0864 1949.82 70.644C1953.5 69.1406 1955.92 67.1 1958.84 64.4196L1962.52 61.0433C1963.31 60.3208 1964.54 60.3903 1965.24 61.1994L1966.71 62.9083C1966.2 62.8749 1965.68 63.0432 1965.27 63.4162L1961.49 66.8828C1958.49 69.6367 1956 71.7319 1952.23 73.2738C1948.61 74.7556 1944.77 75.6065 1940.92 76.1927C1938.18 76.6082 1935.39 76.7005 1932.62 76.6193C1931.88 76.5975 1931.18 76.787 1930.58 77.1328C1929.46 77.7803 1928.69 78.978 1928.65 80.3645C1928.64 80.5359 1928.65 80.703 1928.67 80.8678C1927.55 80.1927 1926.81 78.9493 1926.86 77.5503C1926.9 76.1989 1927.65 75.0335 1928.74 74.4024Z" fill="black" fill-opacity="0.2"/>
<path d="M1970.34 15.3067C1969.97 14.2363 1968.73 13.7281 1967.72 14.2378C1964.59 15.8094 1961.07 16.8288 1957.74 17.6434C1954.13 18.5269 1950.44 18.3378 1946.79 18.7168C1940.72 19.3472 1935.3 20.4826 1929.59 22.5432C1929.33 22.6365 1924.07 24.3984 1920.81 25.4109C1919.33 25.8719 1918.37 27.306 1918.51 28.8514C1918.67 30.592 1920.16 31.9028 1921.91 31.8349L1929.98 30.8699C1930.34 30.8269 1930.45 31.34 1930.1 31.4473L1916.83 35.5817C1914.98 36.0916 1913.85 37.9727 1914.27 39.848C1914.7 41.737 1916.56 42.9419 1918.46 42.5712L1932.39 39.2839C1932.75 39.2007 1932.91 39.7013 1932.58 39.8447L1915.2 47.3272C1913.53 48.0136 1912.72 49.9233 1913.39 51.5994C1914.01 53.1166 1915.64 53.9497 1917.24 53.5531L1936.22 48.248C1936.56 48.1537 1936.75 48.6189 1936.45 48.7917L1921.59 57.1922C1920.26 57.9238 1919.62 59.5289 1920.18 60.9353C1920.79 62.4704 1922.53 63.2048 1924.06 62.5932L1944.59 53.9851C1945.98 53.403 1947.29 54.9433 1946.5 56.2211L1944.09 60.0885C1943.14 61.9087 1943.82 64.1541 1945.63 65.1279C1947.46 66.1117 1949.74 65.428 1950.73 63.6003C1952.01 61.2233 1953.44 58.9208 1955.13 56.8085C1957.5 53.8434 1960.09 51.0212 1963.1 48.6908C1966.23 46.2616 1969.21 45.1838 1973 43.9922L1977.76 42.4915C1978.78 42.1704 1979.33 41.0708 1978.98 40.0638L1970.34 15.3067Z" fill="#8C30F5"/>
<path d="M1920.81 25.4119C1924.07 24.3995 1929.33 22.6373 1929.59 22.5433C1935.3 20.484 1940.72 19.3472 1946.79 18.7172C1950.44 18.3384 1954.13 18.5288 1957.74 17.6446C1961.07 16.83 1964.59 15.8096 1967.72 14.2379C1968.74 13.7291 1969.97 14.2359 1970.34 15.3072L1970.92 16.9689C1970.43 16.7505 1969.84 16.7423 1969.32 17.0053C1966.19 18.5771 1962.67 19.5975 1959.34 20.4121C1955.73 21.2945 1952.04 21.106 1948.39 21.4847C1942.32 22.1147 1936.89 23.2515 1931.19 25.3108C1930.93 25.4048 1925.67 27.1669 1922.41 28.1794C1921.01 28.6155 1920.07 29.9219 1920.09 31.3713C1919.61 31.0861 1919.21 30.6816 1918.93 30.1951C1918.7 29.7967 1918.55 29.3409 1918.51 28.853C1918.37 27.3061 1919.33 25.8727 1920.81 25.4119Z" fill="black" fill-opacity="0.2"/>
</g>
<g opacity="0.2">
<path d="M2130.09 92.1432C2130.49 93.2033 2129.87 94.3839 2128.77 94.6462C2125.36 95.4558 2122.01 96.9369 2118.94 98.4518C2115.6 100.095 2112.9 102.612 2109.86 104.667C2104.8 108.085 2099.92 110.703 2094.22 112.793C2093.96 112.888 2088.8 114.917 2085.66 116.237C2084.22 116.838 2082.56 116.357 2081.68 115.084C2080.68 113.649 2080.98 111.685 2082.36 110.613L2089.17 106.164C2089.47 105.966 2089.22 105.503 2088.89 105.643L2076.07 111.004C2074.32 111.808 2072.24 111.093 2071.36 109.382C2070.48 107.659 2071.12 105.545 2072.82 104.604L2085.61 98.1666C2085.93 98.0034 2085.74 97.5139 2085.39 97.6181L2067.27 103.055C2065.54 103.607 2063.7 102.664 2063.14 100.945C2062.63 99.3889 2063.35 97.6979 2064.82 96.9792L2082.78 88.8382C2083.1 88.6934 2082.95 88.2131 2082.6 88.2768L2065.82 91.3907C2064.33 91.6844 2062.81 90.8656 2062.34 89.4286C2061.82 87.8602 2062.68 86.181 2064.24 85.67L2085.5 79.0646C2086.94 78.618 2086.96 76.5933 2085.53 76.1254L2081.2 74.7091C2079.3 73.928 2078.38 71.7671 2079.14 69.8592C2079.9 67.9317 2082.09 66.9886 2084.02 67.7551C2086.53 68.7521 2089.11 69.5953 2091.76 70.1281C2095.48 70.8761 2099.28 71.3752 2103.08 71.2254C2107.05 71.0693 2110.02 69.98 2113.69 68.4606L2118.3 66.5469C2119.29 66.1375 2120.42 66.6244 2120.8 67.6218L2130.09 92.1432Z" fill="#8C30F5"/>
<path d="M2081.98 67.5455C2082.65 67.4284 2083.35 67.4875 2084.02 67.7544C2086.53 68.7524 2089.11 69.5944 2091.76 70.1274C2095.48 70.875 2099.28 71.3754 2103.08 71.2246C2107.05 71.0683 2110.02 69.9793 2113.69 68.4611L2118.3 66.5476C2119.29 66.138 2120.42 66.6237 2120.8 67.622L2121.6 69.7314C2121.13 69.5257 2120.58 69.5055 2120.07 69.7163L2115.33 71.6809C2111.57 73.2419 2108.51 74.3603 2104.44 74.5194C2100.54 74.6747 2096.64 74.1611 2092.82 73.3943C2090.1 72.8463 2087.45 71.9814 2084.87 70.9566C2084.18 70.6828 2083.46 70.6214 2082.78 70.7415C2081.51 70.9664 2080.37 71.8282 2079.86 73.1174C2079.8 73.2766 2079.74 73.4356 2079.7 73.5964C2078.88 72.5791 2078.62 71.1598 2079.14 69.8596C2079.64 68.6035 2080.74 67.7647 2081.98 67.5455Z" fill="black" fill-opacity="0.2"/>
<path d="M2141.29 26.2432C2141.3 25.1096 2140.32 24.211 2139.19 24.3426C2135.71 24.7481 2132.05 24.5024 2128.65 24.1298C2124.95 23.7254 2121.55 22.2858 2117.99 21.3938C2112.08 19.9108 2106.59 19.1216 2100.52 19.1062C2100.24 19.1054 2094.7 18.9633 2091.29 18.7994C2089.74 18.7248 2088.35 19.7439 2087.95 21.2439C2087.5 22.9333 2088.46 24.6758 2090.12 25.2101L2098.04 27.0639C2098.39 27.1462 2098.32 27.6655 2097.96 27.6484L2084.07 26.9955C2082.15 26.839 2080.45 28.2205 2080.21 30.1287C2079.97 32.0507 2081.3 33.8169 2083.21 34.12L2097.43 35.7963C2097.79 35.8388 2097.77 36.3657 2097.41 36.3865L2078.52 37.4749C2076.71 37.5465 2075.3 39.0646 2075.36 40.871C2075.42 42.5061 2076.67 43.8491 2078.3 44.0206L2097.96 45.5295C2098.31 45.5564 2098.33 46.0595 2097.99 46.1175L2081.15 48.9305C2079.66 49.1634 2078.51 50.4531 2078.55 51.9661C2078.6 53.6174 2079.98 54.9017 2081.62 54.8482L2103.86 53.7826C2105.37 53.7105 2106.07 55.6074 2104.89 56.5362L2101.31 59.3476C2099.79 60.7318 2099.66 63.0763 2101.03 64.6096C2102.41 66.1587 2104.79 66.2967 2106.34 64.9163C2108.36 63.1211 2110.49 61.4473 2112.8 60.0399C2116.04 58.0641 2119.44 56.2969 2123.06 55.1366C2126.84 53.9272 2130.01 53.9333 2133.97 54.1077L2138.96 54.3275C2140.03 54.3745 2140.93 53.5303 2140.94 52.4638L2141.29 26.2432Z" fill="#8C30F5"/>
<path d="M2091.29 18.7997C2094.7 18.9634 2100.24 19.1055 2100.52 19.1056C2106.59 19.1222 2112.08 19.9102 2117.99 21.3935C2121.55 22.2861 2124.95 23.7265 2128.65 24.1301C2132.05 24.5028 2135.71 24.7478 2139.19 24.3423C2140.32 24.2115 2141.3 25.1087 2141.29 26.2426L2141.26 28.0025C2140.87 27.629 2140.33 27.4216 2139.75 27.4893C2136.26 27.8948 2132.61 27.6499 2129.2 27.2772C2125.51 26.8716 2122.11 25.4332 2118.55 24.5406C2112.63 23.0572 2107.14 22.2693 2101.07 22.2527C2100.8 22.2525 2095.26 22.1105 2091.85 21.9468C2090.38 21.8767 2089.05 22.7841 2088.58 24.1529C2088.22 23.7208 2087.99 23.204 2087.89 22.6508C2087.81 22.1977 2087.82 21.7181 2087.95 21.2444C2088.35 19.7435 2089.74 18.725 2091.29 18.7997Z" fill="black" fill-opacity="0.2"/>
</g>
<g opacity="0.2">
<path d="M2264.31 99.9549C2264.33 101.089 2263.34 101.987 2262.21 101.856C2258.73 101.45 2255.08 101.696 2251.67 102.068C2247.98 102.473 2244.58 103.912 2241.02 104.804C2235.1 106.287 2229.61 107.077 2223.54 107.092C2223.27 107.093 2217.73 107.235 2214.32 107.399C2212.76 107.473 2211.37 106.454 2210.97 104.954C2210.53 103.265 2211.48 101.522 2213.15 100.988L2221.06 99.1342C2221.41 99.0519 2221.34 98.5326 2220.98 98.5497L2207.1 99.2026C2205.18 99.3591 2203.47 97.9775 2203.23 96.0694C2202.99 94.1473 2204.32 92.3812 2206.24 92.0781L2220.45 90.4018C2220.81 90.3593 2220.8 89.8324 2220.43 89.8116L2201.55 88.7231C2199.74 88.6515 2198.32 87.1335 2198.39 85.327C2198.44 83.692 2199.7 82.3489 2201.33 82.1775L2220.98 80.6685C2221.33 80.6417 2221.36 80.1385 2221.01 80.0806L2204.18 77.2676C2202.68 77.0346 2201.53 75.7449 2201.57 74.2319C2201.62 72.5806 2203 71.2963 2204.65 71.3499L2226.89 72.4155C2228.39 72.4876 2229.1 70.5907 2227.91 69.6618L2224.33 66.8505C2222.81 65.4663 2222.69 63.1218 2224.05 61.5885C2225.43 60.0394 2227.81 59.9013 2229.36 61.2817C2231.38 63.077 2233.51 64.7508 2235.82 66.1582C2239.06 68.1339 2242.46 69.9011 2246.09 71.0614C2249.87 72.2709 2253.03 72.2648 2257 72.0903L2261.99 71.8706C2263.06 71.8236 2263.95 72.6678 2263.97 73.7343L2264.31 99.9549Z" fill="#8C30F5"/>
<path d="M2227.52 60.3877C2228.18 60.5048 2228.82 60.8007 2229.36 61.2812C2231.38 63.0773 2233.51 64.75 2235.82 66.1579C2239.06 68.1326 2242.46 69.9015 2246.09 71.0606C2249.87 72.2702 2253.03 72.2642 2257 72.0911L2261.99 71.8712C2263.06 71.824 2263.95 72.6673 2263.97 73.7343L2263.99 75.9898C2263.63 75.6367 2263.12 75.4303 2262.57 75.4537L2257.44 75.6793C2253.37 75.859 2250.12 75.8657 2246.24 74.6228C2242.52 73.4329 2239.03 71.6168 2235.7 69.5895C2233.33 68.144 2231.14 66.4264 2229.07 64.5814C2228.52 64.0888 2227.86 63.7838 2227.18 63.6637C2225.9 63.4388 2224.54 63.8609 2223.62 64.8973C2223.5 65.0251 2223.4 65.1567 2223.31 65.2942C2222.88 64.0573 2223.12 62.6334 2224.05 61.5887C2224.95 60.5796 2226.28 60.1685 2227.52 60.3877Z" fill="black" fill-opacity="0.2"/>
<path d="M2297.37 41.8585C2297.77 40.7983 2297.16 39.6177 2296.05 39.3554C2292.64 38.5459 2289.29 37.0647 2286.22 35.5499C2282.89 33.9064 2280.18 31.39 2277.14 29.3345C2272.09 25.9169 2267.2 23.2982 2261.51 21.2087C2261.25 21.114 2256.09 19.085 2252.94 17.7644C2251.51 17.1633 2249.85 17.6445 2248.96 18.9181C2247.96 20.3525 2248.26 22.3165 2249.65 23.3886L2256.45 27.8377C2256.75 28.0353 2256.51 28.4983 2256.17 28.3588L2243.35 22.9973C2241.6 22.1933 2239.53 22.9086 2238.65 24.6195C2237.76 26.3428 2238.41 28.457 2240.11 29.3976L2252.89 35.8351C2253.22 35.9983 2253.02 36.4878 2252.67 36.3836L2234.55 30.9467C2232.83 30.3949 2230.98 31.3382 2230.42 33.0571C2229.92 34.6128 2230.64 36.3039 2232.11 37.0226L2250.06 45.1636C2250.38 45.3084 2250.23 45.7887 2249.89 45.7249L2233.11 42.611C2231.62 42.3173 2230.1 43.1361 2229.62 44.5731C2229.1 46.1415 2229.96 47.8207 2231.52 48.3317L2252.79 54.9372C2254.22 55.3837 2254.24 57.4085 2252.81 57.8763L2248.48 59.2926C2246.58 60.0737 2245.66 62.2346 2246.42 64.1425C2247.19 66.07 2249.38 67.0131 2251.31 66.2466C2253.82 65.2496 2256.39 64.4064 2259.04 63.8736C2262.77 63.1256 2266.56 62.6265 2270.37 62.7763C2274.33 62.9324 2277.31 64.0217 2280.97 65.5412L2285.59 67.4548C2286.57 67.8642 2287.7 67.3773 2288.08 66.3799L2297.37 41.8585Z" fill="#8C30F5"/>
<path d="M2252.94 17.7657C2256.09 19.0858 2261.25 21.1149 2261.51 21.2092C2267.2 23.2997 2272.09 25.9173 2277.14 29.3351C2280.18 31.3914 2282.89 33.9082 2286.22 35.5509C2289.29 37.066 2292.64 38.5467 2296.05 39.3563C2297.16 39.6192 2297.78 40.7987 2297.37 41.8586L2296.75 43.5043C2296.51 43.0207 2296.07 42.6391 2295.5 42.5034C2292.09 41.6938 2288.74 40.213 2285.66 38.6979C2282.33 37.0532 2279.63 34.5384 2276.59 32.4822C2271.53 29.0644 2266.65 26.4467 2260.95 24.3562C2260.69 24.262 2255.53 22.2329 2252.38 20.9128C2251.03 20.3449 2249.47 20.7438 2248.56 21.8671C2248.37 21.3402 2248.33 20.7733 2248.42 20.2201C2248.5 19.767 2248.68 19.3214 2248.96 18.9192C2249.85 17.6451 2251.51 17.1645 2252.94 17.7657Z" fill="black" fill-opacity="0.2"/>
</g>
<g opacity="0.2">
<path d="M2406.7 103.558C2406.33 104.628 2405.09 105.136 2404.08 104.627C2400.95 103.055 2397.43 102.036 2394.1 101.221C2390.49 100.337 2386.8 100.527 2383.15 100.148C2377.08 99.5172 2371.66 98.3817 2365.95 96.3211C2365.69 96.2278 2360.44 94.466 2357.17 93.4534C2355.69 92.9925 2354.73 91.5584 2354.87 90.0128C2355.03 88.2722 2356.52 86.9615 2358.27 87.0293L2366.34 87.9944C2366.7 88.0373 2366.81 87.5243 2366.46 87.417L2353.19 83.2825C2351.33 82.7726 2350.21 80.8915 2350.63 79.0162C2351.06 77.1272 2352.92 75.9222 2354.82 76.293L2368.75 79.5803C2369.11 79.6635 2369.27 79.1629 2368.94 79.0195L2351.56 71.5369C2349.89 70.8505 2349.08 68.9408 2349.75 67.2647C2350.37 65.7475 2352 64.9144 2353.6 65.311L2372.58 70.616C2372.92 70.7104 2373.11 70.2451 2372.81 70.0725L2357.95 61.6719C2356.62 60.9404 2355.98 59.3353 2356.54 57.9288C2357.15 56.3938 2358.89 55.6593 2360.42 56.2709L2380.95 64.8791C2382.34 65.4612 2383.65 63.9208 2382.86 62.6431L2380.45 58.7756C2379.5 56.9554 2380.18 54.71 2381.99 53.7363C2383.82 52.7525 2386.1 53.4362 2387.09 55.2639C2388.37 57.6409 2389.8 59.9434 2391.49 62.0556C2393.86 65.0208 2396.45 67.843 2399.46 70.1734C2402.59 72.6025 2405.57 73.6804 2409.36 74.872L2414.12 76.3727C2415.14 76.6938 2415.69 77.7934 2415.34 78.8004L2406.7 103.558Z" fill="#8C30F5"/>
<path d="M2385.66 53.7937C2386.24 54.1309 2386.74 54.628 2387.09 55.2641C2388.37 57.6416 2389.8 59.9433 2391.49 62.0562C2393.86 65.0199 2396.45 67.8439 2399.46 70.173C2402.59 72.6027 2405.57 73.6803 2409.36 74.8734L2414.12 76.3736C2415.14 76.6944 2415.7 77.7936 2415.34 78.8007L2414.6 80.9303C2414.37 80.4722 2413.97 80.1046 2413.44 79.9377L2408.55 78.3971C2404.66 77.1738 2401.6 76.0681 2398.38 73.5731C2395.29 71.1815 2392.63 68.282 2390.2 65.2387C2388.47 63.0701 2387 60.7068 2385.68 58.2642C2385.33 57.6121 2384.81 57.1004 2384.22 56.7546C2383.09 56.1071 2381.67 56.0385 2380.45 56.697C2380.3 56.778 2380.16 56.8664 2380.02 56.964C2380.05 55.6568 2380.76 54.4 2381.99 53.7368C2383.18 53.0963 2384.57 53.1625 2385.66 53.7937Z" fill="black" fill-opacity="0.2"/>
<path d="M2457.64 60.2735C2458.38 59.4147 2458.2 58.0944 2457.25 57.4699C2454.33 55.5429 2451.68 53.005 2449.31 50.5306C2446.74 47.8463 2445.06 44.5565 2442.91 41.5855C2439.33 36.6455 2435.63 32.5133 2431 28.6017C2430.79 28.4244 2426.63 24.7533 2424.12 22.4353C2422.98 21.3802 2421.26 21.2654 2419.99 22.1589C2418.56 23.1654 2418.17 25.114 2419.11 26.5946L2423.98 33.1023C2424.2 33.3914 2423.81 33.7423 2423.54 33.4972L2413.33 24.0737C2411.96 22.7193 2409.76 22.6821 2408.35 23.9893C2406.93 25.306 2406.81 27.5134 2408.09 28.9778L2417.9 39.4003C2418.15 39.6644 2417.8 40.0575 2417.51 39.8408L2402.34 28.5343C2400.91 27.4257 2398.85 27.6804 2397.73 29.1044C2396.73 30.3932 2396.82 32.2283 2397.96 33.4076L2412.05 47.1987C2412.3 47.444 2412 47.8436 2411.69 47.6656L2396.99 39.0006C2395.69 38.2156 2393.98 38.4647 2393.04 39.6524C2392.02 40.9487 2392.25 42.8203 2393.54 43.8343L2411.27 57.314C2412.46 58.2253 2411.79 60.1337 2410.28 60.0841L2405.73 59.9345C2403.68 60.0183 2402.08 61.735 2402.14 63.7873C2402.2 65.8608 2403.93 67.4953 2406.01 67.435C2408.71 67.3566 2411.42 67.4456 2414.09 67.8518C2417.84 68.4217 2421.58 69.2509 2425.1 70.6927C2428.78 72.1955 2431.2 74.2367 2434.12 76.9178L2437.81 80.2946C2438.59 81.0171 2439.82 80.9461 2440.52 80.1382L2457.64 60.2735Z" fill="#8C30F5"/>
<path d="M2424.12 22.4354C2426.63 24.7526 2430.79 28.4241 2431 28.6011C2435.63 32.5133 2439.33 36.6449 2442.91 41.5849C2445.06 44.5569 2446.74 47.8464 2449.31 50.5301C2451.68 53.0049 2454.33 55.5428 2457.25 57.4699C2458.2 58.0948 2458.38 59.4142 2457.64 60.2722L2456.49 61.6053C2456.43 61.07 2456.15 60.5602 2455.66 60.2374C2452.73 58.3103 2450.08 55.7724 2447.72 53.2976C2445.15 50.6121 2443.47 47.3243 2441.31 44.3524C2437.73 39.4124 2434.03 35.2808 2429.4 31.3686C2429.19 31.1915 2425.03 27.5202 2422.53 25.2029C2421.45 24.2057 2419.85 24.048 2418.6 24.7902C2418.61 24.2322 2418.76 23.6836 2419.04 23.1971C2419.27 22.7986 2419.59 22.4408 2419.99 22.1585C2421.26 21.265 2422.98 21.3802 2424.12 22.4354Z" fill="black" fill-opacity="0.2"/>
</g>
<g opacity="0.2">
<path d="M2561.43 102.515C2560.71 103.393 2559.38 103.45 2558.6 102.624C2556.19 100.075 2553.24 97.9138 2550.39 96.0103C2547.3 93.9455 2543.77 92.8612 2540.47 91.2569C2534.98 88.5892 2530.27 85.666 2525.61 81.7779C2525.4 81.6018 2521.06 78.1485 2518.34 76.0816C2517.11 75.1408 2516.69 73.4646 2517.35 72.06C2518.1 70.4781 2519.95 69.7571 2521.57 70.419L2528.82 74.0866C2529.15 74.2496 2529.42 73.8047 2529.14 73.5859L2518.08 65.1626C2516.51 64.0479 2516.09 61.8941 2517.14 60.2779C2518.19 58.6498 2520.34 58.1513 2522 59.1513L2533.97 67.0056C2534.27 67.2045 2534.6 66.7905 2534.34 66.5418L2520.57 53.5677C2519.23 52.3493 2519.12 50.2783 2520.33 48.9346C2521.42 47.7184 2523.25 47.4957 2524.61 48.4124L2540.63 59.8916C2540.92 60.0959 2541.26 59.7245 2541.03 59.458L2529.95 46.4831C2528.95 45.3412 2528.9 43.6144 2529.9 42.4841C2531 41.2504 2532.89 41.1544 2534.11 42.2503L2550.46 57.3627C2551.57 58.3845 2553.33 57.3866 2553.02 55.914L2552.08 51.457C2551.81 49.4203 2553.22 47.5449 2555.25 47.248C2557.3 46.9482 2559.21 48.3712 2559.51 50.4258C2559.91 53.0979 2560.46 55.7513 2561.33 58.3137C2562.54 61.9106 2564.01 65.4474 2566.04 68.6668C2568.16 72.0227 2570.59 74.0545 2573.74 76.4684L2577.7 79.5085C2578.55 80.1589 2578.69 81.3813 2578.02 82.2074L2561.43 102.515Z" fill="#8C30F5"/>
<path d="M2558.68 48.5557C2559.11 49.0723 2559.41 49.7106 2559.51 50.4256C2559.91 53.0977 2560.46 55.7509 2561.33 58.3139C2562.54 61.9091 2564.01 65.4476 2566.04 68.6658C2568.16 72.0225 2570.59 74.0539 2573.74 76.4692L2577.7 79.5085C2578.55 80.1586 2578.69 81.3812 2578.02 82.2068L2576.59 83.9536C2576.53 83.4459 2576.28 82.9614 2575.84 82.6243L2571.77 79.5033C2568.54 77.0247 2566.04 74.9398 2563.87 71.4937C2561.78 68.1888 2560.27 64.5556 2559.03 60.8634C2558.14 58.2332 2557.57 55.5093 2557.17 52.7638C2557.06 52.0309 2556.75 51.3742 2556.31 50.8443C2555.47 49.8523 2554.16 49.3013 2552.79 49.5026C2552.62 49.527 2552.46 49.5615 2552.3 49.6074C2552.77 48.3875 2553.86 47.4494 2555.25 47.2478C2556.59 47.0531 2557.87 47.5887 2558.68 48.5557Z" fill="black" fill-opacity="0.2"/>
<path d="M2624.1 79.2632C2625.09 78.7093 2625.37 77.4087 2624.7 76.4972C2622.6 73.6853 2620.99 70.3966 2619.61 67.2612C2618.11 63.8597 2617.66 60.1934 2616.65 56.6653C2614.98 50.7988 2612.91 45.6513 2609.89 40.3894C2609.76 40.1509 2607.11 35.2805 2605.55 32.2447C2604.83 30.8629 2603.26 30.1659 2601.76 30.5717C2600.07 31.0287 2599.04 32.727 2599.41 34.4374L2601.76 42.2189C2601.87 42.5646 2601.38 42.7609 2601.21 42.4399L2594.84 30.0911C2594.01 28.3495 2591.97 27.5643 2590.19 28.3103C2588.41 29.0615 2587.54 31.0957 2588.24 32.9075L2593.9 46.0577C2594.04 46.3909 2593.57 46.6403 2593.38 46.3371L2582.99 30.5248C2582.02 28.9931 2580 28.5286 2578.47 29.4859C2577.08 30.3523 2576.54 32.1101 2577.21 33.6077L2585.73 51.3855C2585.88 51.7018 2585.46 51.9724 2585.24 51.7018L2574.38 38.5306C2573.43 37.349 2571.74 36.9985 2570.45 37.7936C2569.05 38.6614 2568.63 40.4997 2569.49 41.8942L2581.54 60.6224C2582.35 61.8887 2581.06 63.4505 2579.66 62.8895L2575.44 61.1919C2573.48 60.5684 2571.39 61.6338 2570.74 63.583C2570.09 65.5524 2571.16 67.681 2573.13 68.3343C2575.7 69.1839 2578.21 70.1945 2580.58 71.4905C2583.92 73.3096 2587.15 75.3672 2589.96 77.9271C2592.9 80.5954 2594.48 83.3422 2596.31 86.8616L2598.61 91.2943C2599.11 92.2426 2600.29 92.5961 2601.22 92.0751L2624.1 79.2632Z" fill="#8C30F5"/>
<path d="M2605.55 32.2449C2607.11 35.2798 2609.76 40.1507 2609.9 40.3891C2612.91 45.6512 2614.98 50.7985 2616.65 56.6648C2617.66 60.1941 2618.11 63.8596 2619.61 67.2606C2620.99 70.3965 2622.6 73.6855 2624.7 76.4976C2625.37 77.4092 2625.09 78.7094 2624.1 79.2619L2622.56 80.1217C2622.69 79.5992 2622.6 79.0228 2622.25 78.5517C2620.16 75.7396 2618.54 72.4506 2617.16 69.3146C2615.66 65.9124 2615.21 62.2481 2614.2 58.7189C2612.53 52.8526 2610.47 47.7053 2607.45 42.4432C2607.31 42.2048 2604.66 37.334 2603.1 34.299C2602.43 32.9928 2600.98 32.2976 2599.55 32.5691C2599.75 32.0472 2600.08 31.5831 2600.51 31.222C2600.86 30.9263 2601.28 30.6993 2601.76 30.571C2603.26 30.1659 2604.83 30.8629 2605.55 32.2449Z" fill="black" fill-opacity="0.2"/>
</g>
<g opacity="0.2">
<path d="M2714.66 96.954C2713.68 97.5338 2712.41 97.1318 2711.96 96.0886C2710.57 92.8712 2708.53 89.8282 2706.51 87.0654C2704.31 84.0683 2701.36 81.8416 2698.81 79.2054C2694.57 74.822 2691.14 70.4638 2688.09 65.2172C2687.95 64.9795 2685.06 60.2513 2683.21 57.3793C2682.37 56.0721 2682.56 54.356 2683.66 53.2617C2684.9 52.0293 2686.88 51.9851 2688.18 53.1612L2693.74 59.0889C2693.99 59.3523 2694.4 59.0293 2694.21 58.7254L2686.7 47.0293C2685.6 45.4442 2685.95 43.2775 2687.48 42.1153C2689.02 40.9445 2691.22 41.2126 2692.44 42.7211L2701 54.1951C2701.22 54.4858 2701.66 54.2083 2701.5 53.8843L2693 36.9834C2692.16 35.3801 2692.77 33.3975 2694.36 32.5484C2695.81 31.7797 2697.6 32.1944 2698.56 33.5206L2709.69 49.7895C2709.89 50.0789 2710.34 49.8464 2710.22 49.518L2704.24 33.5338C2703.69 32.1193 2704.23 30.479 2705.56 29.7611C2707.02 28.9777 2708.82 29.5317 2709.6 30.9797L2719.79 50.7735C2720.48 52.1119 2722.48 51.7768 2722.69 50.2869L2723.33 45.778C2723.77 43.7704 2725.74 42.4912 2727.75 42.9071C2729.78 43.3274 2731.09 45.318 2730.67 47.3517C2730.13 49.9965 2729.74 52.6809 2729.68 55.3843C2729.59 59.1792 2729.76 63.004 2730.57 66.7241C2731.41 70.6019 2733 73.3425 2735.13 76.6876L2737.82 80.9005C2738.39 81.8018 2738.11 82.9996 2737.19 83.545L2714.66 96.954Z" fill="#8C30F5"/>
<path d="M2730.53 45.3079C2730.76 45.9416 2730.82 46.6441 2730.67 47.3518C2730.13 49.9963 2729.74 52.6808 2729.68 55.3848C2729.59 59.1779 2729.76 63.0041 2730.57 66.7233C2731.41 70.6021 2733 73.3421 2735.13 76.6883L2737.81 80.9002C2738.39 81.8013 2738.11 82.9997 2737.19 83.5444L2735.25 84.6977C2735.37 84.2016 2735.3 83.6586 2735 83.1919L2732.24 78.867C2730.05 75.432 2728.42 72.6194 2727.56 68.6379C2726.73 64.8183 2726.56 60.8896 2726.65 56.9938C2726.71 54.2193 2727.11 51.4634 2727.67 48.7461C2727.82 48.0207 2727.75 47.2982 2727.52 46.6482C2727.07 45.4314 2726.03 44.4644 2724.67 44.1841C2724.5 44.1491 2724.34 44.1255 2724.17 44.1141C2725.03 43.1287 2726.38 42.6224 2727.75 42.9067C2729.08 43.1813 2730.09 44.1216 2730.53 45.3079Z" fill="black" fill-opacity="0.2"/>
<path d="M2781.5 96.5385C2782.62 96.3563 2783.33 95.2322 2783.01 94.1437C2782 90.786 2781.61 87.1432 2781.39 83.725C2781.14 80.0167 2781.97 76.4159 2782.23 72.7562C2782.66 66.6708 2782.49 61.129 2781.45 55.1514C2781.4 54.8806 2780.58 49.3983 2780.15 46.0108C2779.95 44.4689 2778.71 43.2738 2777.16 43.1429C2775.42 42.9955 2773.87 44.2385 2773.63 45.9725L2773.18 54.0891C2773.16 54.4498 2772.64 54.4679 2772.59 54.1096L2770.82 40.3249C2770.64 38.4063 2768.99 36.9678 2767.07 37.0624C2765.13 37.1576 2763.62 38.7734 2763.66 40.7139L2764.48 55.0058C2764.5 55.3679 2763.97 55.4434 2763.89 55.0904L2759.54 36.6795C2759.15 34.9094 2757.41 33.7816 2755.65 34.1568C2754.05 34.4963 2752.94 35.9648 2753.05 37.6001L2754.98 57.2204C2755.02 57.5694 2754.52 57.6784 2754.41 57.3479L2748.71 41.2592C2748.22 39.8235 2746.75 38.9156 2745.27 39.2222C2743.65 39.5569 2742.63 41.1401 2742.97 42.7471L2747.88 64.4648C2748.21 65.9333 2746.47 66.9601 2745.35 65.9553L2741.95 62.9146C2740.33 61.659 2738 61.9445 2736.72 63.5555C2735.44 65.1832 2735.72 67.5493 2737.34 68.8374C2739.46 70.5125 2741.48 72.3228 2743.27 74.3523C2745.78 77.2013 2748.11 80.239 2749.88 83.6082C2751.73 87.1201 2752.27 90.2412 2752.79 94.1745L2753.44 99.1284C2753.58 100.188 2754.56 100.924 2755.62 100.752L2781.5 96.5385Z" fill="#8C30F5"/>
<path d="M2780.15 46.0113C2780.58 49.3978 2781.4 54.8808 2781.45 55.1518C2782.49 61.1291 2782.66 66.6712 2782.23 72.7563C2781.97 76.4172 2781.14 80.0165 2781.38 83.7245C2781.61 87.1434 2782 90.7868 2783.01 94.1447C2783.33 95.233 2782.62 96.3572 2781.5 96.5377L2779.76 96.8204C2780.06 96.3737 2780.17 95.8001 2780 95.2377C2779 91.8798 2778.61 88.2363 2778.38 84.8175C2778.14 81.1088 2778.97 77.5099 2779.23 73.8493C2779.66 67.7641 2779.48 62.222 2778.45 56.2448C2778.4 55.9737 2777.58 50.491 2777.14 47.1043C2776.96 45.6466 2775.83 44.4977 2774.4 44.2659C2774.77 43.843 2775.24 43.5194 2775.76 43.3272C2776.2 43.1699 2776.67 43.1013 2777.16 43.1424C2778.71 43.2744 2779.95 44.4693 2780.15 46.0113Z" fill="black" fill-opacity="0.2"/>
</g>
<g opacity="0.2">
<path d="M2852.73 87.5445C2851.61 87.7561 2850.56 86.944 2850.49 85.8098C2850.29 82.3113 2849.41 78.7538 2848.45 75.465C2847.41 71.8971 2845.4 68.7964 2843.91 65.4464C2841.42 59.8761 2839.69 54.6084 2838.62 48.6361C2838.57 48.3655 2837.47 42.9326 2836.72 39.6021C2836.37 38.086 2837.13 36.5371 2838.54 35.885C2840.13 35.1509 2842.01 35.7887 2842.83 37.3372L2846.03 44.81C2846.17 45.142 2846.67 44.9798 2846.59 44.6274L2843.53 31.0693C2843.05 29.2051 2844.11 27.2867 2845.95 26.7187C2847.8 26.1464 2849.77 27.1487 2850.4 28.984L2854.52 42.6937C2854.62 43.041 2855.14 42.9336 2855.1 42.5734L2852.89 23.7843C2852.65 21.9893 2853.9 20.3343 2855.69 20.0821C2857.31 19.8538 2858.85 20.8558 2859.3 22.4316L2864.2 41.5278C2864.28 41.8675 2864.78 41.8018 2864.78 41.4513L2864.63 24.3856C2864.6 22.8691 2865.67 21.5132 2867.17 21.2944C2868.8 21.0556 2870.31 22.1928 2870.54 23.8183L2873.35 45.9062C2873.54 47.3997 2875.53 47.7677 2876.24 46.4403L2878.39 42.4233C2879.49 40.6869 2881.77 40.1582 2883.52 41.2367C2885.29 42.3264 2885.83 44.6446 2884.74 46.412C2883.33 48.7106 2882.05 51.1022 2881.06 53.6206C2879.68 57.1556 2878.53 60.8071 2878.02 64.5793C2877.48 68.5112 2878.04 71.6302 2878.9 75.503L2879.98 80.3805C2880.21 81.424 2879.54 82.4526 2878.49 82.6517L2852.73 87.5445Z" fill="#8C30F5"/>
<path d="M2885.3 44.4412C2885.3 45.1155 2885.12 45.7976 2884.75 46.4125C2883.33 48.7104 2882.05 51.1025 2881.06 53.6214C2879.68 57.1548 2878.53 60.8072 2878.02 64.5788C2877.48 68.5119 2878.04 71.6302 2878.9 75.5037L2879.98 80.3801C2880.21 81.4234 2879.54 82.4531 2878.49 82.6511L2876.27 83.0718C2876.56 82.6472 2876.67 82.1112 2876.55 81.5713L2875.44 76.5641C2874.56 72.5869 2873.99 69.386 2874.54 65.3491C2875.06 61.4757 2876.24 57.7253 2877.66 54.0958C2878.68 51.5117 2879.99 49.0561 2881.44 46.6947C2881.83 46.0644 2882.02 45.3632 2882.02 44.6715C2882.02 43.3766 2881.37 42.1103 2880.19 41.3823C2880.04 41.292 2879.89 41.2132 2879.74 41.146C2880.89 40.5139 2882.33 40.5004 2883.52 41.2363C2884.67 41.9472 2885.3 43.1788 2885.3 44.4412Z" fill="black" fill-opacity="0.2"/>
<path d="M2915.68 110.016C2916.8 110.227 2917.85 109.415 2917.92 108.281C2918.12 104.782 2919 101.225 2919.96 97.9361C2921 94.3682 2923.01 91.2675 2924.5 87.9175C2926.99 82.3472 2928.72 77.0795 2929.79 71.1073C2929.84 70.8366 2930.94 65.4038 2931.69 62.0732C2932.04 60.5572 2931.28 59.0082 2929.87 58.3563C2928.28 57.6222 2926.4 58.26 2925.58 59.8085L2922.38 67.2813C2922.24 67.6133 2921.74 67.4511 2921.82 67.0988L2924.88 53.5408C2925.36 51.6765 2924.3 49.7582 2922.46 49.1902C2920.61 48.6179 2918.64 49.6202 2918.01 51.4555L2913.89 65.1652C2913.79 65.5125 2913.27 65.4051 2913.31 65.0449L2915.52 46.2559C2915.76 44.4609 2914.51 42.806 2912.72 42.5538C2911.1 42.3255 2909.56 43.3275 2909.11 44.9033L2904.21 63.9995C2904.13 64.3392 2903.63 64.2735 2903.63 63.9228L2903.78 46.8571C2903.81 45.3406 2902.74 43.9847 2901.24 43.7659C2899.61 43.5271 2898.1 44.6643 2897.87 46.2898L2895.06 68.3777C2894.87 69.8712 2892.88 70.2392 2892.17 68.9118L2890.02 64.8948C2888.92 63.1584 2886.64 62.6297 2884.89 63.7082C2883.12 64.7979 2882.58 67.1161 2883.67 68.8835C2885.08 71.1821 2886.36 73.5737 2887.35 76.092C2888.73 79.6271 2889.88 83.2786 2890.39 87.0508C2890.93 90.9827 2890.37 94.1017 2889.51 97.9745L2888.43 102.852C2888.2 103.895 2888.87 104.924 2889.92 105.123L2915.68 110.016Z" fill="#8C30F5"/>
<path d="M2931.69 62.0733C2930.94 65.4029 2929.84 70.8366 2929.79 71.1076C2928.72 77.0791 2926.99 82.3475 2924.5 87.9175C2923.01 91.2684 2921 94.3674 2919.96 97.9353C2919 101.225 2918.12 104.783 2917.92 108.282C2917.85 109.415 2916.8 110.228 2915.68 110.015L2913.95 109.686C2914.39 109.369 2914.69 108.868 2914.72 108.282C2914.93 104.783 2915.8 101.225 2916.76 97.9353C2917.8 94.3674 2919.81 91.2682 2921.31 87.9175C2923.8 82.3475 2925.52 77.0791 2926.59 71.1076C2926.64 70.8366 2927.74 65.4031 2928.5 62.0733C2928.82 60.64 2928.16 59.1759 2926.89 58.4688C2927.38 58.1959 2927.93 58.0518 2928.49 58.0518C2928.95 58.0518 2929.42 58.1497 2929.87 58.3553C2931.28 59.0087 2932.04 60.5573 2931.69 62.0733Z" fill="black" fill-opacity="0.2"/>
</g>
</svg>
