<svg width="85" height="28" viewBox="0 0 85 28" fill="none" xmlns="http://www.w3.org/2000/svg">
<g clip-path="url(#clip0)">
<path d="M36.2461 14.3593C36.2461 18.2458 33.1609 21.1098 29.3747 21.1098C25.5886 21.1098 22.5034 18.2458 22.5034 14.3593C22.5034 10.4454 25.5886 7.60889 29.3747 7.60889C33.1609 7.60889 36.2461 10.4454 36.2461 14.3593ZM33.2381 14.3593C33.2381 11.9306 31.45 10.2689 29.3747 10.2689C27.2994 10.2689 25.5114 11.9306 25.5114 14.3593C25.5114 16.7637 27.2994 18.4498 29.3747 18.4498C31.45 18.4498 33.2381 16.7606 33.2381 14.3593Z" fill="#EA4335"/>
<path d="M51.0698 14.3593C51.0698 18.2458 47.9846 21.1098 44.1985 21.1098C40.4123 21.1098 37.3271 18.2458 37.3271 14.3593C37.3271 10.4485 40.4123 7.60889 44.1985 7.60889C47.9846 7.60889 51.0698 10.4454 51.0698 14.3593ZM48.0619 14.3593C48.0619 11.9306 46.2738 10.2689 44.1985 10.2689C42.1232 10.2689 40.3351 11.9306 40.3351 14.3593C40.3351 16.7637 42.1232 18.4498 44.1985 18.4498C46.2738 18.4498 48.0619 16.7606 48.0619 14.3593Z" fill="#FBBC05"/>
<path d="M65.2757 8.01671V20.1358C65.2757 25.1211 62.2925 27.1571 58.7657 27.1571C55.4459 27.1571 53.4478 24.9689 52.6942 23.1793L55.3131 22.105C55.7794 23.2037 56.922 24.5002 58.7626 24.5002C61.0201 24.5002 62.4191 23.1276 62.4191 20.5437V19.5728H62.3141C61.6409 20.3915 60.3438 21.1067 58.707 21.1067C55.2822 21.1067 52.1445 18.1667 52.1445 14.3837C52.1445 10.5732 55.2822 7.60889 58.707 7.60889C60.3407 7.60889 61.6378 8.3241 62.3141 9.11845H62.4191V8.01976H65.2757V8.01671ZM62.6322 14.3837C62.6322 12.0067 61.0232 10.2689 58.9757 10.2689C56.9004 10.2689 55.1617 12.0067 55.1617 14.3837C55.1617 16.7363 56.9004 18.4498 58.9757 18.4498C61.0232 18.4498 62.6322 16.7363 62.6322 14.3837Z" fill="#4285F4"/>
<path d="M69.9851 0.913086V20.6957H67.0513V0.913086H69.9851Z" fill="#34A853"/>
<path d="M81.4181 16.5807L83.7528 18.1146C82.9993 19.2133 81.1834 21.1063 78.0457 21.1063C74.1546 21.1063 71.2485 18.142 71.2485 14.3559C71.2485 10.3416 74.1793 7.60547 77.7091 7.60547C81.2637 7.60547 83.0024 10.3933 83.5706 11.8998L83.8825 12.6668L74.7259 16.4042C75.4269 17.7585 76.5171 18.4494 78.0457 18.4494C79.5775 18.4494 80.6399 17.7068 81.4181 16.5807ZM74.2318 14.152L80.3527 11.6472C80.016 10.8042 79.0031 10.2168 77.811 10.2168C76.2824 10.2168 74.1546 11.5468 74.2318 14.152Z" fill="#EA4335"/>
<path d="M11.3985 12.6031V9.73915H21.1913C21.2871 10.2383 21.3365 10.8287 21.3365 11.4678C21.3365 13.6165 20.7404 16.2735 18.8196 18.1665C16.9512 20.0839 14.564 21.1065 11.4016 21.1065C5.54015 21.1065 0.611328 16.4013 0.611328 10.6248C0.611328 4.84828 5.54015 0.143066 11.4016 0.143066C14.6443 0.143066 16.9543 1.39698 18.6899 3.03133L16.6393 5.0522C15.3947 3.90176 13.7085 3.00698 11.3985 3.00698C7.11824 3.00698 3.77059 6.40654 3.77059 10.6248C3.77059 14.8431 7.11824 18.2426 11.3985 18.2426C14.1749 18.2426 15.756 17.1439 16.769 16.1457C17.5904 15.3361 18.1309 14.1796 18.344 12.6L11.3985 12.6031Z" fill="#4285F4"/>
</g>
<defs>
<clipPath id="clip0">
<rect width="84" height="28" fill="white" transform="translate(0.5)"/>
</clipPath>
</defs>
</svg>
