<svg width="112" height="26" viewBox="0 0 112 26" fill="none" xmlns="http://www.w3.org/2000/svg">
<g clip-path="url(#clip0)">
<path d="M40.0019 9.24802V10.7215H40.047C40.5772 9.9326 41.4574 9.00353 43.4084 9.00353C44.9262 9.00353 46.0906 9.77612 46.5896 10.9432H46.6347C47.0609 10.3531 47.5495 9.90652 48.097 9.59031C48.7451 9.21542 49.4659 9.00027 50.3738 9.00027C52.4288 9.00027 54.2481 10.3368 54.2481 13.7076V20.1002H51.1154V14.1542C51.1154 12.446 50.4986 11.4582 49.2164 11.4582C48.2773 11.4582 47.5946 12.0515 47.3347 12.7818C47.2446 13.0328 47.203 13.3751 47.203 13.6619V20.1035H44.0703V13.9129C44.0703 12.4623 43.4777 11.455 42.2128 11.455C41.2009 11.455 40.5668 12.2048 40.3069 12.847C40.196 13.1208 40.1613 13.437 40.1613 13.7336V20.1002H37.0251V9.24802H40.0019ZM70.4176 9.24802V11.2952H70.5042C71.0795 9.73049 72.4448 9.00353 73.6439 9.00353C73.9454 9.00353 74.1117 9.02635 74.3543 9.07198V11.9146C74.0666 11.8755 73.7998 11.8364 73.4255 11.8364C72.0671 11.8364 71.1211 12.5796 70.882 13.7434C70.83 13.9847 70.8126 14.2455 70.8126 14.5454V20.1035H67.5968V9.24802H70.4176ZM78.7206 5.65234V9.06872H81.4375V11.8331H78.7206V15.9113C78.7206 17.2315 79.0776 17.8705 80.138 17.8705C80.637 17.8705 81.0043 17.8118 81.3231 17.7368L81.3647 20.0285C80.9385 20.1785 80.0306 20.3415 79.1088 20.3415C78.0241 20.3415 77.1196 19.9861 76.5686 19.4352C75.938 18.8061 75.6469 17.7759 75.6469 16.309V5.65234H78.7206ZM34.842 20.1002H31.7231V5.65234H34.842V20.1002ZM26.525 16.2242C26.525 16.4231 26.5077 16.6317 26.4488 16.811C26.2062 17.564 25.378 18.1997 24.3453 18.1997C23.4824 18.1997 22.7963 17.7401 22.7963 16.7654C22.7963 15.2756 24.5428 14.8616 26.5285 14.8714V16.2242H26.525ZM29.6404 13.6261C29.6404 11.1648 28.5246 9.00353 24.7508 9.00353C22.8136 9.00353 21.275 9.51533 20.4364 9.97172L21.0497 11.9472C21.8156 11.4908 23.0389 11.1159 24.1963 11.1159C26.1127 11.1127 26.4245 12.1363 26.4245 12.7915V12.948C22.2487 12.9415 19.6116 14.3009 19.6116 17.0718C19.6116 18.7637 20.9527 20.348 23.2884 20.348C24.7265 20.348 25.9255 19.8101 26.6463 18.9462H26.7156C26.7156 18.9462 27.1939 20.8207 29.8206 20.1035C29.682 19.3211 29.6369 18.4899 29.6369 17.4891V13.6261H29.6404ZM3.94459 5.65234C4.26687 7.18124 5.18173 11.6212 5.18173 11.6212C5.56639 13.4468 5.91986 15.3603 6.1867 16.8729H6.23521C6.49511 15.2658 6.90403 13.7434 7.34067 11.8592L8.88276 5.65234H12.2962L13.7378 12.0189C14.1155 13.7891 14.417 15.155 14.6561 16.8012H14.7011C14.961 15.1387 15.3007 13.7173 15.6715 11.8983L17.0576 5.65234H20.3324L16.2744 20.1002C13.6893 20.6316 12.6982 19.6536 12.3447 18.1019C11.9912 16.5469 11.2981 13.5902 11.2981 13.5902C10.9412 11.97 10.664 10.8291 10.4699 9.16652H10.4214C10.1442 10.8128 9.85307 11.9668 9.42336 13.587L7.72186 20.1035C5.08124 20.599 4.16638 19.8655 3.66043 17.8737C3.22379 16.1688 0.5 5.6556 0.5 5.6556H3.94459V5.65234ZM62.3987 16.2242C62.3987 16.4231 62.3814 16.6317 62.3224 16.811C62.0799 17.564 61.2516 18.1997 60.219 18.1997C59.3561 18.1997 58.6699 17.7401 58.6699 16.7654C58.6699 15.2756 60.4165 14.8616 62.4022 14.8714V16.2242H62.3987ZM65.5141 13.6261C65.5141 11.1648 64.3982 9.00353 60.6244 9.00353C58.6873 9.00353 57.1486 9.51533 56.31 9.97172L56.9234 11.9472C57.6892 11.4908 58.9125 11.1159 60.07 11.1159C61.9828 11.1127 62.2982 12.1363 62.2982 12.7915V12.948C58.1259 12.9415 55.4887 14.3009 55.4887 17.0718C55.4887 18.7637 56.8333 20.348 59.1655 20.348C60.6002 20.348 61.8026 19.8101 62.52 18.9462H62.5928C62.5928 18.9462 63.071 20.8207 65.6977 20.1035C65.5591 19.3211 65.5141 18.4899 65.5141 17.4891V13.6261Z" fill="#041E42"/>
<path d="M94.0802 15.1241C94.3877 15.6517 94.3669 16.2406 94.0388 16.5096L88.3669 20.4276C87.7762 20.7646 86.8919 20.3561 86.3911 19.5017C85.8868 18.6439 85.9766 17.6874 86.5672 17.3504L92.8471 14.4705C93.2409 14.3208 93.7728 14.5965 94.0802 15.1241ZM101.545 15.1241C101.856 14.5965 102.384 14.3242 102.778 14.4671L109.061 17.3469C109.652 17.6839 109.738 18.6405 109.237 19.4983C108.733 20.3527 107.845 20.7578 107.258 20.4242L101.586 16.5062C101.262 16.2406 101.237 15.6483 101.545 15.1241ZM97.8108 17.2482C98.4291 17.2482 98.9369 17.5614 99.006 17.9733L99.6174 24.7745C99.6174 25.4485 98.8195 26 97.8143 26C96.8126 26 96.0112 25.4485 96.0112 24.7745L96.6191 17.9733C96.6882 17.5614 97.196 17.2482 97.8108 17.2482ZM101.586 9.49385L107.258 5.5724C107.845 5.2354 108.733 5.64048 109.237 6.4983C109.738 7.35611 109.652 8.31265 109.061 8.64965L102.778 11.5329C102.384 11.6758 101.852 11.4035 101.545 10.8759C101.237 10.3483 101.262 9.75936 101.586 9.49385ZM92.8471 11.5329L86.5672 8.64965C85.98 8.31265 85.8902 7.35611 86.3911 6.4983C86.8919 5.64048 87.7797 5.2354 88.3669 5.5724L94.0388 9.49385C94.3669 9.75596 94.3877 10.3483 94.0802 10.8759C93.7728 11.4035 93.2409 11.6758 92.8471 11.5329ZM96.6191 8.02671L96.0112 1.22545C96.0112 0.551453 96.8091 0 97.8143 0C98.8195 0 99.6174 0.551453 99.6174 1.22545L99.006 8.02671C98.9369 8.43519 98.4291 8.75177 97.8108 8.75177C97.196 8.75177 96.6882 8.43519 96.6191 8.02671ZM110.771 20.4004V20.2302H110.927C110.978 20.2302 111.013 20.2642 111.013 20.3153C111.013 20.3629 110.978 20.4004 110.927 20.4004H110.771ZM110.643 20.7101C110.643 20.7272 110.657 20.7442 110.678 20.7442H110.744C110.761 20.7442 110.778 20.7272 110.778 20.7101V20.5161H110.885L110.972 20.7203C110.978 20.734 110.989 20.7442 111.003 20.7442H111.082C111.106 20.7442 111.124 20.7203 111.113 20.6965C111.082 20.6352 111.051 20.5706 111.02 20.5059C111.072 20.4889 111.151 20.4378 111.151 20.3153C111.151 20.1859 111.044 20.111 110.937 20.111H110.678C110.661 20.111 110.643 20.128 110.643 20.1451V20.7101ZM110.364 20.4276C110.364 20.1519 110.592 19.9272 110.871 19.9272C111.151 19.9272 111.379 20.1485 111.379 20.4276C111.379 20.7033 111.155 20.928 110.871 20.928C110.588 20.928 110.364 20.7033 110.364 20.4276ZM110.243 20.4276C110.243 20.768 110.522 21.0471 110.871 21.0471C111.217 21.0471 111.5 20.768 111.5 20.4276C111.5 20.0872 111.217 19.8081 110.871 19.8081C110.522 19.8081 110.243 20.0872 110.243 20.4276Z" fill="#FFC124"/>
</g>
<defs>
<clipPath id="clip0">
<rect width="111" height="26" fill="white" transform="translate(0.5)"/>
</clipPath>
</defs>
</svg>
