<svg width="1845" height="131" viewBox="0 0 1845 131" fill="none" xmlns="http://www.w3.org/2000/svg">
<g opacity="0.2">
<path d="M16.0939 87.545C14.9801 87.7566 13.9244 86.9445 13.8581 85.8103C13.6529 82.3117 12.7762 78.7543 11.8179 75.4655C10.7782 71.8976 8.76968 68.7969 7.27324 65.4469C4.78507 59.8766 3.05486 54.6089 1.98619 48.6366C1.93769 48.366 0.83539 42.9331 0.08169 39.6025C-0.26134 38.0865 0.50035 36.5375 1.90852 35.8855C3.49452 35.1513 5.37636 35.7892 6.19194 37.3376L9.392 44.8105C9.53416 45.1425 10.0329 44.9803 9.95337 44.6279L6.89974 31.0698C6.41214 29.2055 7.47672 27.2872 9.31414 26.7192C11.1649 26.1469 13.135 27.1492 13.7665 28.9845L17.886 42.6942C17.9904 43.0415 18.5065 42.9341 18.4641 42.5739L16.2563 23.7848C16.0125 21.9897 17.2622 20.3348 19.052 20.0826C20.672 19.8543 22.2125 20.8563 22.6644 22.4321L27.5639 41.5283C27.651 41.868 28.1503 41.8023 28.1473 41.4517L27.9946 24.3861C27.9637 22.8696 29.0343 21.5137 30.532 21.2949C32.1667 21.0561 33.6713 22.1933 33.9036 23.8188L36.7162 45.9067C36.9063 47.4002 38.8974 47.7682 39.6065 46.4408L41.753 42.4237C42.8523 40.6874 45.1398 40.1587 46.8869 41.2372C48.652 42.3269 49.201 44.6451 48.1109 46.4125C46.6933 48.7111 45.4154 51.1027 44.4303 53.621C43.0474 57.1561 41.8968 60.8076 41.3837 64.5798C40.8489 68.5117 41.4051 71.6307 42.2651 75.5034L43.3483 80.381C43.58 81.4245 42.9041 82.4531 41.8563 82.6522L16.0939 87.545Z" fill="#8C30F5"/>
<path d="M48.6708 44.4416C48.6708 45.116 48.4906 45.798 48.1112 46.413C46.6926 48.7109 45.4158 51.103 44.4304 53.6219C43.0482 57.1553 41.8961 60.8077 41.3842 64.5793C40.8494 68.5124 41.4053 71.6307 42.264 75.5041L43.3472 80.3805C43.5791 81.4239 42.9044 82.4536 41.8558 82.6516L39.6396 83.0723C39.9234 82.6477 40.0384 82.1117 39.9195 81.5718L38.8075 76.5646C37.9238 72.5874 37.3525 69.3864 37.9028 65.3496C38.4281 61.4762 39.6108 57.7258 41.0294 54.0963C42.0416 51.5122 43.3528 49.0566 44.8098 46.6952C45.1989 46.0649 45.3849 45.3637 45.3849 44.672C45.3849 43.3771 44.7331 42.1108 43.5523 41.3828C43.4067 41.2925 43.2591 41.2137 43.1077 41.1464C44.2522 40.5143 45.6956 40.5009 46.8862 41.2368C48.0363 41.9477 48.6708 43.1793 48.6708 44.4416Z" fill="black" fill-opacity="0.2"/>
<path d="M79.0484 110.017C80.1623 110.228 81.2179 109.416 81.2843 108.282C81.4894 104.783 82.3661 101.226 83.3244 97.9371C84.3641 94.3692 86.3727 91.2685 87.8691 87.9185C90.3573 82.3482 92.0875 77.0805 93.1562 71.1082C93.2047 70.8376 94.307 65.4047 95.0607 62.0742C95.4037 60.5581 94.642 59.0092 93.2338 58.3573C91.6478 57.6231 89.766 58.261 88.9504 59.8094L85.7503 67.2822C85.6082 67.6143 85.1094 67.4521 85.189 67.0997L88.2426 53.5418C88.7302 51.6775 87.6656 49.7592 85.8282 49.1912C83.9774 48.6189 82.0073 49.6212 81.3759 51.4565L77.2564 65.1662C77.1519 65.5135 76.6359 65.406 76.6783 65.0458L78.886 46.2569C79.1298 44.4619 77.8802 42.807 76.0903 42.5548C74.4703 42.3265 72.9298 43.3284 72.4779 44.9042L67.5785 64.0005C67.4913 64.3402 66.992 64.2744 66.995 63.9237L67.1477 46.8581C67.1786 45.3415 66.1081 43.9857 64.6103 43.7669C62.9756 43.5281 61.471 44.6653 61.2388 46.2908L58.4261 68.3787C58.236 69.8721 56.2449 70.2402 55.5358 68.9128L53.3894 64.8957C52.2901 63.1594 50.0026 62.6306 48.2555 63.7092C46.4903 64.7989 45.9414 67.1171 47.0314 68.8845C48.4491 71.1831 49.727 73.5746 50.712 76.093C52.0949 79.6281 53.2456 83.2796 53.7586 87.0517C54.2934 90.9837 53.7372 94.1027 52.8773 97.9754L51.7941 102.853C51.5624 103.896 52.2382 104.925 53.2861 105.124L79.0484 110.017Z" fill="#8C30F5"/>
<path d="M95.06 62.0743C94.3067 65.4039 93.2044 70.8376 93.1564 71.1085C92.0867 77.08 90.3576 82.3485 87.8692 87.9184C86.372 91.2693 84.3629 94.3684 83.324 97.9363C82.3655 101.226 81.4893 104.784 81.2842 108.283C81.2171 109.416 80.1627 110.229 79.0489 110.016L77.3198 109.687C77.755 109.37 78.054 108.869 78.0886 108.283C78.2937 104.784 79.1699 101.226 80.1284 97.9363C81.1693 94.3684 83.1764 91.2691 84.6736 87.9184C87.162 82.3485 88.8911 77.08 89.9608 71.1085C90.0088 70.8376 91.1111 65.4041 91.8644 62.0743C92.1883 60.641 91.5251 59.1769 90.2598 58.4697C90.7467 58.1969 91.2969 58.0527 91.8587 58.0527C92.3188 58.0527 92.7885 58.1507 93.2332 58.3563C94.6421 59.0097 95.4032 60.5583 95.06 62.0743Z" fill="black" fill-opacity="0.2"/>
</g>
<g opacity="0.2">
<path d="M157.963 75.4224C156.844 75.2402 156.13 74.1161 156.455 73.0276C157.459 69.6699 157.852 66.0271 158.076 62.6088C158.319 58.9006 157.493 55.2998 157.232 51.6401C156.799 45.5547 156.975 40.0129 158.013 34.0353C158.06 33.7645 158.883 28.2822 159.314 24.8947C159.51 23.3528 160.755 22.1577 162.302 22.0266C164.043 21.8792 165.593 23.1222 165.83 24.8562L166.281 32.9728C166.301 33.3335 166.825 33.3517 166.871 32.9933L168.639 19.2085C168.818 17.2898 170.475 15.8513 172.396 15.946C174.331 16.0412 175.839 17.6569 175.805 19.5974L174.987 33.8893C174.966 34.2514 175.488 34.3269 175.571 33.974L179.923 15.5629C180.308 13.7927 182.048 12.665 183.816 13.0402C185.416 13.3797 186.521 14.8482 186.407 16.4835L184.48 36.1038C184.445 36.4528 184.937 36.5618 185.054 36.2314L190.747 20.1427C191.237 18.7071 192.707 17.7991 194.189 18.1057C195.807 18.4405 196.832 20.0237 196.494 21.6306L191.583 43.3484C191.25 44.8168 192.996 45.8436 194.116 44.8389L197.507 41.7982C199.134 40.5425 201.464 40.8281 202.737 42.4391C204.023 44.0668 203.746 46.4329 202.117 47.7209C199.999 49.3961 197.98 51.2063 196.193 53.2359C193.684 56.0848 191.354 59.1225 189.582 62.4917C187.735 66.0037 187.191 69.1248 186.674 73.0581L186.024 78.0119C185.885 79.0718 184.898 79.8072 183.845 79.6359L157.963 75.4224Z" fill="#8C30F5"/>
<path d="M203.317 46.0604C203.087 46.6942 202.684 47.2734 202.117 47.7215C199.998 49.3956 197.98 51.2068 196.193 53.2368C193.685 56.0843 191.354 59.1224 189.583 62.4915C187.735 66.0045 187.191 69.1248 186.673 73.0584L186.023 78.0112C185.884 79.0709 184.898 79.8078 183.845 79.6352L181.618 79.2725C182.03 78.9706 182.322 78.5062 182.395 77.9582L183.062 72.8727C183.592 68.8331 184.15 65.6298 186.048 62.0246C187.866 58.5644 190.26 55.4448 192.835 52.5193C194.67 50.4372 196.742 48.5782 198.918 46.8575C199.5 46.3984 199.914 45.8031 200.151 45.1531C200.594 43.9362 200.414 42.5234 199.554 41.4354C199.448 41.3007 199.336 41.1762 199.217 41.0613C200.508 40.8587 201.869 41.3398 202.736 42.4385C203.574 43.4998 203.749 44.8742 203.317 46.0604Z" fill="black" fill-opacity="0.2"/>
<path d="M209.435 118.07C210.409 118.65 211.679 118.248 212.129 117.205C213.519 113.987 215.559 110.944 217.585 108.182C219.782 105.185 222.73 102.958 225.282 100.322C229.525 95.9383 232.953 91.58 235.999 86.3335C236.138 86.0958 239.032 81.3675 240.879 78.4956C241.72 77.1883 241.534 75.4722 240.434 74.3781C239.194 73.1458 237.208 73.1015 235.912 74.2776L230.349 80.2053C230.102 80.4687 229.688 80.1457 229.884 79.8418L237.39 68.1459C238.486 66.5608 238.142 64.3941 236.61 63.2319C235.066 62.0611 232.872 62.3291 231.651 63.8377L223.091 75.3117C222.874 75.6024 222.426 75.3249 222.589 75.0009L231.09 58.1002C231.933 56.4968 231.324 54.5143 229.729 53.6652C228.284 52.8965 226.494 53.3112 225.531 54.6374L214.395 70.9063C214.197 71.1957 213.751 70.9631 213.873 70.6346L219.854 54.6504C220.401 53.2359 219.859 51.5956 218.526 50.8777C217.072 50.0943 215.269 50.6483 214.495 52.0963L204.297 71.8901C203.608 73.2285 201.611 72.8934 201.399 71.4035L200.756 66.8946C200.317 64.887 198.348 63.6078 196.337 64.0237C194.306 64.444 192.997 66.4346 193.417 68.4683C193.963 71.1131 194.346 73.7975 194.41 76.5009C194.501 80.2958 194.333 84.1206 193.525 87.8407C192.683 91.7185 191.093 94.4591 188.961 97.8042L186.274 102.017C185.7 102.918 185.983 104.116 186.9 104.662L209.435 118.07Z" fill="#8C30F5"/>
<path d="M240.878 78.4954C239.032 81.3666 236.137 86.0956 236 86.3338C232.952 91.5793 229.525 95.9386 225.282 100.322C222.729 102.958 219.781 105.183 217.585 108.181C215.559 110.944 213.518 113.988 212.129 117.206C211.678 118.248 210.41 118.651 209.436 118.07L207.923 117.17C208.441 117.02 208.893 116.651 209.126 116.113C210.516 112.895 212.556 109.851 214.582 107.088C216.78 104.091 219.726 101.865 222.279 99.2287C226.522 94.8457 229.949 90.4863 232.997 85.2409C233.134 85.0026 236.029 80.2738 237.875 77.4025C238.67 76.1664 238.548 74.5638 237.6 73.4665C238.151 73.3766 238.718 73.4294 239.245 73.6215C239.678 73.7789 240.086 74.0316 240.433 74.3769C241.534 75.4727 241.719 77.1882 240.878 78.4954Z" fill="black" fill-opacity="0.2"/>
</g>
<g opacity="0.2">
<path d="M322.123 62.0489C321.134 61.495 320.847 60.1944 321.525 59.2829C323.617 56.471 325.232 53.1823 326.612 50.0469C328.109 46.6455 328.564 42.9791 329.571 39.451C331.245 33.5845 333.306 28.437 336.326 23.1751C336.463 22.9366 339.11 18.0662 340.674 15.0304C341.386 13.6486 342.965 12.9516 344.463 13.3573C346.15 13.8143 347.181 15.5126 346.811 17.223L344.458 25.0044C344.354 25.3502 344.84 25.5465 345.006 25.2255L351.382 12.8765C352.206 11.135 354.255 10.3498 356.028 11.0957C357.813 11.8469 358.678 13.8811 357.982 15.6929L352.326 28.8431C352.182 29.1763 352.647 29.4257 352.846 29.1225L363.232 13.3101C364.199 11.7784 366.22 11.3139 367.753 12.2712C369.141 13.1376 369.677 14.8953 369.01 16.393L360.489 34.1708C360.337 34.4871 360.762 34.7576 360.985 34.4872L371.837 21.316C372.789 20.1344 374.48 19.7839 375.768 20.579C377.174 21.4469 377.596 23.2852 376.729 24.6797L364.685 43.4079C363.871 44.6741 365.16 46.2359 366.556 45.6749L370.783 43.9773C372.741 43.3539 374.833 44.4192 375.478 46.3684C376.13 48.3378 375.06 50.4665 373.089 51.1197C370.526 51.9693 368.009 52.9799 365.636 54.2759C362.304 56.0951 359.076 58.1526 356.258 60.7125C353.321 63.3808 351.742 66.1276 349.912 69.6471L347.606 74.0797C347.113 75.028 345.934 75.3816 345.003 74.8605L322.123 62.0489Z" fill="#8C30F5"/>
<path d="M374.785 49.97C374.351 50.4866 373.775 50.8932 373.089 51.1204C370.525 51.9688 368.01 52.9806 365.636 54.2768C362.306 56.0951 359.075 58.1524 356.259 60.7125C353.321 63.3817 351.742 66.1278 349.91 69.647L347.606 74.0788C347.113 75.0271 345.934 75.3822 345.003 74.8598L343.035 73.7576C343.526 73.6147 343.958 73.2781 344.214 72.788L346.581 68.2376C348.46 64.6228 350.08 61.8035 353.097 59.0648C355.989 56.4352 359.306 54.3226 362.725 52.454C365.162 51.1251 367.745 50.0868 370.379 49.2145C371.082 48.9818 371.675 48.5642 372.12 48.0343C372.952 47.0423 373.267 45.6533 372.83 44.3367C372.777 44.1738 372.714 44.0186 372.641 43.8698C373.924 44.1212 375.039 45.0388 375.478 46.3678C375.902 47.6516 375.596 49.003 374.785 49.97Z" fill="black" fill-opacity="0.2"/>
<path d="M355.905 119.729C356.622 120.607 357.953 120.664 358.733 119.838C361.139 117.289 364.097 115.128 366.945 113.224C370.035 111.16 373.567 110.075 376.866 108.471C382.353 105.803 387.064 102.88 391.722 98.992C391.933 98.8159 396.269 95.3626 398.988 93.2957C400.225 92.3549 400.637 90.6787 399.977 89.2742C399.234 87.6923 397.383 86.9713 395.763 87.6332L388.508 91.3008C388.186 91.4638 387.908 91.0189 388.195 90.8001L399.249 82.377C400.821 81.2623 401.239 79.1085 400.196 77.4923C399.146 75.8642 396.993 75.3657 395.329 76.3657L383.361 84.2199C383.058 84.4189 382.732 84.0049 382.996 83.7562L396.764 70.7821C398.105 69.5638 398.211 67.4928 397.002 66.1491C395.908 64.9329 394.084 64.7102 392.725 65.6269L376.697 77.1061C376.412 77.3104 376.072 76.939 376.299 76.6723L387.386 63.6975C388.384 62.5555 388.436 60.8288 387.429 59.6984C386.33 58.4647 384.447 58.3687 383.224 59.4647L366.872 74.577C365.766 75.5989 364.004 74.601 364.314 73.1283L365.252 68.6714C365.526 66.6346 364.113 64.7592 362.082 64.4624C360.029 64.1626 358.119 65.5855 357.818 67.6401C357.426 70.3122 356.868 72.9657 356.004 75.528C354.791 79.125 353.325 82.6618 351.293 85.8812C349.175 89.237 346.745 91.2688 343.596 93.6827L339.631 96.7229C338.783 97.3733 338.64 98.5957 339.314 99.4217L355.905 119.729Z" fill="#8C30F5"/>
<path d="M398.987 93.2954C396.27 95.3618 391.933 98.8157 391.722 98.9924C387.064 102.879 382.353 105.804 376.866 108.471C373.566 110.076 370.034 111.158 366.945 113.223C364.097 115.127 361.138 117.29 358.732 119.838C357.952 120.664 356.622 120.608 355.906 119.729L354.792 118.366C355.329 118.403 355.881 118.211 356.284 117.784C358.69 115.236 361.649 113.073 364.497 111.169C367.588 109.105 371.118 108.021 374.418 106.417C379.905 103.75 384.616 100.825 389.274 96.9383C389.485 96.7616 393.822 93.3079 396.539 91.2413C397.709 90.3515 398.142 88.8037 397.627 87.4486C398.175 87.5526 398.689 87.7958 399.12 88.1569C399.472 88.4526 399.769 88.8297 399.978 89.273C400.637 90.6791 400.225 92.3547 398.987 93.2954Z" fill="black" fill-opacity="0.2"/>
</g>
<g opacity="0.2">
<path d="M493.6 49.0371C492.859 48.1783 493.035 46.8581 493.984 46.2335C496.911 44.3066 499.554 41.7686 501.923 39.2943C504.493 36.6099 506.174 33.3201 508.327 30.3492C511.907 25.4092 515.604 21.2769 520.241 17.3653C520.451 17.188 524.605 13.5169 527.113 11.1989C528.254 10.1438 529.976 10.029 531.245 10.9225C532.674 11.9289 533.063 13.8776 532.129 15.3581L527.258 21.8658C527.041 22.155 527.431 22.5058 527.697 22.2607L537.911 12.8372C539.282 11.4827 541.476 11.4456 542.886 12.7528C544.307 14.0695 544.424 16.2768 543.151 17.7413L533.338 28.1637C533.089 28.4278 533.44 28.821 533.731 28.6042L548.899 17.2977C550.331 16.189 552.389 16.4438 553.503 17.8678C554.51 19.1566 554.413 20.9916 553.274 22.1709L539.186 35.9621C538.936 36.2074 539.242 36.6069 539.544 36.4291L554.247 27.764C555.545 26.979 557.254 27.2282 558.193 28.4158C559.217 29.7121 558.984 31.5838 557.693 32.5977L539.971 46.0774C538.772 46.9888 539.449 48.8971 540.953 48.8476L545.505 48.6979C547.559 48.7818 549.16 50.4984 549.1 52.5507C549.039 54.6243 547.305 56.2587 545.23 56.1984C542.53 56.12 539.82 56.2091 537.147 56.6152C533.394 57.1851 529.656 58.0144 526.133 59.4561C522.46 60.959 520.037 63.0001 517.113 65.6813L513.431 69.0581C512.643 69.7805 511.414 69.7095 510.718 68.9016L493.6 49.0371Z" fill="#8C30F5"/>
<path d="M547.217 55.6977C546.633 56.0349 545.952 56.2198 545.229 56.1987C542.53 56.1191 539.82 56.2094 537.146 56.6155C533.395 57.1852 529.656 58.0137 526.133 59.4561C522.46 60.9595 520.037 63.0001 517.112 65.6805L513.431 69.0568C512.643 69.7793 511.414 69.7098 510.718 68.9007L509.246 67.1918C509.755 67.2252 510.277 67.0569 510.685 66.6839L514.466 63.2173C517.468 60.4634 519.955 58.3682 523.726 56.8263C527.343 55.3445 531.182 54.4936 535.035 53.9074C537.779 53.4919 540.561 53.3996 543.334 53.4808C544.075 53.5026 544.775 53.3131 545.374 52.9672C546.496 52.3198 547.266 51.1221 547.306 49.7356C547.312 49.5642 547.306 49.3971 547.289 49.2323C548.408 49.9074 549.142 51.1508 549.1 52.5498C549.059 53.9012 548.31 55.0666 547.217 55.6977Z" fill="black" fill-opacity="0.2"/>
<path d="M505.616 114.793C505.99 115.863 507.221 116.372 508.236 115.862C511.369 114.29 514.888 113.271 518.215 112.456C521.825 111.573 525.514 111.762 529.164 111.383C535.232 110.752 540.659 109.617 546.365 107.556C546.624 107.463 551.88 105.701 555.141 104.689C556.626 104.228 557.586 102.794 557.447 101.248C557.29 99.5076 555.796 98.1968 554.048 98.2647L545.976 99.2298C545.617 99.2727 545.508 98.7596 545.853 98.6523L559.122 94.5179C560.98 94.008 562.109 92.1269 561.682 90.2516C561.252 88.3626 559.399 87.1577 557.494 87.5284L543.562 90.8157C543.209 90.8989 543.044 90.3983 543.377 90.2549L560.752 82.7724C562.429 82.0861 563.237 80.1763 562.561 78.5002C561.948 76.9831 560.31 76.15 558.72 76.5465L539.732 81.8516C539.394 81.9459 539.202 81.4807 539.507 81.3079L554.362 72.9074C555.691 72.1758 556.33 70.5708 555.771 69.1643C555.16 67.6292 553.423 66.8948 551.899 67.5064L531.364 76.1145C529.976 76.6966 528.662 75.1563 529.457 73.8785L531.862 70.0111C532.816 68.1909 532.13 65.9455 530.323 64.9717C528.497 63.9879 526.215 64.6716 525.229 66.4993C523.947 68.8763 522.515 71.1788 520.826 73.2911C518.456 76.2562 515.869 79.0784 512.859 81.4088C509.721 83.838 506.742 84.9158 502.958 86.1074L498.193 87.6081C497.173 87.9292 496.62 89.0288 496.972 90.0358L505.616 114.793Z" fill="#8C30F5"/>
<path d="M555.141 104.688C551.881 105.701 546.624 107.463 546.365 107.557C540.659 109.616 535.232 110.753 529.164 111.383C525.513 111.762 521.825 111.571 518.216 112.455C514.888 113.27 511.368 114.291 508.235 115.862C507.22 116.371 505.989 115.864 505.617 114.793L505.037 113.131C505.529 113.35 506.113 113.358 506.638 113.095C509.77 111.523 513.29 110.503 516.618 109.688C520.228 108.806 523.916 108.994 527.566 108.615C533.634 107.985 539.061 106.849 544.768 104.789C545.026 104.695 550.283 102.933 553.543 101.921C554.946 101.485 555.883 100.178 555.863 98.7288C556.342 99.014 556.742 99.4185 557.023 99.905C557.253 100.303 557.403 100.759 557.447 101.247C557.586 102.794 556.626 104.227 555.141 104.688Z" fill="black" fill-opacity="0.2"/>
</g>
<g opacity="0.2">
<path d="M656.534 37.9574C656.132 36.8973 656.748 35.7166 657.854 35.4544C661.264 34.6448 664.615 33.1637 667.687 31.6488C671.02 30.0054 673.725 27.4889 676.764 25.4335C681.818 22.0158 686.705 19.3972 692.401 17.3077C692.659 17.2129 697.818 15.184 700.967 13.8634C702.401 13.2623 704.058 13.7434 704.945 15.017C705.944 16.4514 705.642 18.4154 704.259 19.4875L697.455 23.9366C697.153 24.1342 697.399 24.5972 697.732 24.4577L710.554 19.0961C712.306 18.2922 714.38 19.0075 715.258 20.7184C716.143 22.4417 715.498 24.5559 713.8 25.4964L701.014 31.934C700.69 32.0972 700.886 32.5867 701.233 32.4824L719.353 27.0455C721.079 26.4937 722.926 27.437 723.485 29.1559C723.991 30.7116 723.272 32.4027 721.798 33.1214L703.843 41.2624C703.524 41.4072 703.675 41.8875 704.02 41.8237L720.8 38.7099C722.288 38.4162 723.809 39.235 724.284 40.672C724.803 42.2404 723.945 43.9196 722.384 44.4306L701.12 51.036C699.683 51.4826 699.666 53.5073 701.096 53.9752L705.425 55.3914C707.326 56.1726 708.244 58.3335 707.485 60.2413C706.718 62.1689 704.531 63.112 702.601 62.3455C700.091 61.3485 697.514 60.5053 694.863 59.9725C691.141 59.2245 687.346 58.7254 683.542 58.8752C679.576 59.0313 676.601 60.1206 672.937 61.64L668.322 63.5537C667.334 63.9631 666.204 63.4762 665.826 62.4788L656.534 37.9574Z" fill="#8C30F5"/>
<path d="M704.639 62.5546C703.975 62.6717 703.272 62.6126 702.601 62.3457C700.091 61.3477 697.514 60.5057 694.862 59.9727C691.142 59.2251 687.345 58.7247 683.542 58.8755C679.576 59.0318 676.602 60.1208 672.936 61.639L668.322 63.5525C667.335 63.9621 666.203 63.4764 665.826 62.4781L665.027 60.3687C665.495 60.5744 666.042 60.5946 666.553 60.3838L671.291 58.4192C675.055 56.8582 678.108 55.7398 682.179 55.5807C686.085 55.4254 689.984 55.939 693.804 56.7057C696.525 57.2538 699.171 58.1187 701.749 59.1435C702.438 59.4173 703.16 59.4787 703.842 59.3586C705.117 59.1337 706.251 58.2719 706.763 56.9827C706.826 56.8235 706.878 56.6645 706.918 56.5037C707.739 57.521 708.003 58.9403 707.485 60.2405C706.985 61.4966 705.882 62.3354 704.639 62.5546Z" fill="black" fill-opacity="0.2"/>
<path d="M645.336 103.858C645.321 104.991 646.304 105.89 647.432 105.758C650.913 105.353 654.569 105.599 657.974 105.971C661.668 106.376 665.071 107.815 668.63 108.707C674.547 110.19 680.036 110.98 686.103 110.995C686.378 110.996 691.919 111.138 695.33 111.302C696.883 111.376 698.276 110.357 698.673 108.857C699.121 107.168 698.166 105.425 696.499 104.891L688.584 103.037C688.233 102.955 688.306 102.436 688.667 102.453L702.549 103.106C704.47 103.262 706.174 101.881 706.414 99.9724C706.656 98.0503 705.327 96.2842 703.41 95.9811L689.193 94.3048C688.833 94.2623 688.849 93.7354 689.212 93.7146L708.098 92.6262C709.908 92.5546 711.321 91.0365 711.259 89.2301C711.202 87.595 709.948 86.2519 708.318 86.0805L688.661 84.5715C688.311 84.5447 688.289 84.0416 688.635 83.9836L705.468 81.1706C706.967 80.9376 708.116 79.6479 708.072 78.1349C708.023 76.4836 706.642 75.1994 705.001 75.2529L682.76 76.3185C681.256 76.3906 680.548 74.4937 681.732 73.5649L685.315 70.7535C686.834 69.3693 686.958 67.0248 685.592 65.4915C684.213 63.9424 681.834 63.8044 680.283 65.1847C678.266 66.98 676.132 68.6538 673.823 70.0612C670.582 72.0369 667.186 73.8041 663.56 74.9644C659.781 76.1739 656.612 76.1678 652.649 75.9933L647.658 75.7736C646.59 75.7266 645.694 76.5708 645.68 77.6373L645.336 103.858Z" fill="#8C30F5"/>
<path d="M695.33 111.301C691.92 111.137 686.378 110.995 686.102 110.995C680.036 110.978 674.547 110.19 668.63 108.707C665.07 107.815 661.669 106.374 657.975 105.97C654.569 105.598 650.913 105.353 647.431 105.758C646.303 105.889 645.32 104.992 645.336 103.858L645.36 102.098C645.748 102.472 646.293 102.679 646.876 102.611C650.358 102.206 654.014 102.451 657.42 102.823C661.114 103.229 664.515 104.667 668.075 105.56C673.992 107.043 679.481 107.831 685.547 107.848C685.823 107.848 691.365 107.99 694.775 108.154C696.243 108.224 697.569 107.317 698.046 105.948C698.399 106.38 698.637 106.897 698.734 107.45C698.814 107.903 698.799 108.383 698.674 108.856C698.275 110.357 696.883 111.376 695.33 111.301Z" fill="black" fill-opacity="0.2"/>
</g>
<g opacity="0.2">
<path d="M812.619 30.1447C812.604 29.0111 813.587 28.1124 814.716 28.2441C818.197 28.6496 821.853 28.4039 825.258 28.0313C828.952 27.6269 832.355 26.1873 835.913 25.2953C841.831 23.8122 847.319 23.023 853.386 23.0077C853.661 23.0069 859.203 22.8648 862.614 22.7009C864.167 22.6263 865.56 23.6454 865.957 25.1454C866.405 26.8348 865.45 28.5773 863.783 29.1116L855.868 30.9654C855.517 31.0477 855.59 31.5671 855.951 31.5499L869.833 30.897C871.754 30.7406 873.458 32.1221 873.698 34.0302C873.941 35.9523 872.611 37.7184 870.694 38.0215L856.478 39.6978C856.117 39.7403 856.134 40.2672 856.496 40.288L875.383 41.3765C877.193 41.4481 878.606 42.9662 878.543 44.7726C878.487 46.4076 877.232 47.7507 875.602 47.9222L855.945 49.4311C855.596 49.4579 855.574 49.9611 855.919 50.019L872.752 52.832C874.251 53.065 875.4 54.3547 875.356 55.8677C875.307 57.519 873.926 58.8033 872.285 58.7497L850.044 57.6841C848.54 57.612 847.832 59.5089 849.016 60.4378L852.599 63.2492C854.119 64.6333 854.242 66.9779 852.877 68.5111C851.497 70.0602 849.119 70.1983 847.567 68.8179C845.55 67.0226 843.416 65.3488 841.107 63.9414C837.866 61.9657 834.47 60.1985 830.844 59.0382C827.065 57.8287 823.897 57.8348 819.933 58.0093L814.942 58.229C813.874 58.276 812.978 57.4318 812.964 56.3653L812.619 30.1447Z" fill="#8C30F5"/>
<path d="M849.411 69.7114C848.747 69.5943 848.106 69.2984 847.567 68.8179C845.55 67.0219 843.416 65.3491 841.107 63.9412C837.867 61.9665 834.47 60.1977 830.845 59.0386C827.064 57.8289 823.897 57.835 819.933 58.008L814.943 58.2279C813.875 58.2751 812.978 57.4318 812.965 56.3648L812.935 54.1093C813.304 54.4625 813.812 54.6688 814.365 54.6454L819.489 54.4199C823.559 54.2401 826.811 54.2334 830.69 55.4763C834.414 56.6662 837.902 58.4823 841.23 60.5096C843.599 61.9551 845.79 63.6728 847.862 65.5177C848.415 66.0104 849.073 66.3153 849.755 66.4354C851.03 66.6603 852.39 66.2382 853.312 65.2018C853.426 65.0741 853.53 64.9424 853.622 64.805C854.046 66.0418 853.808 67.4657 852.877 68.5104C851.977 69.5196 850.654 69.9306 849.411 69.7114Z" fill="black" fill-opacity="0.2"/>
<path d="M779.557 88.2406C779.156 89.3008 779.772 90.4814 780.877 90.7437C784.287 91.5533 787.638 93.0344 790.711 94.5492C794.044 96.1927 796.749 98.7092 799.788 100.765C804.842 104.182 809.729 106.801 815.425 108.89C815.683 108.985 820.842 111.014 823.991 112.335C825.424 112.936 827.082 112.455 827.969 111.181C828.967 109.747 828.666 107.783 827.282 106.711L820.479 102.261C820.176 102.064 820.423 101.601 820.756 101.74L833.578 107.102C835.329 107.906 837.403 107.19 838.281 105.48C839.166 103.756 838.521 101.642 836.824 100.702L824.038 94.264C823.714 94.1008 823.909 93.6113 824.257 93.7155L842.377 99.1524C844.102 99.7042 845.949 98.7609 846.508 97.0421C847.014 95.4863 846.295 93.7953 844.822 93.0766L826.866 84.9355C826.547 84.7907 826.698 84.3104 827.043 84.3743L843.823 87.4881C845.311 87.7818 846.832 86.963 847.308 85.526C847.827 83.9576 846.968 82.2784 845.408 81.7674L824.144 75.162C822.706 74.7154 822.689 72.6907 824.12 72.2228L828.448 70.8066C830.349 70.0254 831.267 67.8645 830.508 65.9567C829.742 64.0291 827.554 63.086 825.624 63.8525C823.114 64.8495 820.537 65.6927 817.886 66.2255C814.165 66.9735 810.369 67.4726 806.565 67.3228C802.6 67.1667 799.625 66.0774 795.96 64.558L791.345 62.6443C790.357 62.2349 789.227 62.7218 788.849 63.7192L779.557 88.2406Z" fill="#8C30F5"/>
<path d="M823.991 112.334C820.843 111.014 815.683 108.985 815.425 108.891C809.73 106.8 804.841 104.183 799.788 100.765C796.748 98.7087 794.045 96.1919 790.712 94.5492C787.639 93.0341 784.287 91.5534 780.877 90.7438C779.772 90.4809 779.155 89.3014 779.558 88.2415L780.182 86.5958C780.419 87.0794 780.861 87.4609 781.432 87.5967C784.842 88.4063 788.194 89.8871 791.267 91.4022C794.6 93.0469 797.303 95.5617 800.343 97.6179C805.396 101.036 810.284 103.653 815.979 105.744C816.238 105.838 821.397 107.867 824.546 109.187C825.901 109.755 827.458 109.356 828.374 108.233C828.558 108.76 828.605 109.327 828.507 109.88C828.427 110.333 828.249 110.779 827.97 111.181C827.082 112.455 825.424 112.936 823.991 112.334Z" fill="black" fill-opacity="0.2"/>
</g>
<g opacity="0.2">
<path d="M980.898 26.5424C981.271 25.4721 982.502 24.9638 983.518 25.4735C986.65 27.0451 990.169 28.0646 993.497 28.8791C997.106 29.7626 1000.8 29.5735 1004.45 29.9526C1010.51 30.5829 1015.94 31.7184 1021.65 33.779C1021.91 33.8723 1027.16 35.6341 1030.42 36.6467C1031.91 37.1076 1032.87 38.5417 1032.73 40.0873C1032.57 41.8279 1031.08 43.1386 1029.33 43.0707L1021.26 42.1057C1020.9 42.0628 1020.79 42.5758 1021.14 42.6831L1034.4 46.8176C1036.26 47.3275 1037.39 49.2086 1036.96 51.0839C1036.53 52.9729 1034.68 54.1779 1032.78 53.8071L1018.84 50.5198C1018.49 50.4366 1018.33 50.9372 1018.66 51.0806L1036.03 58.5632C1037.71 59.2496 1038.52 61.1593 1037.84 62.8354C1037.23 64.3526 1035.59 65.1857 1034 64.7891L1015.01 59.4841C1014.68 59.3897 1014.48 59.855 1014.79 60.0276L1029.64 68.4282C1030.97 69.1597 1031.61 70.7648 1031.05 72.1713C1030.44 73.7063 1028.71 74.4408 1027.18 73.8292L1006.65 65.221C1005.26 64.6389 1003.94 66.1793 1004.74 67.457L1007.14 71.3245C1008.1 73.1447 1007.41 75.3901 1005.6 76.3638C1003.78 77.3476 1001.5 76.6639 1000.51 74.8362C999.229 72.4592 997.797 70.1567 996.108 68.0445C993.738 65.0793 991.151 62.2571 988.141 59.9267C985.003 57.4976 982.024 56.4197 978.24 55.2281L973.475 53.7274C972.455 53.4063 971.902 52.3067 972.254 51.2997L980.898 26.5424Z" fill="#8C30F5"/>
<path d="M1001.94 76.3064C1001.35 75.9692 1000.85 75.4721 1000.51 74.836C999.23 72.4585 997.796 70.1568 996.108 68.0439C993.739 65.0802 991.152 62.2562 988.141 59.9271C985.003 57.4974 982.024 56.4198 978.24 55.2267L973.475 53.7265C972.456 53.4057 971.902 52.3065 972.254 51.2994L972.998 49.1698C973.224 49.6279 973.631 49.9955 974.158 50.1624L979.05 51.703C982.936 52.9263 985.994 54.032 989.215 56.527C992.307 58.9186 994.963 61.8181 997.397 64.8614C999.129 67.03 1000.6 69.3933 1001.92 71.8359C1002.27 72.488 1002.78 72.9997 1003.38 73.3455C1004.5 73.993 1005.93 74.0616 1007.15 73.4031C1007.3 73.3221 1007.44 73.2337 1007.57 73.1361C1007.55 74.4433 1006.84 75.7001 1005.61 76.3633C1004.41 77.0038 1003.03 76.9376 1001.94 76.3064Z" fill="black" fill-opacity="0.2"/>
<path d="M929.959 69.8271C929.219 70.6859 929.395 72.0061 930.344 72.6307C933.271 74.5577 935.914 77.0956 938.283 79.57C940.853 82.2543 942.534 85.5441 944.687 88.5151C948.267 93.455 951.963 97.5873 956.601 101.499C956.811 101.676 960.965 105.347 963.473 107.665C964.614 108.72 966.336 108.835 967.605 107.942C969.034 106.935 969.422 104.987 968.489 103.506L963.618 96.9983C963.401 96.7091 963.791 96.3583 964.056 96.6034L974.271 106.027C975.642 107.381 977.835 107.418 979.246 106.111C980.667 104.795 980.784 102.587 979.51 101.123L969.697 90.7003C969.449 90.4362 969.8 90.043 970.09 90.2598L985.258 101.566C986.691 102.675 988.749 102.42 989.862 100.996C990.87 99.7074 990.772 97.8723 989.634 96.693L975.546 82.9019C975.295 82.6566 975.602 82.257 975.904 82.4349L990.607 91.1C991.905 91.885 993.614 91.6358 994.552 90.4482C995.577 89.1519 995.344 87.2803 994.052 86.2663L976.33 72.7866C975.132 71.8752 975.809 69.9669 977.313 70.0165L981.865 70.1661C983.918 70.0822 985.52 68.3656 985.459 66.3133C985.398 64.2398 983.665 62.6053 981.589 62.6656C978.89 62.744 976.18 62.6549 973.506 62.2488C969.753 61.6789 966.016 60.8496 962.493 59.4079C958.82 57.9051 956.397 55.8639 953.473 53.1828L949.791 49.8059C949.003 49.0835 947.774 49.1545 947.078 49.9624L929.959 69.8271Z" fill="#8C30F5"/>
<path d="M963.473 107.665C960.966 105.347 956.811 101.676 956.601 101.499C951.964 97.5868 948.266 93.4552 944.687 88.5152C942.533 85.5432 940.854 82.2537 938.284 79.57C935.914 77.0952 933.271 74.5573 930.343 72.6302C929.395 72.0053 929.218 70.6859 929.96 69.8279L931.109 68.4948C931.166 69.0301 931.451 69.5399 931.941 69.8627C934.868 71.7898 937.512 74.3277 939.881 76.8025C942.451 79.488 944.131 82.7758 946.284 85.7477C949.864 90.6877 953.562 94.8193 958.199 98.7315C958.409 98.9086 962.564 102.58 965.071 104.897C966.15 105.894 967.75 106.052 968.995 105.31C968.987 105.868 968.837 106.417 968.556 106.903C968.326 107.301 968.007 107.659 967.606 107.942C966.336 108.835 964.614 108.72 963.473 107.665Z" fill="black" fill-opacity="0.2"/>
</g>
<g opacity="0.2">
<path d="M1162.42 27.5849C1163.13 26.7069 1164.47 26.6503 1165.24 27.4765C1167.65 30.0247 1170.61 32.1863 1173.46 34.0898C1176.55 36.1546 1180.08 37.2389 1183.38 38.8432C1188.87 41.5109 1193.58 44.4341 1198.23 48.3221C1198.45 48.4983 1202.78 51.9516 1205.5 54.0185C1206.74 54.9593 1207.15 56.6355 1206.49 58.0401C1205.75 59.622 1203.9 60.343 1202.28 59.6811L1195.02 56.0135C1194.7 55.8505 1194.42 56.2954 1194.71 56.5142L1205.76 64.9375C1207.33 66.0522 1207.75 68.206 1206.71 69.8222C1205.66 71.4503 1203.51 71.9488 1201.84 70.9488L1189.87 63.0945C1189.57 62.8956 1189.24 63.3096 1189.51 63.5583L1203.28 76.5324C1204.62 77.7508 1204.72 79.8218 1203.52 81.1655C1202.42 82.3817 1200.6 82.6044 1199.24 81.6877L1183.21 70.2085C1182.92 70.0042 1182.58 70.3755 1182.81 70.6421L1193.9 83.617C1194.9 84.7589 1194.95 86.4857 1193.94 87.616C1192.84 88.8497 1190.96 88.9457 1189.74 87.8498L1173.38 72.7374C1172.28 71.7156 1170.52 72.7135 1170.83 74.1861L1171.76 78.6431C1172.04 80.6798 1170.63 82.5552 1168.59 82.8521C1166.54 83.1519 1164.63 81.7289 1164.33 79.6743C1163.94 77.0022 1163.38 74.3488 1162.52 71.7864C1161.3 68.1895 1159.84 64.6527 1157.81 61.4333C1155.69 58.0774 1153.26 56.0456 1150.11 53.6317L1146.14 50.5916C1145.3 49.9412 1145.15 48.7188 1145.83 47.8927L1162.42 27.5849Z" fill="#8C30F5"/>
<path d="M1165.17 81.5439C1164.73 81.0273 1164.43 80.389 1164.33 79.674C1163.94 77.0019 1163.38 74.3487 1162.52 71.7857C1161.3 68.1905 1159.84 64.6521 1157.81 61.4338C1155.69 58.0771 1153.26 56.0458 1150.11 53.6305L1146.15 50.5912C1145.3 49.941 1145.15 48.7185 1145.83 47.8928L1147.26 46.146C1147.31 46.6537 1147.57 47.1382 1148.01 47.4754L1152.08 50.5963C1155.31 53.0749 1157.8 55.1598 1159.98 58.6059C1162.06 61.9108 1163.57 65.544 1164.82 69.2362C1165.7 71.8664 1166.28 74.5903 1166.68 77.3358C1166.78 78.0687 1167.09 78.7254 1167.54 79.2553C1168.37 80.2473 1169.68 80.7983 1171.06 80.597C1171.22 80.5726 1171.39 80.5381 1171.55 80.4923C1171.08 81.7121 1169.98 82.6503 1168.6 82.8519C1167.26 83.0465 1165.98 82.511 1165.17 81.5439Z" fill="black" fill-opacity="0.2"/>
<path d="M1099.75 50.8369C1098.76 51.3908 1098.47 52.6914 1099.15 53.6029C1101.24 56.4148 1102.86 59.7035 1104.24 62.8389C1105.73 66.2403 1106.19 69.9067 1107.19 73.4348C1108.87 79.3013 1110.93 84.4488 1113.95 89.7107C1114.09 89.9492 1116.73 94.8196 1118.3 97.8554C1119.01 99.2372 1120.59 99.9342 1122.09 99.5284C1123.77 99.0714 1124.8 97.3731 1124.43 95.6627L1122.08 87.8812C1121.98 87.5355 1122.46 87.3392 1122.63 87.6602L1129.01 100.009C1129.83 101.751 1131.88 102.536 1133.65 101.79C1135.44 101.039 1136.3 99.0044 1135.61 97.1926L1129.95 84.0424C1129.81 83.7092 1130.27 83.4598 1130.47 83.763L1140.86 99.5753C1141.82 101.107 1143.84 101.572 1145.38 100.614C1146.76 99.7478 1147.3 97.99 1146.63 96.4924L1138.11 78.7146C1137.96 78.3983 1138.39 78.1277 1138.61 78.3983L1149.46 91.5695C1150.41 92.7511 1152.1 93.1016 1153.39 92.3065C1154.8 91.4387 1155.22 89.6004 1154.35 88.2058L1142.31 69.4777C1141.49 68.2114 1142.78 66.6496 1144.18 67.2106L1148.41 68.9082C1150.36 69.5317 1152.46 68.4663 1153.1 66.5171C1153.75 64.5477 1152.68 62.4191 1150.71 61.7658C1148.15 60.9162 1145.63 59.9056 1143.26 58.6096C1139.93 56.7905 1136.7 54.7329 1133.88 52.173C1130.94 49.5047 1129.37 46.7579 1127.54 43.2385L1125.23 38.8058C1124.74 37.8575 1123.56 37.504 1122.63 38.025L1099.75 50.8369Z" fill="#8C30F5"/>
<path d="M1118.3 97.8552C1116.73 94.8203 1114.09 89.9494 1113.95 89.711C1110.93 84.4489 1108.87 79.3016 1107.19 73.4353C1106.19 69.906 1105.73 66.2405 1104.24 62.8395C1102.86 59.7036 1101.24 56.4146 1099.15 53.6025C1098.47 52.6909 1098.76 51.3907 1099.75 50.8382L1101.28 49.9784C1101.15 50.5009 1101.25 51.0773 1101.6 51.5484C1103.69 54.3605 1105.3 57.6495 1106.68 60.7855C1108.18 64.1877 1108.64 67.852 1109.64 71.3812C1111.32 77.2475 1113.38 82.3948 1116.4 87.6569C1116.53 87.8953 1119.18 92.7661 1120.75 95.8011C1121.42 97.1073 1122.87 97.8025 1124.29 97.5309C1124.09 98.0529 1123.77 98.517 1123.34 98.8781C1122.98 99.1738 1122.56 99.4008 1122.09 99.5291C1120.59 99.9342 1119.01 99.2372 1118.3 97.8552Z" fill="black" fill-opacity="0.2"/>
</g>
<g opacity="0.2">
<path d="M1340.11 33.1461C1341.08 32.5663 1342.35 32.9683 1342.8 34.0115C1344.19 37.2289 1346.23 40.2719 1348.26 43.0347C1350.46 46.0318 1353.4 48.2585 1355.96 50.8947C1360.2 55.2781 1363.63 59.6363 1366.67 64.8829C1366.81 65.1206 1369.71 69.8488 1371.55 72.7208C1372.39 74.028 1372.21 75.7441 1371.11 76.8384C1369.87 78.0708 1367.88 78.115 1366.59 76.9389L1361.02 71.0112C1360.78 70.7478 1360.36 71.0708 1360.56 71.3747L1368.06 83.0708C1369.16 84.6559 1368.82 86.8226 1367.28 87.9848C1365.74 89.1556 1363.55 88.8875 1362.32 87.3789L1353.76 75.905C1353.55 75.6143 1353.1 75.8918 1353.26 76.2158L1361.76 93.1167C1362.61 94.72 1362 96.7026 1360.4 97.5517C1358.96 98.3204 1357.17 97.9057 1356.2 96.5795L1345.07 80.3106C1344.87 80.0212 1344.42 80.2537 1344.55 80.5821L1350.53 96.5663C1351.08 97.9808 1350.53 99.6211 1349.2 100.339C1347.75 101.122 1345.94 100.568 1345.17 99.1204L1334.97 79.3266C1334.28 77.9882 1332.29 78.3233 1332.07 79.8132L1331.43 84.3221C1330.99 86.3297 1329.02 87.6089 1327.01 87.193C1324.98 86.7727 1323.67 84.7821 1324.09 82.7484C1324.64 80.1036 1325.02 77.4192 1325.08 74.7158C1325.17 70.9209 1325.01 67.0961 1324.2 63.376C1323.36 59.4982 1321.77 56.7576 1319.63 53.4125L1316.95 49.1996C1316.37 48.2983 1316.66 47.1005 1317.57 46.5551L1340.11 33.1461Z" fill="#8C30F5"/>
<path d="M1324.24 84.7917C1324.01 84.158 1323.94 83.4555 1324.09 82.7478C1324.64 80.1033 1325.02 77.4188 1325.08 74.7148C1325.17 70.9217 1325.01 67.0955 1324.2 63.3763C1323.36 59.4975 1321.77 56.7575 1319.64 53.4113L1316.95 49.1994C1316.37 48.2983 1316.66 47.0999 1317.57 46.5552L1319.51 45.4019C1319.39 45.898 1319.47 46.441 1319.76 46.9077L1322.52 51.2326C1324.71 54.6677 1326.34 57.4802 1327.21 61.4617C1328.04 65.2813 1328.21 69.21 1328.12 73.1058C1328.05 75.8803 1327.66 78.6362 1327.1 81.3535C1326.95 82.0789 1327.01 82.8014 1327.25 83.4514C1327.69 84.6682 1328.74 85.6352 1330.09 85.9155C1330.26 85.9505 1330.43 85.9741 1330.59 85.9855C1329.73 86.9709 1328.38 87.4772 1327.01 87.1929C1325.69 86.9183 1324.67 85.978 1324.24 84.7917Z" fill="black" fill-opacity="0.2"/>
<path d="M1273.27 33.5616C1272.15 33.7438 1271.43 34.8679 1271.76 35.9564C1272.76 39.3141 1273.15 42.9569 1273.38 46.3751C1273.62 50.0834 1272.8 53.6842 1272.53 57.3439C1272.1 63.4293 1272.28 68.9711 1273.32 74.9487C1273.36 75.2195 1274.19 80.7018 1274.62 84.0893C1274.81 85.6312 1276.06 86.8263 1277.6 86.9572C1279.35 87.1046 1280.9 85.8616 1281.13 84.1276L1281.58 76.011C1281.6 75.6503 1282.13 75.6322 1282.17 75.9905L1283.94 89.7752C1284.12 91.6938 1285.78 93.1323 1287.7 93.0377C1289.63 92.9424 1291.14 91.3267 1291.11 89.3862L1290.29 75.0943C1290.27 74.7322 1290.79 74.6567 1290.87 75.0097L1295.23 93.4206C1295.61 95.1907 1297.35 96.3185 1299.12 95.9433C1300.72 95.6037 1301.82 94.1353 1301.71 92.5L1299.78 72.8797C1299.75 72.5307 1300.24 72.4217 1300.36 72.7522L1306.05 88.8409C1306.54 90.2766 1308.01 91.1845 1309.49 90.8779C1311.11 90.5432 1312.13 88.9599 1311.8 87.353L1306.89 65.6353C1306.55 64.1668 1308.3 63.14 1309.42 64.1448L1312.81 67.1855C1314.44 68.4411 1316.77 68.1556 1318.04 66.5445C1319.33 64.9168 1319.05 62.5507 1317.42 61.2627C1315.3 59.5876 1313.28 57.7773 1311.5 55.7478C1308.99 52.8988 1306.66 49.8611 1304.88 46.4919C1303.04 42.98 1302.49 39.8589 1301.98 35.9255L1301.33 30.9717C1301.19 29.9119 1300.2 29.1764 1299.15 29.3477L1273.27 33.5616Z" fill="#8C30F5"/>
<path d="M1274.62 84.0888C1274.19 80.7023 1273.36 75.2193 1273.32 74.9483C1272.28 68.971 1272.1 63.4289 1272.53 57.3438C1272.8 53.6829 1273.62 50.0836 1273.38 46.3756C1273.16 42.9567 1272.76 39.3133 1271.76 35.9554C1271.43 34.8671 1272.15 33.7429 1273.27 33.5624L1275 33.2797C1274.7 33.7264 1274.59 34.3 1274.76 34.8624C1275.76 38.2203 1276.16 41.8637 1276.38 45.2826C1276.62 48.9913 1275.8 52.5902 1275.54 56.2508C1275.1 62.336 1275.28 67.8781 1276.32 73.8553C1276.37 74.1264 1277.19 79.6091 1277.62 82.9958C1277.81 84.4535 1278.93 85.6024 1280.36 85.8342C1280 86.2571 1279.53 86.5807 1279 86.7729C1278.57 86.9302 1278.09 86.9988 1277.6 86.9577C1276.06 86.8257 1274.81 85.6308 1274.62 84.0888Z" fill="black" fill-opacity="0.2"/>
</g>
<g opacity="0.2">
<path d="M1497.37 42.5551C1498.48 42.3435 1499.53 43.1556 1499.6 44.2898C1499.81 47.7884 1500.68 51.3458 1501.64 54.6346C1502.68 58.2025 1504.69 61.3032 1506.19 64.6532C1508.67 70.2235 1510.4 75.4912 1511.47 81.4635C1511.52 81.7341 1512.62 87.167 1513.38 90.4976C1513.72 92.0136 1512.96 93.5626 1511.55 94.2146C1509.96 94.9488 1508.08 94.3109 1507.27 92.7625L1504.07 85.2896C1503.93 84.9576 1503.43 85.1198 1503.51 85.4722L1506.56 99.0303C1507.05 100.895 1505.98 102.813 1504.15 103.381C1502.29 103.953 1500.32 102.951 1499.69 101.116L1495.57 87.4059C1495.47 87.0586 1494.95 87.166 1495 87.5262L1497.2 106.315C1497.45 108.11 1496.2 109.765 1494.41 110.017C1492.79 110.246 1491.25 109.244 1490.79 107.668L1485.9 88.5718C1485.81 88.2321 1485.31 88.2978 1485.31 88.6483L1485.46 105.714C1485.5 107.231 1484.42 108.586 1482.93 108.805C1481.29 109.044 1479.79 107.907 1479.56 106.281L1476.74 84.1934C1476.55 82.6999 1474.56 82.3319 1473.85 83.6593L1471.71 87.6763C1470.61 89.4127 1468.32 89.9414 1466.57 88.8629C1464.81 87.7732 1464.26 85.455 1465.35 83.6876C1466.77 81.389 1468.04 78.9974 1469.03 76.4791C1470.41 72.944 1471.56 69.2925 1472.08 65.5203C1472.61 61.5884 1472.05 58.4694 1471.19 54.5966L1470.11 49.7191C1469.88 48.6756 1470.56 47.647 1471.6 47.4479L1497.37 42.5551Z" fill="#8C30F5"/>
<path d="M1464.79 85.6585C1464.79 84.9841 1464.97 84.302 1465.35 83.6871C1466.77 81.3892 1468.04 78.9971 1469.03 76.4782C1470.41 72.9448 1471.56 69.2924 1472.08 65.5208C1472.61 61.5877 1472.05 58.4694 1471.2 54.596L1470.11 49.7196C1469.88 48.6762 1470.55 47.6465 1471.6 47.4485L1473.82 47.0278C1473.54 47.4524 1473.42 47.9884 1473.54 48.5283L1474.65 53.5355C1475.54 57.5127 1476.11 60.7137 1475.56 64.7505C1475.03 68.6239 1473.85 72.3743 1472.43 76.0038C1471.42 78.5879 1470.11 81.0435 1468.65 83.4049C1468.26 84.0352 1468.07 84.7364 1468.07 85.4281C1468.07 86.723 1468.73 87.9893 1469.91 88.7173C1470.05 88.8076 1470.2 88.8864 1470.35 88.9537C1469.21 89.5858 1467.76 89.5992 1466.57 88.8633C1465.42 88.1524 1464.79 86.9208 1464.79 85.6585Z" fill="black" fill-opacity="0.2"/>
<path d="M1434.41 20.0835C1433.3 19.8719 1432.24 20.6839 1432.17 21.8182C1431.97 25.3167 1431.09 28.8742 1430.13 32.163C1429.1 35.7309 1427.09 38.8316 1425.59 42.1816C1423.1 47.7519 1421.37 53.0196 1420.3 58.9919C1420.25 59.2625 1419.15 64.6954 1418.4 68.0259C1418.06 69.542 1418.82 71.0909 1420.23 71.7428C1421.81 72.477 1423.69 71.8391 1424.51 70.2907L1427.71 62.8178C1427.85 62.4858 1428.35 62.648 1428.27 63.0004L1425.22 76.5583C1424.73 78.4226 1425.79 80.3409 1427.63 80.9089C1429.48 81.4812 1431.45 80.4789 1432.08 78.6436L1436.2 64.9339C1436.31 64.5866 1436.82 64.6941 1436.78 65.0543L1434.57 83.8432C1434.33 85.6382 1435.58 87.2931 1437.37 87.5453C1438.99 87.7736 1440.53 86.7717 1440.98 85.1959L1445.88 66.0996C1445.97 65.7599 1446.47 65.8257 1446.46 66.1764L1446.31 83.242C1446.28 84.7586 1447.35 86.1144 1448.85 86.3332C1450.48 86.572 1451.99 85.4348 1452.22 83.8093L1455.03 61.7214C1455.22 60.228 1457.21 59.8599 1457.92 61.1873L1460.07 65.2044C1461.17 66.9407 1463.46 67.4694 1465.2 66.3909C1466.97 65.3012 1467.52 62.983 1466.43 61.2156C1465.01 58.917 1463.73 56.5255 1462.75 54.0071C1461.36 50.472 1460.21 46.8205 1459.7 43.0484C1459.17 39.1164 1459.72 35.9974 1460.58 32.1247L1461.67 27.2471C1461.9 26.2036 1461.22 25.175 1460.17 24.9759L1434.41 20.0835Z" fill="#8C30F5"/>
<path d="M1418.4 68.0258C1419.15 64.6962 1420.25 59.2625 1420.3 58.9916C1421.37 53.0201 1423.1 47.7516 1425.59 42.1817C1427.09 38.8308 1429.1 35.7317 1430.14 32.1638C1431.09 28.8744 1431.97 25.3161 1432.18 21.8173C1432.24 20.6836 1433.3 19.8711 1434.41 20.0843L1436.14 20.4128C1435.7 20.7298 1435.41 21.2314 1435.37 21.8173C1435.17 25.3161 1434.29 28.8744 1433.33 32.1638C1432.29 35.7317 1430.28 38.831 1428.79 42.1817C1426.3 47.7516 1424.57 53.0201 1423.5 58.9916C1423.45 59.2625 1422.35 64.696 1421.59 68.0258C1421.27 69.4591 1421.93 70.9232 1423.2 71.6304C1422.71 71.9032 1422.16 72.0474 1421.6 72.0474C1421.14 72.0474 1420.67 71.9494 1420.23 71.7438C1418.82 71.0904 1418.06 69.5418 1418.4 68.0258Z" fill="black" fill-opacity="0.2"/>
</g>
<g opacity="0.2">
<path d="M1650.82 54.6777C1651.94 54.8599 1652.66 55.984 1652.33 57.0725C1651.33 60.4302 1650.94 64.073 1650.71 67.4913C1650.47 71.1995 1651.3 74.8003 1651.56 78.46C1651.99 84.5454 1651.81 90.0872 1650.77 96.0648C1650.73 96.3356 1649.91 101.818 1649.47 105.205C1649.28 106.747 1648.03 107.942 1646.49 108.073C1644.74 108.221 1643.19 106.978 1642.96 105.244L1642.51 97.1273C1642.49 96.7666 1641.96 96.7484 1641.92 97.1068L1640.15 110.892C1639.97 112.81 1638.31 114.249 1636.39 114.154C1634.46 114.059 1632.95 112.443 1632.98 110.503L1633.8 96.2108C1633.82 95.8487 1633.3 95.7732 1633.22 96.1261L1628.87 114.537C1628.48 116.307 1626.74 117.435 1624.97 117.06C1623.37 116.72 1622.27 115.252 1622.38 113.617L1624.31 93.9963C1624.34 93.6473 1623.85 93.5383 1623.73 93.8687L1618.04 109.957C1617.55 111.393 1616.08 112.301 1614.6 111.994C1612.98 111.66 1611.96 110.076 1612.29 108.469L1617.21 86.7517C1617.54 85.2833 1615.79 84.2565 1614.67 85.2612L1611.28 88.3019C1609.65 89.5576 1607.32 89.272 1606.05 87.661C1604.76 86.0333 1605.04 83.6672 1606.67 82.3792C1608.79 80.704 1610.81 78.8938 1612.59 76.8642C1615.1 74.0153 1617.43 70.9776 1619.21 67.6084C1621.05 64.0964 1621.6 60.9753 1622.11 57.042L1622.76 52.0882C1622.9 51.0283 1623.89 50.2929 1624.94 50.4642L1650.82 54.6777Z" fill="#8C30F5"/>
<path d="M1605.47 84.0396C1605.7 83.4059 1606.1 82.8267 1606.67 82.3786C1608.79 80.7045 1610.81 78.8933 1612.6 76.8633C1615.1 74.0158 1617.43 70.9777 1619.21 67.6086C1621.05 64.0956 1621.6 60.9753 1622.11 57.0417L1622.76 52.0889C1622.9 51.0292 1623.89 50.2923 1624.94 50.4649L1627.17 50.8276C1626.76 51.1295 1626.47 51.5939 1626.39 52.1419L1625.73 57.2274C1625.2 61.267 1624.64 64.4703 1622.74 68.0755C1620.92 71.5357 1618.53 74.6553 1615.95 77.5808C1614.12 79.6629 1612.05 81.5219 1609.87 83.2426C1609.29 83.7017 1608.87 84.297 1608.64 84.947C1608.19 86.1639 1608.37 87.5767 1609.23 88.6647C1609.34 88.7994 1609.45 88.9239 1609.57 89.0388C1608.28 89.2414 1606.92 88.7603 1606.05 87.6616C1605.21 86.6003 1605.04 85.2259 1605.47 84.0396Z" fill="black" fill-opacity="0.2"/>
<path d="M1599.35 12.0298C1598.38 11.4501 1597.11 11.8521 1596.66 12.8952C1595.27 16.1126 1593.23 19.1556 1591.2 21.9184C1589.01 24.9155 1586.06 27.1423 1583.51 29.7784C1579.26 34.1618 1575.84 38.5201 1572.79 43.7666C1572.65 44.0043 1569.76 48.7326 1567.91 51.6045C1567.07 52.9118 1567.25 54.6278 1568.35 55.722C1569.59 56.9543 1571.58 56.9986 1572.88 55.8225L1578.44 49.8948C1578.69 49.6314 1579.1 49.9544 1578.9 50.2583L1571.4 61.9542C1570.3 63.5393 1570.65 65.706 1572.18 66.8682C1573.72 68.039 1575.92 67.7709 1577.14 66.2624L1585.7 54.7884C1585.91 54.4977 1586.36 54.7752 1586.2 55.0992L1577.7 71.9999C1576.86 73.6033 1577.46 75.5858 1579.06 76.4349C1580.5 77.2036 1582.29 76.7889 1583.26 75.4627L1594.39 59.1938C1594.59 58.9044 1595.04 59.137 1594.91 59.4655L1588.93 75.4497C1588.39 76.8642 1588.93 78.5045 1590.26 79.2224C1591.72 80.0058 1593.52 79.4518 1594.29 78.0038L1604.49 58.21C1605.18 56.8716 1607.18 57.2067 1607.39 58.6966L1608.03 63.2055C1608.47 65.2131 1610.44 66.4923 1612.45 66.0764C1614.48 65.6561 1615.79 63.6655 1615.37 61.6318C1614.82 58.987 1614.44 56.3026 1614.38 53.5992C1614.29 49.8043 1614.45 45.9795 1615.26 42.2594C1616.11 38.3816 1617.69 35.6409 1619.83 32.2959L1622.51 28.083C1623.09 27.1817 1622.8 25.9839 1621.89 25.4385L1599.35 12.0298Z" fill="#8C30F5"/>
<path d="M1567.91 51.6047C1569.76 48.7335 1572.65 44.0045 1572.79 43.7663C1575.84 38.5208 1579.26 34.1615 1583.51 29.7785C1586.06 27.1417 1589.01 24.9167 1591.2 21.9194C1593.23 19.1561 1595.27 16.1121 1596.66 12.8945C1597.11 11.8521 1598.38 11.4492 1599.35 12.0305L1600.86 12.9306C1600.35 13.0796 1599.89 13.4487 1599.66 13.9874C1598.27 17.205 1596.23 20.2491 1594.21 23.0123C1592.01 26.009 1589.06 28.2349 1586.51 30.8714C1582.27 35.2544 1578.84 39.6138 1575.79 44.8592C1575.65 45.0975 1572.76 49.8262 1570.91 52.6976C1570.12 53.9337 1570.24 55.5363 1571.19 56.6336C1570.64 56.7235 1570.07 56.6707 1569.54 56.4786C1569.11 56.3212 1568.7 56.0685 1568.35 55.7232C1567.25 54.6274 1567.07 52.9119 1567.91 51.6047Z" fill="black" fill-opacity="0.2"/>
</g>
<g opacity="0.2">
<path d="M1817.58 68.0512C1818.57 68.6051 1818.86 69.9057 1818.18 70.8172C1816.09 73.6291 1814.48 76.9178 1813.1 80.0532C1811.6 83.4546 1811.14 87.121 1810.14 90.6491C1808.46 96.5156 1806.4 101.663 1803.38 106.925C1803.25 107.163 1800.6 112.034 1799.03 115.07C1798.32 116.452 1796.74 117.149 1795.25 116.743C1793.56 116.286 1792.53 114.588 1792.9 112.877L1795.25 105.096C1795.35 104.75 1794.87 104.554 1794.7 104.875L1788.33 117.224C1787.5 118.965 1785.45 119.75 1783.68 119.004C1781.89 118.253 1781.03 116.219 1781.73 114.407L1787.38 101.257C1787.53 100.924 1787.06 100.674 1786.86 100.978L1776.48 116.79C1775.51 118.322 1773.49 118.786 1771.95 117.829C1770.57 116.963 1770.03 115.205 1770.7 113.707L1779.22 95.9293C1779.37 95.613 1778.95 95.3425 1778.72 95.6129L1767.87 108.784C1766.92 109.966 1765.23 110.316 1763.94 109.521C1762.53 108.653 1762.11 106.815 1762.98 105.42L1775.02 86.6922C1775.84 85.426 1774.55 83.8642 1773.15 84.4252L1768.93 86.1227C1766.97 86.7462 1764.88 85.6809 1764.23 83.7317C1763.58 81.7623 1764.65 79.6336 1766.62 78.9804C1769.18 78.1308 1771.7 77.1202 1774.07 75.8242C1777.4 74.005 1780.63 71.9475 1783.45 69.3876C1786.39 66.7193 1787.97 63.9725 1789.8 60.453L1792.1 56.0204C1792.6 55.0721 1793.77 54.7185 1794.7 55.2396L1817.58 68.0512Z" fill="#8C30F5"/>
<path d="M1764.92 80.1301C1765.36 79.6135 1765.93 79.2069 1766.62 78.9797C1769.18 78.1313 1771.7 77.1195 1774.07 75.8233C1777.4 74.005 1780.63 71.9477 1783.45 69.3875C1786.39 66.7184 1787.97 63.9723 1789.8 60.4531L1792.1 56.0213C1792.6 55.073 1793.77 54.7179 1794.7 55.2402L1796.67 56.3425C1796.18 56.4854 1795.75 56.822 1795.49 57.3121L1793.13 61.8625C1791.25 65.4773 1789.63 68.2966 1786.61 71.0353C1783.72 73.6649 1780.4 75.7775 1776.98 77.646C1774.55 78.975 1771.96 80.0133 1769.33 80.8856C1768.63 81.1183 1768.03 81.5359 1767.59 82.0658C1766.76 83.0578 1766.44 84.4468 1766.88 85.7634C1766.93 85.9263 1766.99 86.0815 1767.07 86.2303C1765.78 85.9789 1764.67 85.0613 1764.23 83.7323C1763.81 82.4485 1764.11 81.0971 1764.92 80.1301Z" fill="black" fill-opacity="0.2"/>
<path d="M1783.8 10.3708C1783.09 9.49279 1781.76 9.43626 1780.98 10.2625C1778.57 12.8107 1775.61 14.9723 1772.76 16.8757C1769.67 18.9406 1766.14 20.0248 1762.84 21.6291C1757.36 24.2969 1752.64 27.22 1747.99 31.1081C1747.78 31.2842 1743.44 34.7375 1740.72 36.8044C1739.48 37.7452 1739.07 39.4214 1739.73 40.8259C1740.47 42.4078 1742.33 43.1288 1743.95 42.4669L1751.2 38.7993C1751.52 38.6363 1751.8 39.0812 1751.51 39.3L1740.46 47.7231C1738.89 48.8378 1738.47 50.9916 1739.51 52.6078C1740.56 54.2359 1742.72 54.7344 1744.38 53.7344L1756.35 45.8802C1756.65 45.6812 1756.98 46.0952 1756.71 46.3439L1742.94 59.3179C1741.6 60.5363 1741.5 62.6073 1742.71 63.951C1743.8 65.1672 1745.62 65.3899 1746.98 64.4732L1763.01 52.994C1763.3 52.7897 1763.64 53.1611 1763.41 53.4278L1752.32 66.4026C1751.32 67.5446 1751.27 69.2713 1752.28 70.4017C1753.38 71.6354 1755.26 71.7314 1756.48 70.6354L1772.84 55.5231C1773.94 54.5012 1775.7 55.4991 1775.39 56.9718L1774.46 61.4287C1774.18 63.4655 1775.59 65.3409 1777.63 65.6377C1779.68 65.9375 1781.59 64.5146 1781.89 62.46C1782.28 59.7879 1782.84 57.1344 1783.7 54.5721C1784.92 50.9751 1786.38 47.4383 1788.41 44.2189C1790.53 40.8631 1792.96 38.8313 1796.11 36.4174L1800.08 33.3772C1800.92 32.7268 1801.07 31.5044 1800.39 30.6783L1783.8 10.3708Z" fill="#8C30F5"/>
<path d="M1740.72 36.8047C1743.44 34.7383 1747.78 31.2844 1747.99 31.1077C1752.64 27.2209 1757.36 24.2965 1762.84 21.6291C1766.14 20.0245 1769.67 18.9419 1772.76 16.8766C1775.61 14.9729 1778.57 12.8102 1780.98 10.2619C1781.76 9.43656 1783.09 9.49182 1783.8 10.3711L1784.92 11.7342C1784.38 11.6973 1783.83 11.8893 1783.42 12.316C1781.02 14.8643 1778.06 17.027 1775.21 18.9307C1772.12 20.9947 1768.59 22.0788 1765.29 23.6832C1759.8 26.3505 1755.09 29.275 1750.43 33.1618C1750.22 33.3385 1745.89 36.7922 1743.17 38.8588C1742 39.7486 1741.57 41.2964 1742.08 42.6515C1741.53 42.5475 1741.02 42.3043 1740.59 41.9432C1740.24 41.6474 1739.94 41.2704 1739.73 40.8271C1739.07 39.421 1739.48 37.7454 1740.72 36.8047Z" fill="black" fill-opacity="0.2"/>
</g>
</svg>
