<svg width="90" height="30" viewBox="0 0 90 30" fill="none" xmlns="http://www.w3.org/2000/svg">
<path d="M5.37677 22.4984C5.00466 22.5689 4.65198 22.2982 4.62981 21.9201C4.56127 20.7539 4.26837 19.5681 3.94822 18.4718C3.60088 17.2825 2.92984 16.2489 2.4299 15.1323C1.59863 13.2755 1.02059 11.5196 0.663563 9.52883C0.647359 9.43863 0.279093 7.62765 0.0272916 6.51745C-0.0873104 6.01211 0.167161 5.49578 0.637613 5.27843C1.16748 5.03371 1.79617 5.24634 2.06865 5.76248L3.13775 8.25343C3.18524 8.36412 3.35187 8.31005 3.3253 8.19259L2.30512 3.6732C2.14221 3.05177 2.49788 2.41233 3.11174 2.22298C3.73007 2.0322 4.38825 2.36633 4.59921 2.97808L5.97549 7.548C6.01038 7.66378 6.18278 7.62796 6.16862 7.5079L5.43103 1.24483C5.34958 0.646488 5.76708 0.0948339 6.36505 0.0107758C6.90627 -0.0653359 7.42092 0.268661 7.57191 0.793931L9.20874 7.15937C9.23786 7.27261 9.40467 7.2507 9.40368 7.13386L9.35264 1.44529C9.34234 0.93976 9.69999 0.487808 10.2004 0.414863C10.7465 0.335275 11.2492 0.714343 11.3268 1.25619L12.2664 8.61884C12.3299 9.11667 12.9951 9.23934 13.232 8.79689L13.9491 7.45786C14.3164 6.87908 15.0806 6.70283 15.6643 7.06234C16.254 7.42558 16.4374 8.1983 16.0733 8.78746C15.5996 9.55366 15.1727 10.3508 14.8436 11.1903C14.3816 12.3687 13.9972 13.5858 13.8258 14.8432C13.6471 16.1539 13.8329 17.1936 14.1202 18.4845L14.4821 20.1103C14.5595 20.4582 14.3337 20.8011 13.9837 20.8674L5.37677 22.4984Z" fill="white"/>
<path d="M16.2606 8.13046C16.2606 8.35525 16.2004 8.58259 16.0736 8.78759C15.5997 9.55355 15.1731 10.3509 14.8439 11.1906C14.3821 12.3684 13.9972 13.5858 13.8262 14.8431C13.6475 16.1541 13.8333 17.1935 14.1201 18.4847L14.482 20.1102C14.5595 20.4579 14.3341 20.8012 13.9838 20.8672L13.2434 21.0074C13.3382 20.8659 13.3766 20.6872 13.3369 20.5072L12.9654 18.8382C12.6701 17.5124 12.4793 16.4454 12.6631 15.0998C12.8386 13.8087 13.2338 12.5585 13.7077 11.3487C14.0458 10.4873 14.4839 9.66877 14.9707 8.88164C15.1007 8.67156 15.1628 8.43782 15.1628 8.20725C15.1628 7.7756 14.945 7.35351 14.5506 7.11083C14.5019 7.08072 14.4526 7.05446 14.402 7.03205C14.7844 6.82135 15.2666 6.81688 15.6644 7.06216C16.0486 7.29913 16.2606 7.70967 16.2606 8.13046Z" fill="black" fill-opacity="0.2"/>
<path d="M26.4091 29.9889C26.7812 30.0594 27.1339 29.7887 27.156 29.4107C27.2246 28.2445 27.5175 27.0587 27.8376 25.9624C28.185 24.7731 28.856 23.7395 29.356 22.6228C30.1872 20.766 30.7653 19.0101 31.1223 17.0194C31.1385 16.9292 31.5068 15.1182 31.7586 14.008C31.8732 13.5026 31.6187 12.9863 31.1482 12.769C30.6184 12.5243 29.9897 12.7369 29.7172 13.2531L28.6481 15.744C28.6006 15.8547 28.434 15.8006 28.4606 15.6832L29.4807 11.1639C29.6436 10.5424 29.288 9.90299 28.6741 9.71364C28.0558 9.52286 27.3976 9.85699 27.1867 10.4687L25.8104 15.0387C25.7755 15.1544 25.6031 15.1186 25.6172 14.9986L26.3548 8.73555C26.4363 8.13721 26.0188 7.58556 25.4208 7.5015C24.8796 7.42539 24.3649 7.75938 24.214 8.28465L22.5771 14.6501C22.548 14.7633 22.3812 14.7414 22.3822 14.6245L22.4332 8.93595C22.4435 8.43042 22.0859 7.97847 21.5855 7.90552C21.0394 7.82593 20.5367 8.205 20.4591 8.74685L19.5194 16.1095C19.4559 16.6073 18.7907 16.73 18.5538 16.2876L17.8367 14.9485C17.4694 14.3697 16.7052 14.1935 16.1215 14.553C15.5318 14.9162 15.3484 15.689 15.7126 16.2781C16.1862 17.0443 16.6132 17.8415 16.9422 18.681C17.4043 19.8593 17.7887 21.0765 17.9601 22.3339C18.1387 23.6446 17.9529 24.6842 17.6656 25.9752L17.3037 27.601C17.2263 27.9488 17.4521 28.2917 17.8022 28.3581L26.4091 29.9889Z" fill="white"/>
<path d="M31.7578 14.008C31.5062 15.1179 31.1379 16.9291 31.1219 17.0194C30.7645 19.01 30.1868 20.7661 29.3555 22.6228C28.8553 23.7397 28.1841 24.7728 27.837 25.9621C27.5167 27.0585 27.224 28.2447 27.1555 29.4109C27.1331 29.7888 26.7808 30.0597 26.4087 29.9886L25.8311 29.8791C25.9764 29.7734 26.0763 29.6062 26.0879 29.4109C26.1564 28.2447 26.4491 27.0585 26.7694 25.9621C27.1171 24.7728 27.7877 23.7397 28.2879 22.6228C29.1192 20.7661 29.6969 19.01 30.0543 17.0194C30.0703 16.9291 30.4385 15.118 30.6902 14.008C30.7984 13.5302 30.5769 13.0422 30.1541 12.8065C30.3168 12.7155 30.5006 12.6675 30.6883 12.6675C30.842 12.6675 30.999 12.7001 31.1475 12.7687C31.6182 12.9865 31.8725 13.5027 31.7578 14.008Z" fill="black" fill-opacity="0.2"/>
<path d="M35.23 22.6069L35.7644 19.5182C36.948 19.9208 38.3213 20.1221 39.8842 20.1221C40.1141 20.1221 40.3094 20.1164 40.4703 20.1048C40.6427 20.1048 40.7749 20.0991 40.8668 20.0876V19.3629C40.2462 19.3629 39.7406 19.3514 39.3499 19.3284C38.9591 19.2939 38.6661 19.2478 38.4707 19.1903C38.08 19.0868 37.8329 18.9833 37.7295 18.8797C37.6031 18.7762 37.5284 18.6957 37.5054 18.6382C37.4824 18.5691 37.4709 18.4714 37.4709 18.3448L38.0915 16.5675C37.1032 16.3835 36.3505 16.0096 35.8333 15.4459C35.3162 14.8708 35.0576 13.9793 35.0576 12.7714C35.0576 11.575 35.4656 10.672 36.2815 10.0623C37.0974 9.45264 38.419 9.1478 40.2462 9.1478C40.5795 9.1478 40.8898 9.15931 41.1771 9.18231C41.4644 9.19382 41.7402 9.22258 42.0045 9.26859L43.8145 7.88817L45.9865 9.97605L44.7971 11.3565C44.9809 11.8281 45.0729 12.4493 45.0729 13.22C45.0729 13.7607 45.0097 14.2323 44.8832 14.635C44.7568 15.0376 44.5442 15.3769 44.2454 15.653C43.9581 15.9291 43.5789 16.1477 43.1077 16.3087C42.6366 16.4583 42.0505 16.5618 41.3495 16.6193L41.2633 17.1197C42.0103 17.1657 42.6423 17.2405 43.1595 17.344C43.6766 17.436 44.0961 17.5856 44.4178 17.7927C44.7396 17.9997 44.9694 18.2643 45.1073 18.5864C45.2567 18.9085 45.3314 19.3169 45.3314 19.8115C45.3314 20.6398 45.1648 21.284 44.8315 21.7441C44.4983 22.2042 44.0616 22.5436 43.5215 22.7621C42.9928 22.9807 42.3895 23.113 41.7115 23.159C41.0449 23.205 40.3727 23.228 39.6946 23.228C38.3271 23.228 36.8389 23.021 35.23 22.6069ZM38.9534 12.7714V14.1173H39.5912C40.0854 14.1173 40.4474 14.0655 40.6772 13.962C40.907 13.8585 41.0219 13.6226 41.0219 13.2545V11.9086H40.3669C39.8728 11.9086 39.5108 11.9604 39.2809 12.0639C39.0626 12.1675 38.9534 12.4033 38.9534 12.7714Z" fill="white"/>
<path d="M55.1326 16.4985H50.9954V6.87012H46.8583V19.8115H55.1326V16.4985Z" fill="white"/>
<path d="M55.8548 14.635C55.8548 12.7829 56.2857 11.4082 57.1476 10.511C58.0095 9.60219 59.4058 9.1478 61.3365 9.1478C63.2671 9.1478 64.6634 9.60219 65.5253 10.511C66.3872 11.4082 66.8181 12.7829 66.8181 14.635C66.8181 16.487 66.3872 17.8674 65.5253 18.7762C64.6634 19.6735 63.2671 20.1221 61.3365 20.1221C59.4518 20.1221 58.067 19.6792 57.1821 18.7935C56.2972 17.9077 55.8548 16.5215 55.8548 14.635ZM60.3022 13.0475V17.1024H60.94C61.4456 17.1024 61.8076 17.0507 62.026 16.9471C62.2558 16.8436 62.3707 16.602 62.3707 16.2224V12.1675H61.7329C61.2273 12.1675 60.8596 12.2192 60.6297 12.3228C60.4114 12.4263 60.3022 12.6679 60.3022 13.0475Z" fill="white"/>
<path d="M75.6096 19.8115L78.1953 9.4584H74.0582L72.9205 16.1879H72.7136L71.5759 9.4584H67.4388L70.0245 19.8115H75.6096Z" fill="white"/>
<path d="M83.2637 16.2915V17.0162C83.4705 17.0392 83.6774 17.0564 83.8842 17.0679C84.0911 17.0794 84.298 17.0852 84.5048 17.0852C85.7919 17.0852 87.0905 16.8781 88.4006 16.464L88.8832 19.5009C87.3318 19.915 85.8034 20.1221 84.298 20.1221C82.3673 20.1221 80.971 19.6735 80.1091 18.7762C79.2472 17.8674 78.8163 16.487 78.8163 14.635C78.8163 12.7829 79.2472 11.4082 80.1091 10.511C80.9825 9.60219 82.3788 9.1478 84.298 9.1478C85.2633 9.1478 86.0677 9.21107 86.7113 9.33761C87.3548 9.45264 87.872 9.65396 88.2627 9.94154C88.6649 10.2176 88.9465 10.5972 89.1073 11.0804C89.2797 11.552 89.3659 12.1502 89.3659 12.8749C89.3659 13.4731 89.2625 13.9908 89.0556 14.4279C88.8603 14.8535 88.527 15.2044 88.0558 15.4805C87.5847 15.7565 86.9583 15.9636 86.1769 16.1016C85.3954 16.2282 84.4244 16.2915 83.2637 16.2915ZM83.2637 13.0475V13.893H84.1083C84.614 13.893 84.976 13.8412 85.1943 13.7377C85.4242 13.6342 85.5391 13.3926 85.5391 13.013V12.1675H84.6944C84.1888 12.1675 83.821 12.2192 83.5912 12.3228C83.3729 12.4263 83.2637 12.6679 83.2637 13.0475Z" fill="white"/>
</svg>
