<svg width="80" height="81" viewBox="0 0 80 81" fill="none" xmlns="http://www.w3.org/2000/svg">
<rect y="0.89502" width="80" height="80" rx="40" fill="white"/>
<path d="M33 29.895H30C29.7348 29.895 29.4804 30.0004 29.2929 30.1879C29.1054 30.3754 29 30.6298 29 30.895V50.895C29 51.1602 29.1054 51.4146 29.2929 51.6021C29.4804 51.7897 29.7348 51.895 30 51.895H33V29.895Z" fill="#D6B1FF"/>
<path d="M35 51.895H45V29.895H35V51.895ZM40 47.895C39.7348 47.895 39.4804 47.7897 39.2929 47.6021C39.1054 47.4146 39 47.1602 39 46.895C39 46.6298 39.1054 46.3754 39.2929 46.1879C39.4804 46.0004 39.7348 45.895 40 45.895C40.2652 45.895 40.5196 46.0004 40.7071 46.1879C40.8946 46.3754 41 46.6298 41 46.895C41 47.1602 40.8946 47.4146 40.7071 47.6021C40.5196 47.7897 40.2652 47.895 40 47.895ZM40 33.895C40.2652 33.895 40.5196 34.0004 40.7071 34.1879C40.8946 34.3754 41 34.6298 41 34.895C41 35.1602 40.8946 35.4146 40.7071 35.6021C40.5196 35.7897 40.2652 35.895 40 35.895C39.7348 35.895 39.4804 35.7897 39.2929 35.6021C39.1054 35.4146 39 35.1602 39 34.895C39 34.6298 39.1054 34.3754 39.2929 34.1879C39.4804 34.0004 39.7348 33.895 40 33.895ZM40 39.895C40.2652 39.895 40.5196 40.0004 40.7071 40.1879C40.8946 40.3754 41 40.6298 41 40.895C41 41.1602 40.8946 41.4146 40.7071 41.6021C40.5196 41.7897 40.2652 41.895 40 41.895C39.7348 41.895 39.4804 41.7897 39.2929 41.6021C39.1054 41.4146 39 41.1602 39 40.895C39 40.6298 39.1054 40.3754 39.2929 40.1879C39.4804 40.0004 39.7348 39.895 40 39.895Z" fill="#8C30F5"/>
<path d="M50 29.895H47V51.895H50C50.2652 51.895 50.5196 51.7897 50.7071 51.6021C50.8946 51.4146 51 51.1602 51 50.895V30.895C51 30.6298 50.8946 30.3754 50.7071 30.1879C50.5196 30.0004 50.2652 29.895 50 29.895Z" fill="#2EC5CE"/>
</svg>
