<svg width="80" height="81" viewBox="0 0 80 81" fill="none" xmlns="http://www.w3.org/2000/svg">
<rect y="0.89502" width="80" height="80" rx="40" fill="white"/>
<path d="M37 38.895H30C29.7348 38.895 29.4804 38.7897 29.2929 38.6021C29.1054 38.4146 29 38.1602 29 37.895V30.895C29 30.6298 29.1054 30.3754 29.2929 30.1879C29.4804 30.0004 29.7348 29.895 30 29.895H37C37.2652 29.895 37.5196 30.0004 37.7071 30.1879C37.8946 30.3754 38 30.6298 38 30.895V37.895C38 38.1602 37.8946 38.4146 37.7071 38.6021C37.5196 38.7897 37.2652 38.895 37 38.895Z" fill="#8C30F5"/>
<path d="M37 51.895H30C29.7348 51.895 29.4804 51.7897 29.2929 51.6021C29.1054 51.4146 29 51.1602 29 50.895V43.895C29 43.6298 29.1054 43.3754 29.2929 43.1879C29.4804 43.0004 29.7348 42.895 30 42.895H37C37.2652 42.895 37.5196 43.0004 37.7071 43.1879C37.8946 43.3754 38 43.6298 38 43.895V50.895C38 51.1602 37.8946 51.4146 37.7071 51.6021C37.5196 51.7897 37.2652 51.895 37 51.895Z" fill="#8C30F5"/>
<path d="M41 30.895H51V32.895H41V30.895Z" fill="#2EC5CE"/>
<path d="M51 43.895H41V45.895H51V43.895Z" fill="#2EC5CE"/>
<path d="M51 48.895H41V50.895H51V48.895Z" fill="#D6B1FF"/>
<path d="M51 35.895H41V37.895H51V35.895Z" fill="#D6B1FF"/>
</svg>
