<svg width="377" height="547" viewBox="0 0 377 547" fill="none" xmlns="http://www.w3.org/2000/svg">
<path d="M496.235 343.035C500.837 336.853 499.756 327.359 493.864 322.874C475.692 309.036 459.293 290.802 444.592 273.023C428.644 253.735 418.222 230.087 404.867 208.735C382.659 173.232 359.72 143.539 330.935 115.439C329.631 114.165 303.85 87.7919 288.288 71.1384C281.205 63.5583 270.507 62.7444 262.621 69.1799C253.74 76.4282 251.314 90.4456 257.102 101.087L287.324 147.856C288.667 149.934 286.243 152.46 284.596 150.7L221.202 82.9977C212.696 73.2664 199.07 73.0142 190.299 82.4258C181.464 91.9053 180.724 107.781 188.627 118.305L249.521 193.194C251.063 195.092 248.88 197.922 247.075 196.365L152.925 115.155C144.033 107.192 131.247 109.039 124.323 119.288C118.055 128.564 118.65 141.761 125.716 150.234L213.144 249.321C214.7 251.084 212.793 253.959 210.917 252.682L119.638 190.466C111.581 184.829 100.96 186.633 95.1241 195.182C88.7546 204.512 90.1877 217.971 98.2047 225.254L208.21 322.076C215.648 328.622 211.432 342.351 202.089 342.005L173.814 340.961C161.058 341.579 151.099 353.936 151.462 368.696C151.829 383.608 162.585 395.351 175.479 394.903C192.248 394.32 209.082 394.941 225.686 397.843C248.995 401.916 272.207 407.854 294.084 418.198C316.888 428.981 331.927 443.644 350.073 462.906L372.927 487.166C377.817 492.356 385.45 491.837 389.781 486.022L496.235 343.035Z" fill="#8C30F5" fill-opacity="0.5"/>
<path d="M288.286 71.1432C303.845 87.7911 329.629 114.167 330.937 115.438C359.714 143.543 382.661 173.231 404.866 208.734C418.224 230.094 428.636 253.74 444.586 273.023C459.29 290.805 475.695 309.039 493.868 322.878C499.755 327.366 500.843 336.854 496.231 343.03L489.086 352.626C488.735 348.776 486.969 345.112 483.926 342.793C465.753 328.954 449.348 310.72 434.644 292.938C418.7 273.642 408.281 250.008 394.924 228.649C372.719 193.146 349.773 163.457 320.995 135.353C319.687 134.082 293.904 107.707 278.345 91.0581C271.646 83.8941 261.711 82.7713 253.973 88.1177C254.02 84.1042 254.957 80.1577 256.705 76.657C258.136 73.7896 260.124 71.2138 262.613 69.1807C270.509 62.7459 281.203 63.5619 288.286 71.1432Z" fill="black" fill-opacity="0.2"/>
</svg>
