<svg width="383" height="592" viewBox="0 0 383 592" fill="none" xmlns="http://www.w3.org/2000/svg">
<path d="M-142.642 384.041C-147.829 377.839 -147.189 367.738 -141.205 362.585C-122.748 346.688 -106.396 326.274 -91.8121 306.461C-75.9916 284.967 -66.2365 259.259 -53.2628 235.768C-31.6895 196.709 -9.03718 163.732 19.8726 132.025C21.1822 130.588 47.0107 100.917 62.5628 82.2315C69.642 73.7265 80.8952 72.1107 89.5632 78.3479C99.3248 85.3737 102.627 100.004 97.0776 111.65L67.6378 163.172C66.3294 165.461 69.0223 167.957 70.6685 165.982L134.031 90.0093C142.498 79.1321 156.873 77.9024 166.632 87.2203C176.462 96.6054 178.083 113.317 170.295 124.988L109.953 208.372C108.425 210.485 110.88 213.319 112.703 211.547L207.828 119.137C216.797 110.1 230.395 111.146 238.249 121.479C245.357 130.83 245.427 144.808 238.413 154.255L151.333 265.066C149.784 267.038 151.949 269.939 153.862 268.458L246.957 196.308C255.168 189.786 266.478 190.94 273.092 199.554C280.311 208.956 279.509 223.269 271.429 231.527L160.389 341.542C152.881 348.981 158.058 363.18 167.905 362.154L197.707 359.052C211.209 358.802 222.379 371.147 222.776 386.758C223.176 402.53 212.44 415.691 198.801 416.129C181.063 416.699 163.32 418.546 145.94 422.784C121.543 428.733 97.3463 436.644 74.7921 449.114C51.2825 462.112 36.1774 478.659 18.0344 500.281L-4.8156 527.515C-9.7043 533.341 -17.7917 533.332 -22.6719 527.498L-142.642 384.041Z" fill="#8C30F5" fill-opacity="0.5"/>
<path d="M211.64 411.471C207.939 414.283 203.545 415.982 198.799 416.133C181.062 416.694 163.32 418.55 145.936 422.789C121.55 428.735 97.3432 436.64 74.7961 449.115C51.2804 462.118 36.1787 478.66 18.0269 500.278L-4.81702 527.506C-9.70401 533.333 -17.7935 533.336 -22.6702 527.492L-32.9894 515.151C-29.6336 515.185 -26.2765 513.681 -23.7436 510.673L-0.286354 482.716C18.344 460.506 33.8444 443.522 57.9852 430.184C81.1396 417.37 105.995 409.25 131.039 403.135C148.878 398.795 167.093 396.893 185.317 396.311C190.182 396.158 194.703 394.416 198.498 391.531C205.604 386.13 210.197 376.702 209.924 366.156C209.893 364.852 209.792 363.585 209.613 362.342C217.219 366.985 222.51 376.11 222.776 386.752C223.032 397.032 218.567 406.205 211.64 411.471Z" fill="black" fill-opacity="0.2"/>
</svg>
