<svg width="80" height="82" viewBox="0 0 80 82" fill="none" xmlns="http://www.w3.org/2000/svg">
<rect y="0.118164" width="80" height="81.1189" rx="40" fill="white"/>
<g clip-path="url(#clip0)">
<path d="M46 39.1182H52L49 35.1182L46 39.1182ZM46 43.1182H52L49 47.1182L46 43.1182Z" fill="#D6B1FF"/>
<path d="M29 29.1182H35V53.1182H29C28.7348 53.1182 28.4804 53.0128 28.2929 52.8253C28.1054 52.6377 28 52.3834 28 52.1182V30.1182C28 29.8529 28.1054 29.5986 28.2929 29.4111C28.4804 29.2235 28.7348 29.1182 29 29.1182Z" fill="#8C30F5"/>
<path d="M37 29.1182H43C43.2652 29.1182 43.5196 29.2235 43.7071 29.4111C43.8946 29.5986 44 29.8529 44 30.1182V52.1182C44 52.3834 43.8946 52.6377 43.7071 52.8253C43.5196 53.0128 43.2652 53.1182 43 53.1182H37V29.1182Z" fill="#2EC5CE"/>
</g>
<defs>
<clipPath id="clip0">
<rect width="24" height="24" fill="white" transform="translate(28 29.1182)"/>
</clipPath>
</defs>
</svg>
